%TF.GenerationSoftware,KiCad,Pcbnew,9.0.0*%
%TF.CreationDate,2025-02-28T17:27:40-06:00*%
%TF.ProjectId,Block-amp-front,426c6f63-6b2d-4616-9d70-2d66726f6e74,v0.1*%
%TF.SameCoordinates,Original*%
%TF.FileFunction,Legend,Top*%
%TF.FilePolarity,Positive*%
%FSLAX46Y46*%
G04 Gerber Fmt 4.6, Leading zero omitted, Abs format (unit mm)*
G04 Created by KiCad (PCBNEW 9.0.0) date 2025-02-28 17:27:40*
%MOMM*%
%LPD*%
G01*
G04 APERTURE LIST*
%ADD10C,0.150000*%
%ADD11C,0.100000*%
%ADD12C,0.120000*%
G04 APERTURE END LIST*
D10*
X23488866Y-122880951D02*
X23488866Y-122119047D01*
X23869819Y-122499999D02*
X23107914Y-122499999D01*
D11*
X20500000Y-129000000D02*
X23500000Y-129000000D01*
X20500000Y-120500000D02*
X20500000Y-129000000D01*
D10*
X23488866Y-127380951D02*
X23488866Y-126619047D01*
D11*
X27000000Y-120500000D02*
X20500000Y-120500000D01*
D10*
X21944580Y-128005952D02*
X21944580Y-127410714D01*
X22301723Y-128125000D02*
X21051723Y-127708333D01*
X21051723Y-127708333D02*
X22301723Y-127291667D01*
X21051723Y-126874999D02*
X22063628Y-126874999D01*
X22063628Y-126874999D02*
X22182676Y-126815476D01*
X22182676Y-126815476D02*
X22242200Y-126755952D01*
X22242200Y-126755952D02*
X22301723Y-126636904D01*
X22301723Y-126636904D02*
X22301723Y-126398809D01*
X22301723Y-126398809D02*
X22242200Y-126279761D01*
X22242200Y-126279761D02*
X22182676Y-126220238D01*
X22182676Y-126220238D02*
X22063628Y-126160714D01*
X22063628Y-126160714D02*
X21051723Y-126160714D01*
X22301723Y-125565475D02*
X21051723Y-125565475D01*
X21051723Y-125565475D02*
X21051723Y-125267856D01*
X21051723Y-125267856D02*
X21111247Y-125089285D01*
X21111247Y-125089285D02*
X21230295Y-124970237D01*
X21230295Y-124970237D02*
X21349342Y-124910714D01*
X21349342Y-124910714D02*
X21587438Y-124851190D01*
X21587438Y-124851190D02*
X21766009Y-124851190D01*
X21766009Y-124851190D02*
X22004104Y-124910714D01*
X22004104Y-124910714D02*
X22123152Y-124970237D01*
X22123152Y-124970237D02*
X22242200Y-125089285D01*
X22242200Y-125089285D02*
X22301723Y-125267856D01*
X22301723Y-125267856D02*
X22301723Y-125565475D01*
X22301723Y-123363094D02*
X21051723Y-123363094D01*
X22301723Y-122767856D02*
X21051723Y-122767856D01*
X21051723Y-122767856D02*
X22301723Y-122053571D01*
X22301723Y-122053571D02*
X21051723Y-122053571D01*
X30491541Y-115301723D02*
X29896303Y-115301723D01*
X29896303Y-115301723D02*
X29896303Y-114051723D01*
X30908208Y-115301723D02*
X30908208Y-114051723D01*
X30908208Y-114051723D02*
X31384398Y-114051723D01*
X31384398Y-114051723D02*
X31503446Y-114111247D01*
X31503446Y-114111247D02*
X31562969Y-114170771D01*
X31562969Y-114170771D02*
X31622493Y-114289819D01*
X31622493Y-114289819D02*
X31622493Y-114468390D01*
X31622493Y-114468390D02*
X31562969Y-114587438D01*
X31562969Y-114587438D02*
X31503446Y-114646961D01*
X31503446Y-114646961D02*
X31384398Y-114706485D01*
X31384398Y-114706485D02*
X30908208Y-114706485D01*
X32574874Y-114646961D02*
X32158208Y-114646961D01*
X32158208Y-115301723D02*
X32158208Y-114051723D01*
X32158208Y-114051723D02*
X32753446Y-114051723D01*
D11*
X29000000Y-113500000D02*
X41000000Y-113500000D01*
X41000000Y-127000000D01*
X29000000Y-127000000D01*
X29000000Y-113500000D01*
D10*
X142051723Y-130312971D02*
X142051723Y-130074876D01*
X142051723Y-130074876D02*
X142111247Y-129955828D01*
X142111247Y-129955828D02*
X142230295Y-129836781D01*
X142230295Y-129836781D02*
X142468390Y-129777257D01*
X142468390Y-129777257D02*
X142885057Y-129777257D01*
X142885057Y-129777257D02*
X143123152Y-129836781D01*
X143123152Y-129836781D02*
X143242200Y-129955828D01*
X143242200Y-129955828D02*
X143301723Y-130074876D01*
X143301723Y-130074876D02*
X143301723Y-130312971D01*
X143301723Y-130312971D02*
X143242200Y-130432019D01*
X143242200Y-130432019D02*
X143123152Y-130551066D01*
X143123152Y-130551066D02*
X142885057Y-130610590D01*
X142885057Y-130610590D02*
X142468390Y-130610590D01*
X142468390Y-130610590D02*
X142230295Y-130551066D01*
X142230295Y-130551066D02*
X142111247Y-130432019D01*
X142111247Y-130432019D02*
X142051723Y-130312971D01*
X142051723Y-129241542D02*
X143063628Y-129241542D01*
X143063628Y-129241542D02*
X143182676Y-129182019D01*
X143182676Y-129182019D02*
X143242200Y-129122495D01*
X143242200Y-129122495D02*
X143301723Y-129003447D01*
X143301723Y-129003447D02*
X143301723Y-128765352D01*
X143301723Y-128765352D02*
X143242200Y-128646304D01*
X143242200Y-128646304D02*
X143182676Y-128586781D01*
X143182676Y-128586781D02*
X143063628Y-128527257D01*
X143063628Y-128527257D02*
X142051723Y-128527257D01*
X142051723Y-128110590D02*
X142051723Y-127396304D01*
X143301723Y-127753447D02*
X142051723Y-127753447D01*
X143301723Y-126979637D02*
X142051723Y-126979637D01*
X142051723Y-126979637D02*
X142051723Y-126503447D01*
X142051723Y-126503447D02*
X142111247Y-126384399D01*
X142111247Y-126384399D02*
X142170771Y-126324876D01*
X142170771Y-126324876D02*
X142289819Y-126265352D01*
X142289819Y-126265352D02*
X142468390Y-126265352D01*
X142468390Y-126265352D02*
X142587438Y-126324876D01*
X142587438Y-126324876D02*
X142646961Y-126384399D01*
X142646961Y-126384399D02*
X142706485Y-126503447D01*
X142706485Y-126503447D02*
X142706485Y-126979637D01*
X142051723Y-125729637D02*
X143063628Y-125729637D01*
X143063628Y-125729637D02*
X143182676Y-125670114D01*
X143182676Y-125670114D02*
X143242200Y-125610590D01*
X143242200Y-125610590D02*
X143301723Y-125491542D01*
X143301723Y-125491542D02*
X143301723Y-125253447D01*
X143301723Y-125253447D02*
X143242200Y-125134399D01*
X143242200Y-125134399D02*
X143182676Y-125074876D01*
X143182676Y-125074876D02*
X143063628Y-125015352D01*
X143063628Y-125015352D02*
X142051723Y-125015352D01*
X142051723Y-124598685D02*
X142051723Y-123884399D01*
X143301723Y-124241542D02*
X142051723Y-124241542D01*
X142646961Y-122098685D02*
X142706485Y-121920113D01*
X142706485Y-121920113D02*
X142766009Y-121860590D01*
X142766009Y-121860590D02*
X142885057Y-121801066D01*
X142885057Y-121801066D02*
X143063628Y-121801066D01*
X143063628Y-121801066D02*
X143182676Y-121860590D01*
X143182676Y-121860590D02*
X143242200Y-121920113D01*
X143242200Y-121920113D02*
X143301723Y-122039161D01*
X143301723Y-122039161D02*
X143301723Y-122515351D01*
X143301723Y-122515351D02*
X142051723Y-122515351D01*
X142051723Y-122515351D02*
X142051723Y-122098685D01*
X142051723Y-122098685D02*
X142111247Y-121979637D01*
X142111247Y-121979637D02*
X142170771Y-121920113D01*
X142170771Y-121920113D02*
X142289819Y-121860590D01*
X142289819Y-121860590D02*
X142408866Y-121860590D01*
X142408866Y-121860590D02*
X142527914Y-121920113D01*
X142527914Y-121920113D02*
X142587438Y-121979637D01*
X142587438Y-121979637D02*
X142646961Y-122098685D01*
X142646961Y-122098685D02*
X142646961Y-122515351D01*
X142051723Y-121265351D02*
X143063628Y-121265351D01*
X143063628Y-121265351D02*
X143182676Y-121205828D01*
X143182676Y-121205828D02*
X143242200Y-121146304D01*
X143242200Y-121146304D02*
X143301723Y-121027256D01*
X143301723Y-121027256D02*
X143301723Y-120789161D01*
X143301723Y-120789161D02*
X143242200Y-120670113D01*
X143242200Y-120670113D02*
X143182676Y-120610590D01*
X143182676Y-120610590D02*
X143063628Y-120551066D01*
X143063628Y-120551066D02*
X142051723Y-120551066D01*
X142646961Y-119539161D02*
X142646961Y-119955827D01*
X143301723Y-119955827D02*
X142051723Y-119955827D01*
X142051723Y-119955827D02*
X142051723Y-119360589D01*
X142646961Y-118467732D02*
X142646961Y-118884398D01*
X143301723Y-118884398D02*
X142051723Y-118884398D01*
X142051723Y-118884398D02*
X142051723Y-118289160D01*
X142646961Y-117812969D02*
X142646961Y-117396303D01*
X143301723Y-117217731D02*
X143301723Y-117812969D01*
X143301723Y-117812969D02*
X142051723Y-117812969D01*
X142051723Y-117812969D02*
X142051723Y-117217731D01*
X143301723Y-115967732D02*
X142706485Y-116384398D01*
X143301723Y-116682017D02*
X142051723Y-116682017D01*
X142051723Y-116682017D02*
X142051723Y-116205827D01*
X142051723Y-116205827D02*
X142111247Y-116086779D01*
X142111247Y-116086779D02*
X142170771Y-116027256D01*
X142170771Y-116027256D02*
X142289819Y-115967732D01*
X142289819Y-115967732D02*
X142468390Y-115967732D01*
X142468390Y-115967732D02*
X142587438Y-116027256D01*
X142587438Y-116027256D02*
X142646961Y-116086779D01*
X142646961Y-116086779D02*
X142706485Y-116205827D01*
X142706485Y-116205827D02*
X142706485Y-116682017D01*
X143242200Y-115491541D02*
X143301723Y-115312970D01*
X143301723Y-115312970D02*
X143301723Y-115015351D01*
X143301723Y-115015351D02*
X143242200Y-114896303D01*
X143242200Y-114896303D02*
X143182676Y-114836779D01*
X143182676Y-114836779D02*
X143063628Y-114777256D01*
X143063628Y-114777256D02*
X142944580Y-114777256D01*
X142944580Y-114777256D02*
X142825533Y-114836779D01*
X142825533Y-114836779D02*
X142766009Y-114896303D01*
X142766009Y-114896303D02*
X142706485Y-115015351D01*
X142706485Y-115015351D02*
X142646961Y-115253446D01*
X142646961Y-115253446D02*
X142587438Y-115372494D01*
X142587438Y-115372494D02*
X142527914Y-115432017D01*
X142527914Y-115432017D02*
X142408866Y-115491541D01*
X142408866Y-115491541D02*
X142289819Y-115491541D01*
X142289819Y-115491541D02*
X142170771Y-115432017D01*
X142170771Y-115432017D02*
X142111247Y-115372494D01*
X142111247Y-115372494D02*
X142051723Y-115253446D01*
X142051723Y-115253446D02*
X142051723Y-114955827D01*
X142051723Y-114955827D02*
X142111247Y-114777256D01*
X143301723Y-112277256D02*
X143301723Y-112336780D01*
X143301723Y-112336780D02*
X143242200Y-112455827D01*
X143242200Y-112455827D02*
X143063628Y-112634399D01*
X143063628Y-112634399D02*
X142706485Y-112932018D01*
X142706485Y-112932018D02*
X142527914Y-113051065D01*
X142527914Y-113051065D02*
X142349342Y-113110589D01*
X142349342Y-113110589D02*
X142230295Y-113110589D01*
X142230295Y-113110589D02*
X142111247Y-113051065D01*
X142111247Y-113051065D02*
X142051723Y-112932018D01*
X142051723Y-112932018D02*
X142051723Y-112872494D01*
X142051723Y-112872494D02*
X142111247Y-112753446D01*
X142111247Y-112753446D02*
X142230295Y-112693922D01*
X142230295Y-112693922D02*
X142289819Y-112693922D01*
X142289819Y-112693922D02*
X142408866Y-112753446D01*
X142408866Y-112753446D02*
X142468390Y-112812970D01*
X142468390Y-112812970D02*
X142706485Y-113170113D01*
X142706485Y-113170113D02*
X142766009Y-113229637D01*
X142766009Y-113229637D02*
X142885057Y-113289160D01*
X142885057Y-113289160D02*
X143063628Y-113289160D01*
X143063628Y-113289160D02*
X143182676Y-113229637D01*
X143182676Y-113229637D02*
X143242200Y-113170113D01*
X143242200Y-113170113D02*
X143301723Y-113051065D01*
X143301723Y-113051065D02*
X143301723Y-112872494D01*
X143301723Y-112872494D02*
X143242200Y-112753446D01*
X143242200Y-112753446D02*
X143182676Y-112693922D01*
X143182676Y-112693922D02*
X142944580Y-112515351D01*
X142944580Y-112515351D02*
X142766009Y-112455827D01*
X142766009Y-112455827D02*
X142646961Y-112455827D01*
X143242200Y-110848684D02*
X143301723Y-110670113D01*
X143301723Y-110670113D02*
X143301723Y-110372494D01*
X143301723Y-110372494D02*
X143242200Y-110253446D01*
X143242200Y-110253446D02*
X143182676Y-110193922D01*
X143182676Y-110193922D02*
X143063628Y-110134399D01*
X143063628Y-110134399D02*
X142944580Y-110134399D01*
X142944580Y-110134399D02*
X142825533Y-110193922D01*
X142825533Y-110193922D02*
X142766009Y-110253446D01*
X142766009Y-110253446D02*
X142706485Y-110372494D01*
X142706485Y-110372494D02*
X142646961Y-110610589D01*
X142646961Y-110610589D02*
X142587438Y-110729637D01*
X142587438Y-110729637D02*
X142527914Y-110789160D01*
X142527914Y-110789160D02*
X142408866Y-110848684D01*
X142408866Y-110848684D02*
X142289819Y-110848684D01*
X142289819Y-110848684D02*
X142170771Y-110789160D01*
X142170771Y-110789160D02*
X142111247Y-110729637D01*
X142111247Y-110729637D02*
X142051723Y-110610589D01*
X142051723Y-110610589D02*
X142051723Y-110312970D01*
X142051723Y-110312970D02*
X142111247Y-110134399D01*
X142944580Y-109658208D02*
X142944580Y-109062970D01*
X143301723Y-109777256D02*
X142051723Y-109360589D01*
X142051723Y-109360589D02*
X143301723Y-108943923D01*
X142646961Y-108110589D02*
X142646961Y-108527255D01*
X143301723Y-108527255D02*
X142051723Y-108527255D01*
X142051723Y-108527255D02*
X142051723Y-107932017D01*
X142646961Y-107455826D02*
X142646961Y-107039160D01*
X143301723Y-106860588D02*
X143301723Y-107455826D01*
X143301723Y-107455826D02*
X142051723Y-107455826D01*
X142051723Y-107455826D02*
X142051723Y-106860588D01*
X142051723Y-106503446D02*
X142051723Y-105789160D01*
X143301723Y-106146303D02*
X142051723Y-106146303D01*
X142706485Y-105134398D02*
X143301723Y-105134398D01*
X142051723Y-105551065D02*
X142706485Y-105134398D01*
X142706485Y-105134398D02*
X142051723Y-104717732D01*
D11*
X141500000Y-104000000D02*
X197500000Y-104000000D01*
D10*
X80051723Y-115848684D02*
X80051723Y-115134398D01*
X81301723Y-115491541D02*
X80051723Y-115491541D01*
X80051723Y-114479636D02*
X80051723Y-114241541D01*
X80051723Y-114241541D02*
X80111247Y-114122493D01*
X80111247Y-114122493D02*
X80230295Y-114003446D01*
X80230295Y-114003446D02*
X80468390Y-113943922D01*
X80468390Y-113943922D02*
X80885057Y-113943922D01*
X80885057Y-113943922D02*
X81123152Y-114003446D01*
X81123152Y-114003446D02*
X81242200Y-114122493D01*
X81242200Y-114122493D02*
X81301723Y-114241541D01*
X81301723Y-114241541D02*
X81301723Y-114479636D01*
X81301723Y-114479636D02*
X81242200Y-114598684D01*
X81242200Y-114598684D02*
X81123152Y-114717731D01*
X81123152Y-114717731D02*
X80885057Y-114777255D01*
X80885057Y-114777255D02*
X80468390Y-114777255D01*
X80468390Y-114777255D02*
X80230295Y-114717731D01*
X80230295Y-114717731D02*
X80111247Y-114598684D01*
X80111247Y-114598684D02*
X80051723Y-114479636D01*
X81301723Y-113408207D02*
X80051723Y-113408207D01*
X80051723Y-113408207D02*
X81301723Y-112693922D01*
X81301723Y-112693922D02*
X80051723Y-112693922D01*
X80646961Y-112098683D02*
X80646961Y-111682017D01*
X81301723Y-111503445D02*
X81301723Y-112098683D01*
X81301723Y-112098683D02*
X80051723Y-112098683D01*
X80051723Y-112098683D02*
X80051723Y-111503445D01*
X81242200Y-110074874D02*
X81301723Y-109896303D01*
X81301723Y-109896303D02*
X81301723Y-109598684D01*
X81301723Y-109598684D02*
X81242200Y-109479636D01*
X81242200Y-109479636D02*
X81182676Y-109420112D01*
X81182676Y-109420112D02*
X81063628Y-109360589D01*
X81063628Y-109360589D02*
X80944580Y-109360589D01*
X80944580Y-109360589D02*
X80825533Y-109420112D01*
X80825533Y-109420112D02*
X80766009Y-109479636D01*
X80766009Y-109479636D02*
X80706485Y-109598684D01*
X80706485Y-109598684D02*
X80646961Y-109836779D01*
X80646961Y-109836779D02*
X80587438Y-109955827D01*
X80587438Y-109955827D02*
X80527914Y-110015350D01*
X80527914Y-110015350D02*
X80408866Y-110074874D01*
X80408866Y-110074874D02*
X80289819Y-110074874D01*
X80289819Y-110074874D02*
X80170771Y-110015350D01*
X80170771Y-110015350D02*
X80111247Y-109955827D01*
X80111247Y-109955827D02*
X80051723Y-109836779D01*
X80051723Y-109836779D02*
X80051723Y-109539160D01*
X80051723Y-109539160D02*
X80111247Y-109360589D01*
X80051723Y-109003446D02*
X80051723Y-108289160D01*
X81301723Y-108646303D02*
X80051723Y-108646303D01*
X80944580Y-107932017D02*
X80944580Y-107336779D01*
X81301723Y-108051065D02*
X80051723Y-107634398D01*
X80051723Y-107634398D02*
X81301723Y-107217732D01*
X81182676Y-106086779D02*
X81242200Y-106146303D01*
X81242200Y-106146303D02*
X81301723Y-106324874D01*
X81301723Y-106324874D02*
X81301723Y-106443922D01*
X81301723Y-106443922D02*
X81242200Y-106622493D01*
X81242200Y-106622493D02*
X81123152Y-106741541D01*
X81123152Y-106741541D02*
X81004104Y-106801064D01*
X81004104Y-106801064D02*
X80766009Y-106860588D01*
X80766009Y-106860588D02*
X80587438Y-106860588D01*
X80587438Y-106860588D02*
X80349342Y-106801064D01*
X80349342Y-106801064D02*
X80230295Y-106741541D01*
X80230295Y-106741541D02*
X80111247Y-106622493D01*
X80111247Y-106622493D02*
X80051723Y-106443922D01*
X80051723Y-106443922D02*
X80051723Y-106324874D01*
X80051723Y-106324874D02*
X80111247Y-106146303D01*
X80111247Y-106146303D02*
X80170771Y-106086779D01*
X81301723Y-105551064D02*
X80051723Y-105551064D01*
X81301723Y-104836779D02*
X80587438Y-105372493D01*
X80051723Y-104836779D02*
X80766009Y-105551064D01*
D11*
X141500000Y-104000000D02*
X79500000Y-104000000D01*
X79500000Y-134000000D02*
X79500000Y-104000000D01*
X141500000Y-134500000D02*
X141500000Y-104000000D01*
D10*
X196076793Y-132005952D02*
X196076793Y-131767857D01*
X196076793Y-131767857D02*
X196136317Y-131648809D01*
X196136317Y-131648809D02*
X196255365Y-131529762D01*
X196255365Y-131529762D02*
X196493460Y-131470238D01*
X196493460Y-131470238D02*
X196910127Y-131470238D01*
X196910127Y-131470238D02*
X197148222Y-131529762D01*
X197148222Y-131529762D02*
X197267270Y-131648809D01*
X197267270Y-131648809D02*
X197326793Y-131767857D01*
X197326793Y-131767857D02*
X197326793Y-132005952D01*
X197326793Y-132005952D02*
X197267270Y-132125000D01*
X197267270Y-132125000D02*
X197148222Y-132244047D01*
X197148222Y-132244047D02*
X196910127Y-132303571D01*
X196910127Y-132303571D02*
X196493460Y-132303571D01*
X196493460Y-132303571D02*
X196255365Y-132244047D01*
X196255365Y-132244047D02*
X196136317Y-132125000D01*
X196136317Y-132125000D02*
X196076793Y-132005952D01*
X196076793Y-130934523D02*
X197088698Y-130934523D01*
X197088698Y-130934523D02*
X197207746Y-130875000D01*
X197207746Y-130875000D02*
X197267270Y-130815476D01*
X197267270Y-130815476D02*
X197326793Y-130696428D01*
X197326793Y-130696428D02*
X197326793Y-130458333D01*
X197326793Y-130458333D02*
X197267270Y-130339285D01*
X197267270Y-130339285D02*
X197207746Y-130279762D01*
X197207746Y-130279762D02*
X197088698Y-130220238D01*
X197088698Y-130220238D02*
X196076793Y-130220238D01*
X196076793Y-129803571D02*
X196076793Y-129089285D01*
X197326793Y-129446428D02*
X196076793Y-129446428D01*
X197326793Y-128672618D02*
X196076793Y-128672618D01*
X196076793Y-128672618D02*
X196076793Y-128196428D01*
X196076793Y-128196428D02*
X196136317Y-128077380D01*
X196136317Y-128077380D02*
X196195841Y-128017857D01*
X196195841Y-128017857D02*
X196314889Y-127958333D01*
X196314889Y-127958333D02*
X196493460Y-127958333D01*
X196493460Y-127958333D02*
X196612508Y-128017857D01*
X196612508Y-128017857D02*
X196672031Y-128077380D01*
X196672031Y-128077380D02*
X196731555Y-128196428D01*
X196731555Y-128196428D02*
X196731555Y-128672618D01*
X196076793Y-127422618D02*
X197088698Y-127422618D01*
X197088698Y-127422618D02*
X197207746Y-127363095D01*
X197207746Y-127363095D02*
X197267270Y-127303571D01*
X197267270Y-127303571D02*
X197326793Y-127184523D01*
X197326793Y-127184523D02*
X197326793Y-126946428D01*
X197326793Y-126946428D02*
X197267270Y-126827380D01*
X197267270Y-126827380D02*
X197207746Y-126767857D01*
X197207746Y-126767857D02*
X197088698Y-126708333D01*
X197088698Y-126708333D02*
X196076793Y-126708333D01*
X196076793Y-126291666D02*
X196076793Y-125577380D01*
X197326793Y-125934523D02*
X196076793Y-125934523D01*
X198089223Y-136083333D02*
X198089223Y-135369047D01*
X199339223Y-135726190D02*
X198089223Y-135726190D01*
X199339223Y-134238095D02*
X198743985Y-134654761D01*
X199339223Y-134952380D02*
X198089223Y-134952380D01*
X198089223Y-134952380D02*
X198089223Y-134476190D01*
X198089223Y-134476190D02*
X198148747Y-134357142D01*
X198148747Y-134357142D02*
X198208271Y-134297619D01*
X198208271Y-134297619D02*
X198327319Y-134238095D01*
X198327319Y-134238095D02*
X198505890Y-134238095D01*
X198505890Y-134238095D02*
X198624938Y-134297619D01*
X198624938Y-134297619D02*
X198684461Y-134357142D01*
X198684461Y-134357142D02*
X198743985Y-134476190D01*
X198743985Y-134476190D02*
X198743985Y-134952380D01*
X198982080Y-133761904D02*
X198982080Y-133166666D01*
X199339223Y-133880952D02*
X198089223Y-133464285D01*
X198089223Y-133464285D02*
X199339223Y-133047619D01*
X199339223Y-132630951D02*
X198089223Y-132630951D01*
X198089223Y-132630951D02*
X199339223Y-131916666D01*
X199339223Y-131916666D02*
X198089223Y-131916666D01*
X199279700Y-131380951D02*
X199339223Y-131202380D01*
X199339223Y-131202380D02*
X199339223Y-130904761D01*
X199339223Y-130904761D02*
X199279700Y-130785713D01*
X199279700Y-130785713D02*
X199220176Y-130726189D01*
X199220176Y-130726189D02*
X199101128Y-130666666D01*
X199101128Y-130666666D02*
X198982080Y-130666666D01*
X198982080Y-130666666D02*
X198863033Y-130726189D01*
X198863033Y-130726189D02*
X198803509Y-130785713D01*
X198803509Y-130785713D02*
X198743985Y-130904761D01*
X198743985Y-130904761D02*
X198684461Y-131142856D01*
X198684461Y-131142856D02*
X198624938Y-131261904D01*
X198624938Y-131261904D02*
X198565414Y-131321427D01*
X198565414Y-131321427D02*
X198446366Y-131380951D01*
X198446366Y-131380951D02*
X198327319Y-131380951D01*
X198327319Y-131380951D02*
X198208271Y-131321427D01*
X198208271Y-131321427D02*
X198148747Y-131261904D01*
X198148747Y-131261904D02*
X198089223Y-131142856D01*
X198089223Y-131142856D02*
X198089223Y-130845237D01*
X198089223Y-130845237D02*
X198148747Y-130666666D01*
X198684461Y-129714285D02*
X198684461Y-130130951D01*
X199339223Y-130130951D02*
X198089223Y-130130951D01*
X198089223Y-130130951D02*
X198089223Y-129535713D01*
X198089223Y-128821427D02*
X198089223Y-128583332D01*
X198089223Y-128583332D02*
X198148747Y-128464284D01*
X198148747Y-128464284D02*
X198267795Y-128345237D01*
X198267795Y-128345237D02*
X198505890Y-128285713D01*
X198505890Y-128285713D02*
X198922557Y-128285713D01*
X198922557Y-128285713D02*
X199160652Y-128345237D01*
X199160652Y-128345237D02*
X199279700Y-128464284D01*
X199279700Y-128464284D02*
X199339223Y-128583332D01*
X199339223Y-128583332D02*
X199339223Y-128821427D01*
X199339223Y-128821427D02*
X199279700Y-128940475D01*
X199279700Y-128940475D02*
X199160652Y-129059522D01*
X199160652Y-129059522D02*
X198922557Y-129119046D01*
X198922557Y-129119046D02*
X198505890Y-129119046D01*
X198505890Y-129119046D02*
X198267795Y-129059522D01*
X198267795Y-129059522D02*
X198148747Y-128940475D01*
X198148747Y-128940475D02*
X198089223Y-128821427D01*
X199339223Y-127035713D02*
X198743985Y-127452379D01*
X199339223Y-127749998D02*
X198089223Y-127749998D01*
X198089223Y-127749998D02*
X198089223Y-127273808D01*
X198089223Y-127273808D02*
X198148747Y-127154760D01*
X198148747Y-127154760D02*
X198208271Y-127095237D01*
X198208271Y-127095237D02*
X198327319Y-127035713D01*
X198327319Y-127035713D02*
X198505890Y-127035713D01*
X198505890Y-127035713D02*
X198624938Y-127095237D01*
X198624938Y-127095237D02*
X198684461Y-127154760D01*
X198684461Y-127154760D02*
X198743985Y-127273808D01*
X198743985Y-127273808D02*
X198743985Y-127749998D01*
X199339223Y-126499998D02*
X198089223Y-126499998D01*
X198089223Y-126499998D02*
X198982080Y-126083332D01*
X198982080Y-126083332D02*
X198089223Y-125666665D01*
X198089223Y-125666665D02*
X199339223Y-125666665D01*
X198684461Y-125071427D02*
X198684461Y-124654761D01*
X199339223Y-124476189D02*
X199339223Y-125071427D01*
X199339223Y-125071427D02*
X198089223Y-125071427D01*
X198089223Y-125071427D02*
X198089223Y-124476189D01*
X199339223Y-123226190D02*
X198743985Y-123642856D01*
X199339223Y-123940475D02*
X198089223Y-123940475D01*
X198089223Y-123940475D02*
X198089223Y-123464285D01*
X198089223Y-123464285D02*
X198148747Y-123345237D01*
X198148747Y-123345237D02*
X198208271Y-123285714D01*
X198208271Y-123285714D02*
X198327319Y-123226190D01*
X198327319Y-123226190D02*
X198505890Y-123226190D01*
X198505890Y-123226190D02*
X198624938Y-123285714D01*
X198624938Y-123285714D02*
X198684461Y-123345237D01*
X198684461Y-123345237D02*
X198743985Y-123464285D01*
X198743985Y-123464285D02*
X198743985Y-123940475D01*
X199279700Y-122749999D02*
X199339223Y-122571428D01*
X199339223Y-122571428D02*
X199339223Y-122273809D01*
X199339223Y-122273809D02*
X199279700Y-122154761D01*
X199279700Y-122154761D02*
X199220176Y-122095237D01*
X199220176Y-122095237D02*
X199101128Y-122035714D01*
X199101128Y-122035714D02*
X198982080Y-122035714D01*
X198982080Y-122035714D02*
X198863033Y-122095237D01*
X198863033Y-122095237D02*
X198803509Y-122154761D01*
X198803509Y-122154761D02*
X198743985Y-122273809D01*
X198743985Y-122273809D02*
X198684461Y-122511904D01*
X198684461Y-122511904D02*
X198624938Y-122630952D01*
X198624938Y-122630952D02*
X198565414Y-122690475D01*
X198565414Y-122690475D02*
X198446366Y-122749999D01*
X198446366Y-122749999D02*
X198327319Y-122749999D01*
X198327319Y-122749999D02*
X198208271Y-122690475D01*
X198208271Y-122690475D02*
X198148747Y-122630952D01*
X198148747Y-122630952D02*
X198089223Y-122511904D01*
X198089223Y-122511904D02*
X198089223Y-122214285D01*
X198089223Y-122214285D02*
X198148747Y-122035714D01*
D11*
X200500000Y-137000000D02*
X203500000Y-137000000D01*
X200500000Y-129500000D02*
X200500000Y-137000000D01*
X207500000Y-129500000D02*
X200500000Y-129500000D01*
X200500000Y-121500000D02*
X203500000Y-121500000D01*
X200500000Y-129000000D02*
X200500000Y-121500000D01*
X207500000Y-129000000D02*
X200500000Y-129000000D01*
D10*
X203488866Y-135880951D02*
X203488866Y-135119047D01*
X203488866Y-131880951D02*
X203488866Y-131119047D01*
X203869819Y-131499999D02*
X203107914Y-131499999D01*
X203488866Y-127380951D02*
X203488866Y-126619047D01*
X203488866Y-123380951D02*
X203488866Y-122619047D01*
X203869819Y-122999999D02*
X203107914Y-122999999D01*
X198178572Y-98191371D02*
X198178572Y-99691371D01*
X198178572Y-99691371D02*
X197607143Y-99691371D01*
X197607143Y-99691371D02*
X197464286Y-99619942D01*
X197464286Y-99619942D02*
X197392857Y-99548514D01*
X197392857Y-99548514D02*
X197321429Y-99405657D01*
X197321429Y-99405657D02*
X197321429Y-99191371D01*
X197321429Y-99191371D02*
X197392857Y-99048514D01*
X197392857Y-99048514D02*
X197464286Y-98977085D01*
X197464286Y-98977085D02*
X197607143Y-98905657D01*
X197607143Y-98905657D02*
X198178572Y-98905657D01*
X196392857Y-99691371D02*
X196107143Y-99691371D01*
X196107143Y-99691371D02*
X195964286Y-99619942D01*
X195964286Y-99619942D02*
X195821429Y-99477085D01*
X195821429Y-99477085D02*
X195750000Y-99191371D01*
X195750000Y-99191371D02*
X195750000Y-98691371D01*
X195750000Y-98691371D02*
X195821429Y-98405657D01*
X195821429Y-98405657D02*
X195964286Y-98262800D01*
X195964286Y-98262800D02*
X196107143Y-98191371D01*
X196107143Y-98191371D02*
X196392857Y-98191371D01*
X196392857Y-98191371D02*
X196535715Y-98262800D01*
X196535715Y-98262800D02*
X196678572Y-98405657D01*
X196678572Y-98405657D02*
X196750000Y-98691371D01*
X196750000Y-98691371D02*
X196750000Y-99191371D01*
X196750000Y-99191371D02*
X196678572Y-99477085D01*
X196678572Y-99477085D02*
X196535715Y-99619942D01*
X196535715Y-99619942D02*
X196392857Y-99691371D01*
X195250000Y-99691371D02*
X194892857Y-98191371D01*
X194892857Y-98191371D02*
X194607143Y-99262800D01*
X194607143Y-99262800D02*
X194321428Y-98191371D01*
X194321428Y-98191371D02*
X193964286Y-99691371D01*
X193392857Y-98977085D02*
X192892857Y-98977085D01*
X192678571Y-98191371D02*
X193392857Y-98191371D01*
X193392857Y-98191371D02*
X193392857Y-99691371D01*
X193392857Y-99691371D02*
X192678571Y-99691371D01*
X191178571Y-98191371D02*
X191678571Y-98905657D01*
X192035714Y-98191371D02*
X192035714Y-99691371D01*
X192035714Y-99691371D02*
X191464285Y-99691371D01*
X191464285Y-99691371D02*
X191321428Y-99619942D01*
X191321428Y-99619942D02*
X191249999Y-99548514D01*
X191249999Y-99548514D02*
X191178571Y-99405657D01*
X191178571Y-99405657D02*
X191178571Y-99191371D01*
X191178571Y-99191371D02*
X191249999Y-99048514D01*
X191249999Y-99048514D02*
X191321428Y-98977085D01*
X191321428Y-98977085D02*
X191464285Y-98905657D01*
X191464285Y-98905657D02*
X192035714Y-98905657D01*
X189392857Y-98191371D02*
X189392857Y-99691371D01*
X188678571Y-98191371D02*
X188678571Y-99691371D01*
X188678571Y-99691371D02*
X187821428Y-98191371D01*
X187821428Y-98191371D02*
X187821428Y-99691371D01*
D11*
X199000000Y-97500000D02*
X199000000Y-92000000D01*
X186500000Y-97500000D02*
X199000000Y-97500000D01*
X186500000Y-92500000D02*
X186500000Y-97500000D01*
D10*
X190761904Y-96011133D02*
X190000000Y-96011133D01*
X190380952Y-95630180D02*
X190380952Y-96392085D01*
X189619047Y-96630180D02*
X189000000Y-96630180D01*
X189000000Y-96630180D02*
X189333333Y-96249228D01*
X189333333Y-96249228D02*
X189190476Y-96249228D01*
X189190476Y-96249228D02*
X189095238Y-96201609D01*
X189095238Y-96201609D02*
X189047619Y-96153990D01*
X189047619Y-96153990D02*
X189000000Y-96058752D01*
X189000000Y-96058752D02*
X189000000Y-95820657D01*
X189000000Y-95820657D02*
X189047619Y-95725419D01*
X189047619Y-95725419D02*
X189095238Y-95677800D01*
X189095238Y-95677800D02*
X189190476Y-95630180D01*
X189190476Y-95630180D02*
X189476190Y-95630180D01*
X189476190Y-95630180D02*
X189571428Y-95677800D01*
X189571428Y-95677800D02*
X189619047Y-95725419D01*
X188380952Y-96630180D02*
X188285714Y-96630180D01*
X188285714Y-96630180D02*
X188190476Y-96582561D01*
X188190476Y-96582561D02*
X188142857Y-96534942D01*
X188142857Y-96534942D02*
X188095238Y-96439704D01*
X188095238Y-96439704D02*
X188047619Y-96249228D01*
X188047619Y-96249228D02*
X188047619Y-96011133D01*
X188047619Y-96011133D02*
X188095238Y-95820657D01*
X188095238Y-95820657D02*
X188142857Y-95725419D01*
X188142857Y-95725419D02*
X188190476Y-95677800D01*
X188190476Y-95677800D02*
X188285714Y-95630180D01*
X188285714Y-95630180D02*
X188380952Y-95630180D01*
X188380952Y-95630180D02*
X188476190Y-95677800D01*
X188476190Y-95677800D02*
X188523809Y-95725419D01*
X188523809Y-95725419D02*
X188571428Y-95820657D01*
X188571428Y-95820657D02*
X188619047Y-96011133D01*
X188619047Y-96011133D02*
X188619047Y-96249228D01*
X188619047Y-96249228D02*
X188571428Y-96439704D01*
X188571428Y-96439704D02*
X188523809Y-96534942D01*
X188523809Y-96534942D02*
X188476190Y-96582561D01*
X188476190Y-96582561D02*
X188380952Y-96630180D01*
X187761904Y-96630180D02*
X187428571Y-95630180D01*
X187428571Y-95630180D02*
X187095238Y-96630180D01*
X193761904Y-96582561D02*
X193857142Y-96630180D01*
X193857142Y-96630180D02*
X193999999Y-96630180D01*
X193999999Y-96630180D02*
X194142856Y-96582561D01*
X194142856Y-96582561D02*
X194238094Y-96487323D01*
X194238094Y-96487323D02*
X194285713Y-96392085D01*
X194285713Y-96392085D02*
X194333332Y-96201609D01*
X194333332Y-96201609D02*
X194333332Y-96058752D01*
X194333332Y-96058752D02*
X194285713Y-95868276D01*
X194285713Y-95868276D02*
X194238094Y-95773038D01*
X194238094Y-95773038D02*
X194142856Y-95677800D01*
X194142856Y-95677800D02*
X193999999Y-95630180D01*
X193999999Y-95630180D02*
X193904761Y-95630180D01*
X193904761Y-95630180D02*
X193761904Y-95677800D01*
X193761904Y-95677800D02*
X193714285Y-95725419D01*
X193714285Y-95725419D02*
X193714285Y-96058752D01*
X193714285Y-96058752D02*
X193904761Y-96058752D01*
X193285713Y-95630180D02*
X193285713Y-96630180D01*
X193285713Y-96630180D02*
X192714285Y-95630180D01*
X192714285Y-95630180D02*
X192714285Y-96630180D01*
X192238094Y-95630180D02*
X192238094Y-96630180D01*
X192238094Y-96630180D02*
X191999999Y-96630180D01*
X191999999Y-96630180D02*
X191857142Y-96582561D01*
X191857142Y-96582561D02*
X191761904Y-96487323D01*
X191761904Y-96487323D02*
X191714285Y-96392085D01*
X191714285Y-96392085D02*
X191666666Y-96201609D01*
X191666666Y-96201609D02*
X191666666Y-96058752D01*
X191666666Y-96058752D02*
X191714285Y-95868276D01*
X191714285Y-95868276D02*
X191761904Y-95773038D01*
X191761904Y-95773038D02*
X191857142Y-95677800D01*
X191857142Y-95677800D02*
X191999999Y-95630180D01*
X191999999Y-95630180D02*
X192238094Y-95630180D01*
X198285713Y-96011133D02*
X197523809Y-96011133D01*
X197904761Y-95630180D02*
X197904761Y-96392085D01*
X196999999Y-95630180D02*
X196809523Y-95630180D01*
X196809523Y-95630180D02*
X196714285Y-95677800D01*
X196714285Y-95677800D02*
X196666666Y-95725419D01*
X196666666Y-95725419D02*
X196571428Y-95868276D01*
X196571428Y-95868276D02*
X196523809Y-96058752D01*
X196523809Y-96058752D02*
X196523809Y-96439704D01*
X196523809Y-96439704D02*
X196571428Y-96534942D01*
X196571428Y-96534942D02*
X196619047Y-96582561D01*
X196619047Y-96582561D02*
X196714285Y-96630180D01*
X196714285Y-96630180D02*
X196904761Y-96630180D01*
X196904761Y-96630180D02*
X196999999Y-96582561D01*
X196999999Y-96582561D02*
X197047618Y-96534942D01*
X197047618Y-96534942D02*
X197095237Y-96439704D01*
X197095237Y-96439704D02*
X197095237Y-96201609D01*
X197095237Y-96201609D02*
X197047618Y-96106371D01*
X197047618Y-96106371D02*
X196999999Y-96058752D01*
X196999999Y-96058752D02*
X196904761Y-96011133D01*
X196904761Y-96011133D02*
X196714285Y-96011133D01*
X196714285Y-96011133D02*
X196619047Y-96058752D01*
X196619047Y-96058752D02*
X196571428Y-96106371D01*
X196571428Y-96106371D02*
X196523809Y-96201609D01*
X196238094Y-96630180D02*
X195904761Y-95630180D01*
X195904761Y-95630180D02*
X195571428Y-96630180D01*
X201846009Y-134261904D02*
X201893628Y-134119047D01*
X201893628Y-134119047D02*
X201941247Y-134071428D01*
X201941247Y-134071428D02*
X202036485Y-134023809D01*
X202036485Y-134023809D02*
X202179342Y-134023809D01*
X202179342Y-134023809D02*
X202274580Y-134071428D01*
X202274580Y-134071428D02*
X202322200Y-134119047D01*
X202322200Y-134119047D02*
X202369819Y-134214285D01*
X202369819Y-134214285D02*
X202369819Y-134595237D01*
X202369819Y-134595237D02*
X201369819Y-134595237D01*
X201369819Y-134595237D02*
X201369819Y-134261904D01*
X201369819Y-134261904D02*
X201417438Y-134166666D01*
X201417438Y-134166666D02*
X201465057Y-134119047D01*
X201465057Y-134119047D02*
X201560295Y-134071428D01*
X201560295Y-134071428D02*
X201655533Y-134071428D01*
X201655533Y-134071428D02*
X201750771Y-134119047D01*
X201750771Y-134119047D02*
X201798390Y-134166666D01*
X201798390Y-134166666D02*
X201846009Y-134261904D01*
X201846009Y-134261904D02*
X201846009Y-134595237D01*
X202084104Y-133642856D02*
X202084104Y-133166666D01*
X202369819Y-133738094D02*
X201369819Y-133404761D01*
X201369819Y-133404761D02*
X202369819Y-133071428D01*
X202369819Y-132261904D02*
X202369819Y-132738094D01*
X202369819Y-132738094D02*
X201369819Y-132738094D01*
X162336779Y-96488866D02*
X163098684Y-96488866D01*
X162717731Y-96869819D02*
X162717731Y-96107914D01*
X163479636Y-95869819D02*
X164098683Y-95869819D01*
X164098683Y-95869819D02*
X163765350Y-96250771D01*
X163765350Y-96250771D02*
X163908207Y-96250771D01*
X163908207Y-96250771D02*
X164003445Y-96298390D01*
X164003445Y-96298390D02*
X164051064Y-96346009D01*
X164051064Y-96346009D02*
X164098683Y-96441247D01*
X164098683Y-96441247D02*
X164098683Y-96679342D01*
X164098683Y-96679342D02*
X164051064Y-96774580D01*
X164051064Y-96774580D02*
X164003445Y-96822200D01*
X164003445Y-96822200D02*
X163908207Y-96869819D01*
X163908207Y-96869819D02*
X163622493Y-96869819D01*
X163622493Y-96869819D02*
X163527255Y-96822200D01*
X163527255Y-96822200D02*
X163479636Y-96774580D01*
X164717731Y-95869819D02*
X164812969Y-95869819D01*
X164812969Y-95869819D02*
X164908207Y-95917438D01*
X164908207Y-95917438D02*
X164955826Y-95965057D01*
X164955826Y-95965057D02*
X165003445Y-96060295D01*
X165003445Y-96060295D02*
X165051064Y-96250771D01*
X165051064Y-96250771D02*
X165051064Y-96488866D01*
X165051064Y-96488866D02*
X165003445Y-96679342D01*
X165003445Y-96679342D02*
X164955826Y-96774580D01*
X164955826Y-96774580D02*
X164908207Y-96822200D01*
X164908207Y-96822200D02*
X164812969Y-96869819D01*
X164812969Y-96869819D02*
X164717731Y-96869819D01*
X164717731Y-96869819D02*
X164622493Y-96822200D01*
X164622493Y-96822200D02*
X164574874Y-96774580D01*
X164574874Y-96774580D02*
X164527255Y-96679342D01*
X164527255Y-96679342D02*
X164479636Y-96488866D01*
X164479636Y-96488866D02*
X164479636Y-96250771D01*
X164479636Y-96250771D02*
X164527255Y-96060295D01*
X164527255Y-96060295D02*
X164574874Y-95965057D01*
X164574874Y-95965057D02*
X164622493Y-95917438D01*
X164622493Y-95917438D02*
X164717731Y-95869819D01*
X165336779Y-95869819D02*
X165670112Y-96869819D01*
X165670112Y-96869819D02*
X166003445Y-95869819D01*
X115822200Y-114210839D02*
X115869819Y-114067982D01*
X115869819Y-114067982D02*
X115869819Y-113829887D01*
X115869819Y-113829887D02*
X115822200Y-113734649D01*
X115822200Y-113734649D02*
X115774580Y-113687030D01*
X115774580Y-113687030D02*
X115679342Y-113639411D01*
X115679342Y-113639411D02*
X115584104Y-113639411D01*
X115584104Y-113639411D02*
X115488866Y-113687030D01*
X115488866Y-113687030D02*
X115441247Y-113734649D01*
X115441247Y-113734649D02*
X115393628Y-113829887D01*
X115393628Y-113829887D02*
X115346009Y-114020363D01*
X115346009Y-114020363D02*
X115298390Y-114115601D01*
X115298390Y-114115601D02*
X115250771Y-114163220D01*
X115250771Y-114163220D02*
X115155533Y-114210839D01*
X115155533Y-114210839D02*
X115060295Y-114210839D01*
X115060295Y-114210839D02*
X114965057Y-114163220D01*
X114965057Y-114163220D02*
X114917438Y-114115601D01*
X114917438Y-114115601D02*
X114869819Y-114020363D01*
X114869819Y-114020363D02*
X114869819Y-113782268D01*
X114869819Y-113782268D02*
X114917438Y-113639411D01*
X115869819Y-113210839D02*
X114869819Y-113210839D01*
X114917438Y-112210840D02*
X114869819Y-112306078D01*
X114869819Y-112306078D02*
X114869819Y-112448935D01*
X114869819Y-112448935D02*
X114917438Y-112591792D01*
X114917438Y-112591792D02*
X115012676Y-112687030D01*
X115012676Y-112687030D02*
X115107914Y-112734649D01*
X115107914Y-112734649D02*
X115298390Y-112782268D01*
X115298390Y-112782268D02*
X115441247Y-112782268D01*
X115441247Y-112782268D02*
X115631723Y-112734649D01*
X115631723Y-112734649D02*
X115726961Y-112687030D01*
X115726961Y-112687030D02*
X115822200Y-112591792D01*
X115822200Y-112591792D02*
X115869819Y-112448935D01*
X115869819Y-112448935D02*
X115869819Y-112353697D01*
X115869819Y-112353697D02*
X115822200Y-112210840D01*
X115822200Y-112210840D02*
X115774580Y-112163221D01*
X115774580Y-112163221D02*
X115441247Y-112163221D01*
X115441247Y-112163221D02*
X115441247Y-112353697D01*
X115774580Y-111734649D02*
X115822200Y-111687030D01*
X115822200Y-111687030D02*
X115869819Y-111734649D01*
X115869819Y-111734649D02*
X115822200Y-111782268D01*
X115822200Y-111782268D02*
X115774580Y-111734649D01*
X115774580Y-111734649D02*
X115869819Y-111734649D01*
X115250771Y-111734649D02*
X115298390Y-111687030D01*
X115298390Y-111687030D02*
X115346009Y-111734649D01*
X115346009Y-111734649D02*
X115298390Y-111782268D01*
X115298390Y-111782268D02*
X115250771Y-111734649D01*
X115250771Y-111734649D02*
X115346009Y-111734649D01*
X114869819Y-110639411D02*
X114869819Y-110067983D01*
X115869819Y-110353697D02*
X114869819Y-110353697D01*
X115869819Y-109591792D02*
X115822200Y-109687030D01*
X115822200Y-109687030D02*
X115774580Y-109734649D01*
X115774580Y-109734649D02*
X115679342Y-109782268D01*
X115679342Y-109782268D02*
X115393628Y-109782268D01*
X115393628Y-109782268D02*
X115298390Y-109734649D01*
X115298390Y-109734649D02*
X115250771Y-109687030D01*
X115250771Y-109687030D02*
X115203152Y-109591792D01*
X115203152Y-109591792D02*
X115203152Y-109448935D01*
X115203152Y-109448935D02*
X115250771Y-109353697D01*
X115250771Y-109353697D02*
X115298390Y-109306078D01*
X115298390Y-109306078D02*
X115393628Y-109258459D01*
X115393628Y-109258459D02*
X115679342Y-109258459D01*
X115679342Y-109258459D02*
X115774580Y-109306078D01*
X115774580Y-109306078D02*
X115822200Y-109353697D01*
X115822200Y-109353697D02*
X115869819Y-109448935D01*
X115869819Y-109448935D02*
X115869819Y-109591792D01*
X115822200Y-108115601D02*
X115869819Y-107972744D01*
X115869819Y-107972744D02*
X115869819Y-107734649D01*
X115869819Y-107734649D02*
X115822200Y-107639411D01*
X115822200Y-107639411D02*
X115774580Y-107591792D01*
X115774580Y-107591792D02*
X115679342Y-107544173D01*
X115679342Y-107544173D02*
X115584104Y-107544173D01*
X115584104Y-107544173D02*
X115488866Y-107591792D01*
X115488866Y-107591792D02*
X115441247Y-107639411D01*
X115441247Y-107639411D02*
X115393628Y-107734649D01*
X115393628Y-107734649D02*
X115346009Y-107925125D01*
X115346009Y-107925125D02*
X115298390Y-108020363D01*
X115298390Y-108020363D02*
X115250771Y-108067982D01*
X115250771Y-108067982D02*
X115155533Y-108115601D01*
X115155533Y-108115601D02*
X115060295Y-108115601D01*
X115060295Y-108115601D02*
X114965057Y-108067982D01*
X114965057Y-108067982D02*
X114917438Y-108020363D01*
X114917438Y-108020363D02*
X114869819Y-107925125D01*
X114869819Y-107925125D02*
X114869819Y-107687030D01*
X114869819Y-107687030D02*
X114917438Y-107544173D01*
X115203152Y-107258458D02*
X115203152Y-106877506D01*
X114869819Y-107115601D02*
X115726961Y-107115601D01*
X115726961Y-107115601D02*
X115822200Y-107067982D01*
X115822200Y-107067982D02*
X115869819Y-106972744D01*
X115869819Y-106972744D02*
X115869819Y-106877506D01*
X115203152Y-106115601D02*
X116012676Y-106115601D01*
X116012676Y-106115601D02*
X116107914Y-106163220D01*
X116107914Y-106163220D02*
X116155533Y-106210839D01*
X116155533Y-106210839D02*
X116203152Y-106306077D01*
X116203152Y-106306077D02*
X116203152Y-106448934D01*
X116203152Y-106448934D02*
X116155533Y-106544172D01*
X115822200Y-106115601D02*
X115869819Y-106210839D01*
X115869819Y-106210839D02*
X115869819Y-106401315D01*
X115869819Y-106401315D02*
X115822200Y-106496553D01*
X115822200Y-106496553D02*
X115774580Y-106544172D01*
X115774580Y-106544172D02*
X115679342Y-106591791D01*
X115679342Y-106591791D02*
X115393628Y-106591791D01*
X115393628Y-106591791D02*
X115298390Y-106544172D01*
X115298390Y-106544172D02*
X115250771Y-106496553D01*
X115250771Y-106496553D02*
X115203152Y-106401315D01*
X115203152Y-106401315D02*
X115203152Y-106210839D01*
X115203152Y-106210839D02*
X115250771Y-106115601D01*
X114869819Y-105734648D02*
X114869819Y-105115601D01*
X114869819Y-105115601D02*
X115250771Y-105448934D01*
X115250771Y-105448934D02*
X115250771Y-105306077D01*
X115250771Y-105306077D02*
X115298390Y-105210839D01*
X115298390Y-105210839D02*
X115346009Y-105163220D01*
X115346009Y-105163220D02*
X115441247Y-105115601D01*
X115441247Y-105115601D02*
X115679342Y-105115601D01*
X115679342Y-105115601D02*
X115774580Y-105163220D01*
X115774580Y-105163220D02*
X115822200Y-105210839D01*
X115822200Y-105210839D02*
X115869819Y-105306077D01*
X115869819Y-105306077D02*
X115869819Y-105591791D01*
X115869819Y-105591791D02*
X115822200Y-105687029D01*
X115822200Y-105687029D02*
X115774580Y-105734648D01*
X52336779Y-96488866D02*
X53098684Y-96488866D01*
X52717731Y-96869819D02*
X52717731Y-96107914D01*
X53479636Y-95869819D02*
X54098683Y-95869819D01*
X54098683Y-95869819D02*
X53765350Y-96250771D01*
X53765350Y-96250771D02*
X53908207Y-96250771D01*
X53908207Y-96250771D02*
X54003445Y-96298390D01*
X54003445Y-96298390D02*
X54051064Y-96346009D01*
X54051064Y-96346009D02*
X54098683Y-96441247D01*
X54098683Y-96441247D02*
X54098683Y-96679342D01*
X54098683Y-96679342D02*
X54051064Y-96774580D01*
X54051064Y-96774580D02*
X54003445Y-96822200D01*
X54003445Y-96822200D02*
X53908207Y-96869819D01*
X53908207Y-96869819D02*
X53622493Y-96869819D01*
X53622493Y-96869819D02*
X53527255Y-96822200D01*
X53527255Y-96822200D02*
X53479636Y-96774580D01*
X54717731Y-95869819D02*
X54812969Y-95869819D01*
X54812969Y-95869819D02*
X54908207Y-95917438D01*
X54908207Y-95917438D02*
X54955826Y-95965057D01*
X54955826Y-95965057D02*
X55003445Y-96060295D01*
X55003445Y-96060295D02*
X55051064Y-96250771D01*
X55051064Y-96250771D02*
X55051064Y-96488866D01*
X55051064Y-96488866D02*
X55003445Y-96679342D01*
X55003445Y-96679342D02*
X54955826Y-96774580D01*
X54955826Y-96774580D02*
X54908207Y-96822200D01*
X54908207Y-96822200D02*
X54812969Y-96869819D01*
X54812969Y-96869819D02*
X54717731Y-96869819D01*
X54717731Y-96869819D02*
X54622493Y-96822200D01*
X54622493Y-96822200D02*
X54574874Y-96774580D01*
X54574874Y-96774580D02*
X54527255Y-96679342D01*
X54527255Y-96679342D02*
X54479636Y-96488866D01*
X54479636Y-96488866D02*
X54479636Y-96250771D01*
X54479636Y-96250771D02*
X54527255Y-96060295D01*
X54527255Y-96060295D02*
X54574874Y-95965057D01*
X54574874Y-95965057D02*
X54622493Y-95917438D01*
X54622493Y-95917438D02*
X54717731Y-95869819D01*
X55336779Y-95869819D02*
X55670112Y-96869819D01*
X55670112Y-96869819D02*
X56003445Y-95869819D01*
X75177800Y-95789160D02*
X75130180Y-95932017D01*
X75130180Y-95932017D02*
X75130180Y-96170112D01*
X75130180Y-96170112D02*
X75177800Y-96265350D01*
X75177800Y-96265350D02*
X75225419Y-96312969D01*
X75225419Y-96312969D02*
X75320657Y-96360588D01*
X75320657Y-96360588D02*
X75415895Y-96360588D01*
X75415895Y-96360588D02*
X75511133Y-96312969D01*
X75511133Y-96312969D02*
X75558752Y-96265350D01*
X75558752Y-96265350D02*
X75606371Y-96170112D01*
X75606371Y-96170112D02*
X75653990Y-95979636D01*
X75653990Y-95979636D02*
X75701609Y-95884398D01*
X75701609Y-95884398D02*
X75749228Y-95836779D01*
X75749228Y-95836779D02*
X75844466Y-95789160D01*
X75844466Y-95789160D02*
X75939704Y-95789160D01*
X75939704Y-95789160D02*
X76034942Y-95836779D01*
X76034942Y-95836779D02*
X76082561Y-95884398D01*
X76082561Y-95884398D02*
X76130180Y-95979636D01*
X76130180Y-95979636D02*
X76130180Y-96217731D01*
X76130180Y-96217731D02*
X76082561Y-96360588D01*
X75796847Y-96646303D02*
X75796847Y-97027255D01*
X76130180Y-96789160D02*
X75273038Y-96789160D01*
X75273038Y-96789160D02*
X75177800Y-96836779D01*
X75177800Y-96836779D02*
X75130180Y-96932017D01*
X75130180Y-96932017D02*
X75130180Y-97027255D01*
X75796847Y-97789160D02*
X74987323Y-97789160D01*
X74987323Y-97789160D02*
X74892085Y-97741541D01*
X74892085Y-97741541D02*
X74844466Y-97693922D01*
X74844466Y-97693922D02*
X74796847Y-97598684D01*
X74796847Y-97598684D02*
X74796847Y-97455827D01*
X74796847Y-97455827D02*
X74844466Y-97360589D01*
X75177800Y-97789160D02*
X75130180Y-97693922D01*
X75130180Y-97693922D02*
X75130180Y-97503446D01*
X75130180Y-97503446D02*
X75177800Y-97408208D01*
X75177800Y-97408208D02*
X75225419Y-97360589D01*
X75225419Y-97360589D02*
X75320657Y-97312970D01*
X75320657Y-97312970D02*
X75606371Y-97312970D01*
X75606371Y-97312970D02*
X75701609Y-97360589D01*
X75701609Y-97360589D02*
X75749228Y-97408208D01*
X75749228Y-97408208D02*
X75796847Y-97503446D01*
X75796847Y-97503446D02*
X75796847Y-97693922D01*
X75796847Y-97693922D02*
X75749228Y-97789160D01*
X76034942Y-98217732D02*
X76082561Y-98265351D01*
X76082561Y-98265351D02*
X76130180Y-98360589D01*
X76130180Y-98360589D02*
X76130180Y-98598684D01*
X76130180Y-98598684D02*
X76082561Y-98693922D01*
X76082561Y-98693922D02*
X76034942Y-98741541D01*
X76034942Y-98741541D02*
X75939704Y-98789160D01*
X75939704Y-98789160D02*
X75844466Y-98789160D01*
X75844466Y-98789160D02*
X75701609Y-98741541D01*
X75701609Y-98741541D02*
X75130180Y-98170113D01*
X75130180Y-98170113D02*
X75130180Y-98789160D01*
X76082561Y-100503446D02*
X76130180Y-100408208D01*
X76130180Y-100408208D02*
X76130180Y-100265351D01*
X76130180Y-100265351D02*
X76082561Y-100122494D01*
X76082561Y-100122494D02*
X75987323Y-100027256D01*
X75987323Y-100027256D02*
X75892085Y-99979637D01*
X75892085Y-99979637D02*
X75701609Y-99932018D01*
X75701609Y-99932018D02*
X75558752Y-99932018D01*
X75558752Y-99932018D02*
X75368276Y-99979637D01*
X75368276Y-99979637D02*
X75273038Y-100027256D01*
X75273038Y-100027256D02*
X75177800Y-100122494D01*
X75177800Y-100122494D02*
X75130180Y-100265351D01*
X75130180Y-100265351D02*
X75130180Y-100360589D01*
X75130180Y-100360589D02*
X75177800Y-100503446D01*
X75177800Y-100503446D02*
X75225419Y-100551065D01*
X75225419Y-100551065D02*
X75558752Y-100551065D01*
X75558752Y-100551065D02*
X75558752Y-100360589D01*
X75130180Y-101408208D02*
X75653990Y-101408208D01*
X75653990Y-101408208D02*
X75749228Y-101360589D01*
X75749228Y-101360589D02*
X75796847Y-101265351D01*
X75796847Y-101265351D02*
X75796847Y-101074875D01*
X75796847Y-101074875D02*
X75749228Y-100979637D01*
X75177800Y-101408208D02*
X75130180Y-101312970D01*
X75130180Y-101312970D02*
X75130180Y-101074875D01*
X75130180Y-101074875D02*
X75177800Y-100979637D01*
X75177800Y-100979637D02*
X75273038Y-100932018D01*
X75273038Y-100932018D02*
X75368276Y-100932018D01*
X75368276Y-100932018D02*
X75463514Y-100979637D01*
X75463514Y-100979637D02*
X75511133Y-101074875D01*
X75511133Y-101074875D02*
X75511133Y-101312970D01*
X75511133Y-101312970D02*
X75558752Y-101408208D01*
X75130180Y-101884399D02*
X75796847Y-101884399D01*
X76130180Y-101884399D02*
X76082561Y-101836780D01*
X76082561Y-101836780D02*
X76034942Y-101884399D01*
X76034942Y-101884399D02*
X76082561Y-101932018D01*
X76082561Y-101932018D02*
X76130180Y-101884399D01*
X76130180Y-101884399D02*
X76034942Y-101884399D01*
X75796847Y-102360589D02*
X75130180Y-102360589D01*
X75701609Y-102360589D02*
X75749228Y-102408208D01*
X75749228Y-102408208D02*
X75796847Y-102503446D01*
X75796847Y-102503446D02*
X75796847Y-102646303D01*
X75796847Y-102646303D02*
X75749228Y-102741541D01*
X75749228Y-102741541D02*
X75653990Y-102789160D01*
X75653990Y-102789160D02*
X75130180Y-102789160D01*
X75653990Y-104360589D02*
X75606371Y-104503446D01*
X75606371Y-104503446D02*
X75558752Y-104551065D01*
X75558752Y-104551065D02*
X75463514Y-104598684D01*
X75463514Y-104598684D02*
X75320657Y-104598684D01*
X75320657Y-104598684D02*
X75225419Y-104551065D01*
X75225419Y-104551065D02*
X75177800Y-104503446D01*
X75177800Y-104503446D02*
X75130180Y-104408208D01*
X75130180Y-104408208D02*
X75130180Y-104027256D01*
X75130180Y-104027256D02*
X76130180Y-104027256D01*
X76130180Y-104027256D02*
X76130180Y-104360589D01*
X76130180Y-104360589D02*
X76082561Y-104455827D01*
X76082561Y-104455827D02*
X76034942Y-104503446D01*
X76034942Y-104503446D02*
X75939704Y-104551065D01*
X75939704Y-104551065D02*
X75844466Y-104551065D01*
X75844466Y-104551065D02*
X75749228Y-104503446D01*
X75749228Y-104503446D02*
X75701609Y-104455827D01*
X75701609Y-104455827D02*
X75653990Y-104360589D01*
X75653990Y-104360589D02*
X75653990Y-104027256D01*
X75511133Y-105027256D02*
X75511133Y-105789161D01*
X75130180Y-105408208D02*
X75892085Y-105408208D01*
X84336779Y-96488866D02*
X85098684Y-96488866D01*
X84717731Y-96869819D02*
X84717731Y-96107914D01*
X85622493Y-96869819D02*
X85812969Y-96869819D01*
X85812969Y-96869819D02*
X85908207Y-96822200D01*
X85908207Y-96822200D02*
X85955826Y-96774580D01*
X85955826Y-96774580D02*
X86051064Y-96631723D01*
X86051064Y-96631723D02*
X86098683Y-96441247D01*
X86098683Y-96441247D02*
X86098683Y-96060295D01*
X86098683Y-96060295D02*
X86051064Y-95965057D01*
X86051064Y-95965057D02*
X86003445Y-95917438D01*
X86003445Y-95917438D02*
X85908207Y-95869819D01*
X85908207Y-95869819D02*
X85717731Y-95869819D01*
X85717731Y-95869819D02*
X85622493Y-95917438D01*
X85622493Y-95917438D02*
X85574874Y-95965057D01*
X85574874Y-95965057D02*
X85527255Y-96060295D01*
X85527255Y-96060295D02*
X85527255Y-96298390D01*
X85527255Y-96298390D02*
X85574874Y-96393628D01*
X85574874Y-96393628D02*
X85622493Y-96441247D01*
X85622493Y-96441247D02*
X85717731Y-96488866D01*
X85717731Y-96488866D02*
X85908207Y-96488866D01*
X85908207Y-96488866D02*
X86003445Y-96441247D01*
X86003445Y-96441247D02*
X86051064Y-96393628D01*
X86051064Y-96393628D02*
X86098683Y-96298390D01*
X86384398Y-95869819D02*
X86717731Y-96869819D01*
X86717731Y-96869819D02*
X87051064Y-95869819D01*
X109917438Y-113639411D02*
X109869819Y-113734649D01*
X109869819Y-113734649D02*
X109869819Y-113877506D01*
X109869819Y-113877506D02*
X109917438Y-114020363D01*
X109917438Y-114020363D02*
X110012676Y-114115601D01*
X110012676Y-114115601D02*
X110107914Y-114163220D01*
X110107914Y-114163220D02*
X110298390Y-114210839D01*
X110298390Y-114210839D02*
X110441247Y-114210839D01*
X110441247Y-114210839D02*
X110631723Y-114163220D01*
X110631723Y-114163220D02*
X110726961Y-114115601D01*
X110726961Y-114115601D02*
X110822200Y-114020363D01*
X110822200Y-114020363D02*
X110869819Y-113877506D01*
X110869819Y-113877506D02*
X110869819Y-113782268D01*
X110869819Y-113782268D02*
X110822200Y-113639411D01*
X110822200Y-113639411D02*
X110774580Y-113591792D01*
X110774580Y-113591792D02*
X110441247Y-113591792D01*
X110441247Y-113591792D02*
X110441247Y-113782268D01*
X110869819Y-113163220D02*
X109869819Y-113163220D01*
X109869819Y-113163220D02*
X110869819Y-112591792D01*
X110869819Y-112591792D02*
X109869819Y-112591792D01*
X110869819Y-112115601D02*
X109869819Y-112115601D01*
X109869819Y-112115601D02*
X109869819Y-111877506D01*
X109869819Y-111877506D02*
X109917438Y-111734649D01*
X109917438Y-111734649D02*
X110012676Y-111639411D01*
X110012676Y-111639411D02*
X110107914Y-111591792D01*
X110107914Y-111591792D02*
X110298390Y-111544173D01*
X110298390Y-111544173D02*
X110441247Y-111544173D01*
X110441247Y-111544173D02*
X110631723Y-111591792D01*
X110631723Y-111591792D02*
X110726961Y-111639411D01*
X110726961Y-111639411D02*
X110822200Y-111734649D01*
X110822200Y-111734649D02*
X110869819Y-111877506D01*
X110869819Y-111877506D02*
X110869819Y-112115601D01*
X95670112Y-132346009D02*
X95812969Y-132393628D01*
X95812969Y-132393628D02*
X95860588Y-132441247D01*
X95860588Y-132441247D02*
X95908207Y-132536485D01*
X95908207Y-132536485D02*
X95908207Y-132679342D01*
X95908207Y-132679342D02*
X95860588Y-132774580D01*
X95860588Y-132774580D02*
X95812969Y-132822200D01*
X95812969Y-132822200D02*
X95717731Y-132869819D01*
X95717731Y-132869819D02*
X95336779Y-132869819D01*
X95336779Y-132869819D02*
X95336779Y-131869819D01*
X95336779Y-131869819D02*
X95670112Y-131869819D01*
X95670112Y-131869819D02*
X95765350Y-131917438D01*
X95765350Y-131917438D02*
X95812969Y-131965057D01*
X95812969Y-131965057D02*
X95860588Y-132060295D01*
X95860588Y-132060295D02*
X95860588Y-132155533D01*
X95860588Y-132155533D02*
X95812969Y-132250771D01*
X95812969Y-132250771D02*
X95765350Y-132298390D01*
X95765350Y-132298390D02*
X95670112Y-132346009D01*
X95670112Y-132346009D02*
X95336779Y-132346009D01*
X96765350Y-132869819D02*
X96765350Y-132346009D01*
X96765350Y-132346009D02*
X96717731Y-132250771D01*
X96717731Y-132250771D02*
X96622493Y-132203152D01*
X96622493Y-132203152D02*
X96432017Y-132203152D01*
X96432017Y-132203152D02*
X96336779Y-132250771D01*
X96765350Y-132822200D02*
X96670112Y-132869819D01*
X96670112Y-132869819D02*
X96432017Y-132869819D01*
X96432017Y-132869819D02*
X96336779Y-132822200D01*
X96336779Y-132822200D02*
X96289160Y-132726961D01*
X96289160Y-132726961D02*
X96289160Y-132631723D01*
X96289160Y-132631723D02*
X96336779Y-132536485D01*
X96336779Y-132536485D02*
X96432017Y-132488866D01*
X96432017Y-132488866D02*
X96670112Y-132488866D01*
X96670112Y-132488866D02*
X96765350Y-132441247D01*
X97193922Y-132822200D02*
X97289160Y-132869819D01*
X97289160Y-132869819D02*
X97479636Y-132869819D01*
X97479636Y-132869819D02*
X97574874Y-132822200D01*
X97574874Y-132822200D02*
X97622493Y-132726961D01*
X97622493Y-132726961D02*
X97622493Y-132679342D01*
X97622493Y-132679342D02*
X97574874Y-132584104D01*
X97574874Y-132584104D02*
X97479636Y-132536485D01*
X97479636Y-132536485D02*
X97336779Y-132536485D01*
X97336779Y-132536485D02*
X97241541Y-132488866D01*
X97241541Y-132488866D02*
X97193922Y-132393628D01*
X97193922Y-132393628D02*
X97193922Y-132346009D01*
X97193922Y-132346009D02*
X97241541Y-132250771D01*
X97241541Y-132250771D02*
X97336779Y-132203152D01*
X97336779Y-132203152D02*
X97479636Y-132203152D01*
X97479636Y-132203152D02*
X97574874Y-132250771D01*
X98003446Y-132822200D02*
X98098684Y-132869819D01*
X98098684Y-132869819D02*
X98289160Y-132869819D01*
X98289160Y-132869819D02*
X98384398Y-132822200D01*
X98384398Y-132822200D02*
X98432017Y-132726961D01*
X98432017Y-132726961D02*
X98432017Y-132679342D01*
X98432017Y-132679342D02*
X98384398Y-132584104D01*
X98384398Y-132584104D02*
X98289160Y-132536485D01*
X98289160Y-132536485D02*
X98146303Y-132536485D01*
X98146303Y-132536485D02*
X98051065Y-132488866D01*
X98051065Y-132488866D02*
X98003446Y-132393628D01*
X98003446Y-132393628D02*
X98003446Y-132346009D01*
X98003446Y-132346009D02*
X98051065Y-132250771D01*
X98051065Y-132250771D02*
X98146303Y-132203152D01*
X98146303Y-132203152D02*
X98289160Y-132203152D01*
X98289160Y-132203152D02*
X98384398Y-132250771D01*
X29836779Y-96488866D02*
X30598684Y-96488866D01*
X30217731Y-96869819D02*
X30217731Y-96107914D01*
X31122493Y-96869819D02*
X31312969Y-96869819D01*
X31312969Y-96869819D02*
X31408207Y-96822200D01*
X31408207Y-96822200D02*
X31455826Y-96774580D01*
X31455826Y-96774580D02*
X31551064Y-96631723D01*
X31551064Y-96631723D02*
X31598683Y-96441247D01*
X31598683Y-96441247D02*
X31598683Y-96060295D01*
X31598683Y-96060295D02*
X31551064Y-95965057D01*
X31551064Y-95965057D02*
X31503445Y-95917438D01*
X31503445Y-95917438D02*
X31408207Y-95869819D01*
X31408207Y-95869819D02*
X31217731Y-95869819D01*
X31217731Y-95869819D02*
X31122493Y-95917438D01*
X31122493Y-95917438D02*
X31074874Y-95965057D01*
X31074874Y-95965057D02*
X31027255Y-96060295D01*
X31027255Y-96060295D02*
X31027255Y-96298390D01*
X31027255Y-96298390D02*
X31074874Y-96393628D01*
X31074874Y-96393628D02*
X31122493Y-96441247D01*
X31122493Y-96441247D02*
X31217731Y-96488866D01*
X31217731Y-96488866D02*
X31408207Y-96488866D01*
X31408207Y-96488866D02*
X31503445Y-96441247D01*
X31503445Y-96441247D02*
X31551064Y-96393628D01*
X31551064Y-96393628D02*
X31598683Y-96298390D01*
X31884398Y-95869819D02*
X32217731Y-96869819D01*
X32217731Y-96869819D02*
X32551064Y-95869819D01*
X96360588Y-95917438D02*
X96265350Y-95869819D01*
X96265350Y-95869819D02*
X96122493Y-95869819D01*
X96122493Y-95869819D02*
X95979636Y-95917438D01*
X95979636Y-95917438D02*
X95884398Y-96012676D01*
X95884398Y-96012676D02*
X95836779Y-96107914D01*
X95836779Y-96107914D02*
X95789160Y-96298390D01*
X95789160Y-96298390D02*
X95789160Y-96441247D01*
X95789160Y-96441247D02*
X95836779Y-96631723D01*
X95836779Y-96631723D02*
X95884398Y-96726961D01*
X95884398Y-96726961D02*
X95979636Y-96822200D01*
X95979636Y-96822200D02*
X96122493Y-96869819D01*
X96122493Y-96869819D02*
X96217731Y-96869819D01*
X96217731Y-96869819D02*
X96360588Y-96822200D01*
X96360588Y-96822200D02*
X96408207Y-96774580D01*
X96408207Y-96774580D02*
X96408207Y-96441247D01*
X96408207Y-96441247D02*
X96217731Y-96441247D01*
X96836779Y-96869819D02*
X96836779Y-95869819D01*
X96836779Y-95869819D02*
X97408207Y-96869819D01*
X97408207Y-96869819D02*
X97408207Y-95869819D01*
X97884398Y-96869819D02*
X97884398Y-95869819D01*
X97884398Y-95869819D02*
X98122493Y-95869819D01*
X98122493Y-95869819D02*
X98265350Y-95917438D01*
X98265350Y-95917438D02*
X98360588Y-96012676D01*
X98360588Y-96012676D02*
X98408207Y-96107914D01*
X98408207Y-96107914D02*
X98455826Y-96298390D01*
X98455826Y-96298390D02*
X98455826Y-96441247D01*
X98455826Y-96441247D02*
X98408207Y-96631723D01*
X98408207Y-96631723D02*
X98360588Y-96726961D01*
X98360588Y-96726961D02*
X98265350Y-96822200D01*
X98265350Y-96822200D02*
X98122493Y-96869819D01*
X98122493Y-96869819D02*
X97884398Y-96869819D01*
X105822200Y-114210839D02*
X105869819Y-114067982D01*
X105869819Y-114067982D02*
X105869819Y-113829887D01*
X105869819Y-113829887D02*
X105822200Y-113734649D01*
X105822200Y-113734649D02*
X105774580Y-113687030D01*
X105774580Y-113687030D02*
X105679342Y-113639411D01*
X105679342Y-113639411D02*
X105584104Y-113639411D01*
X105584104Y-113639411D02*
X105488866Y-113687030D01*
X105488866Y-113687030D02*
X105441247Y-113734649D01*
X105441247Y-113734649D02*
X105393628Y-113829887D01*
X105393628Y-113829887D02*
X105346009Y-114020363D01*
X105346009Y-114020363D02*
X105298390Y-114115601D01*
X105298390Y-114115601D02*
X105250771Y-114163220D01*
X105250771Y-114163220D02*
X105155533Y-114210839D01*
X105155533Y-114210839D02*
X105060295Y-114210839D01*
X105060295Y-114210839D02*
X104965057Y-114163220D01*
X104965057Y-114163220D02*
X104917438Y-114115601D01*
X104917438Y-114115601D02*
X104869819Y-114020363D01*
X104869819Y-114020363D02*
X104869819Y-113782268D01*
X104869819Y-113782268D02*
X104917438Y-113639411D01*
X105869819Y-113210839D02*
X104869819Y-113210839D01*
X104917438Y-112210840D02*
X104869819Y-112306078D01*
X104869819Y-112306078D02*
X104869819Y-112448935D01*
X104869819Y-112448935D02*
X104917438Y-112591792D01*
X104917438Y-112591792D02*
X105012676Y-112687030D01*
X105012676Y-112687030D02*
X105107914Y-112734649D01*
X105107914Y-112734649D02*
X105298390Y-112782268D01*
X105298390Y-112782268D02*
X105441247Y-112782268D01*
X105441247Y-112782268D02*
X105631723Y-112734649D01*
X105631723Y-112734649D02*
X105726961Y-112687030D01*
X105726961Y-112687030D02*
X105822200Y-112591792D01*
X105822200Y-112591792D02*
X105869819Y-112448935D01*
X105869819Y-112448935D02*
X105869819Y-112353697D01*
X105869819Y-112353697D02*
X105822200Y-112210840D01*
X105822200Y-112210840D02*
X105774580Y-112163221D01*
X105774580Y-112163221D02*
X105441247Y-112163221D01*
X105441247Y-112163221D02*
X105441247Y-112353697D01*
X105774580Y-111734649D02*
X105822200Y-111687030D01*
X105822200Y-111687030D02*
X105869819Y-111734649D01*
X105869819Y-111734649D02*
X105822200Y-111782268D01*
X105822200Y-111782268D02*
X105774580Y-111734649D01*
X105774580Y-111734649D02*
X105869819Y-111734649D01*
X105250771Y-111734649D02*
X105298390Y-111687030D01*
X105298390Y-111687030D02*
X105346009Y-111734649D01*
X105346009Y-111734649D02*
X105298390Y-111782268D01*
X105298390Y-111782268D02*
X105250771Y-111734649D01*
X105250771Y-111734649D02*
X105346009Y-111734649D01*
X105869819Y-110496554D02*
X104869819Y-110496554D01*
X104869819Y-110496554D02*
X104869819Y-110258459D01*
X104869819Y-110258459D02*
X104917438Y-110115602D01*
X104917438Y-110115602D02*
X105012676Y-110020364D01*
X105012676Y-110020364D02*
X105107914Y-109972745D01*
X105107914Y-109972745D02*
X105298390Y-109925126D01*
X105298390Y-109925126D02*
X105441247Y-109925126D01*
X105441247Y-109925126D02*
X105631723Y-109972745D01*
X105631723Y-109972745D02*
X105726961Y-110020364D01*
X105726961Y-110020364D02*
X105822200Y-110115602D01*
X105822200Y-110115602D02*
X105869819Y-110258459D01*
X105869819Y-110258459D02*
X105869819Y-110496554D01*
X105822200Y-109115602D02*
X105869819Y-109210840D01*
X105869819Y-109210840D02*
X105869819Y-109401316D01*
X105869819Y-109401316D02*
X105822200Y-109496554D01*
X105822200Y-109496554D02*
X105726961Y-109544173D01*
X105726961Y-109544173D02*
X105346009Y-109544173D01*
X105346009Y-109544173D02*
X105250771Y-109496554D01*
X105250771Y-109496554D02*
X105203152Y-109401316D01*
X105203152Y-109401316D02*
X105203152Y-109210840D01*
X105203152Y-109210840D02*
X105250771Y-109115602D01*
X105250771Y-109115602D02*
X105346009Y-109067983D01*
X105346009Y-109067983D02*
X105441247Y-109067983D01*
X105441247Y-109067983D02*
X105536485Y-109544173D01*
X105822200Y-107925125D02*
X105869819Y-107782268D01*
X105869819Y-107782268D02*
X105869819Y-107544173D01*
X105869819Y-107544173D02*
X105822200Y-107448935D01*
X105822200Y-107448935D02*
X105774580Y-107401316D01*
X105774580Y-107401316D02*
X105679342Y-107353697D01*
X105679342Y-107353697D02*
X105584104Y-107353697D01*
X105584104Y-107353697D02*
X105488866Y-107401316D01*
X105488866Y-107401316D02*
X105441247Y-107448935D01*
X105441247Y-107448935D02*
X105393628Y-107544173D01*
X105393628Y-107544173D02*
X105346009Y-107734649D01*
X105346009Y-107734649D02*
X105298390Y-107829887D01*
X105298390Y-107829887D02*
X105250771Y-107877506D01*
X105250771Y-107877506D02*
X105155533Y-107925125D01*
X105155533Y-107925125D02*
X105060295Y-107925125D01*
X105060295Y-107925125D02*
X104965057Y-107877506D01*
X104965057Y-107877506D02*
X104917438Y-107829887D01*
X104917438Y-107829887D02*
X104869819Y-107734649D01*
X104869819Y-107734649D02*
X104869819Y-107496554D01*
X104869819Y-107496554D02*
X104917438Y-107353697D01*
X105203152Y-107067982D02*
X105203152Y-106687030D01*
X104869819Y-106925125D02*
X105726961Y-106925125D01*
X105726961Y-106925125D02*
X105822200Y-106877506D01*
X105822200Y-106877506D02*
X105869819Y-106782268D01*
X105869819Y-106782268D02*
X105869819Y-106687030D01*
X105203152Y-105925125D02*
X106012676Y-105925125D01*
X106012676Y-105925125D02*
X106107914Y-105972744D01*
X106107914Y-105972744D02*
X106155533Y-106020363D01*
X106155533Y-106020363D02*
X106203152Y-106115601D01*
X106203152Y-106115601D02*
X106203152Y-106258458D01*
X106203152Y-106258458D02*
X106155533Y-106353696D01*
X105822200Y-105925125D02*
X105869819Y-106020363D01*
X105869819Y-106020363D02*
X105869819Y-106210839D01*
X105869819Y-106210839D02*
X105822200Y-106306077D01*
X105822200Y-106306077D02*
X105774580Y-106353696D01*
X105774580Y-106353696D02*
X105679342Y-106401315D01*
X105679342Y-106401315D02*
X105393628Y-106401315D01*
X105393628Y-106401315D02*
X105298390Y-106353696D01*
X105298390Y-106353696D02*
X105250771Y-106306077D01*
X105250771Y-106306077D02*
X105203152Y-106210839D01*
X105203152Y-106210839D02*
X105203152Y-106020363D01*
X105203152Y-106020363D02*
X105250771Y-105925125D01*
X104965057Y-105496553D02*
X104917438Y-105448934D01*
X104917438Y-105448934D02*
X104869819Y-105353696D01*
X104869819Y-105353696D02*
X104869819Y-105115601D01*
X104869819Y-105115601D02*
X104917438Y-105020363D01*
X104917438Y-105020363D02*
X104965057Y-104972744D01*
X104965057Y-104972744D02*
X105060295Y-104925125D01*
X105060295Y-104925125D02*
X105155533Y-104925125D01*
X105155533Y-104925125D02*
X105298390Y-104972744D01*
X105298390Y-104972744D02*
X105869819Y-105544172D01*
X105869819Y-105544172D02*
X105869819Y-104925125D01*
X201369819Y-127142856D02*
X202179342Y-127142856D01*
X202179342Y-127142856D02*
X202274580Y-127095237D01*
X202274580Y-127095237D02*
X202322200Y-127047618D01*
X202322200Y-127047618D02*
X202369819Y-126952380D01*
X202369819Y-126952380D02*
X202369819Y-126761904D01*
X202369819Y-126761904D02*
X202322200Y-126666666D01*
X202322200Y-126666666D02*
X202274580Y-126619047D01*
X202274580Y-126619047D02*
X202179342Y-126571428D01*
X202179342Y-126571428D02*
X201369819Y-126571428D01*
X202369819Y-126095237D02*
X201369819Y-126095237D01*
X201369819Y-126095237D02*
X202369819Y-125523809D01*
X202369819Y-125523809D02*
X201369819Y-125523809D01*
X201846009Y-124714285D02*
X201893628Y-124571428D01*
X201893628Y-124571428D02*
X201941247Y-124523809D01*
X201941247Y-124523809D02*
X202036485Y-124476190D01*
X202036485Y-124476190D02*
X202179342Y-124476190D01*
X202179342Y-124476190D02*
X202274580Y-124523809D01*
X202274580Y-124523809D02*
X202322200Y-124571428D01*
X202322200Y-124571428D02*
X202369819Y-124666666D01*
X202369819Y-124666666D02*
X202369819Y-125047618D01*
X202369819Y-125047618D02*
X201369819Y-125047618D01*
X201369819Y-125047618D02*
X201369819Y-124714285D01*
X201369819Y-124714285D02*
X201417438Y-124619047D01*
X201417438Y-124619047D02*
X201465057Y-124571428D01*
X201465057Y-124571428D02*
X201560295Y-124523809D01*
X201560295Y-124523809D02*
X201655533Y-124523809D01*
X201655533Y-124523809D02*
X201750771Y-124571428D01*
X201750771Y-124571428D02*
X201798390Y-124619047D01*
X201798390Y-124619047D02*
X201846009Y-124714285D01*
X201846009Y-124714285D02*
X201846009Y-125047618D01*
X202084104Y-124095237D02*
X202084104Y-123619047D01*
X202369819Y-124190475D02*
X201369819Y-123857142D01*
X201369819Y-123857142D02*
X202369819Y-123523809D01*
X202369819Y-122714285D02*
X202369819Y-123190475D01*
X202369819Y-123190475D02*
X201369819Y-123190475D01*
X139336779Y-96488866D02*
X140098684Y-96488866D01*
X139717731Y-96869819D02*
X139717731Y-96107914D01*
X140622493Y-96869819D02*
X140812969Y-96869819D01*
X140812969Y-96869819D02*
X140908207Y-96822200D01*
X140908207Y-96822200D02*
X140955826Y-96774580D01*
X140955826Y-96774580D02*
X141051064Y-96631723D01*
X141051064Y-96631723D02*
X141098683Y-96441247D01*
X141098683Y-96441247D02*
X141098683Y-96060295D01*
X141098683Y-96060295D02*
X141051064Y-95965057D01*
X141051064Y-95965057D02*
X141003445Y-95917438D01*
X141003445Y-95917438D02*
X140908207Y-95869819D01*
X140908207Y-95869819D02*
X140717731Y-95869819D01*
X140717731Y-95869819D02*
X140622493Y-95917438D01*
X140622493Y-95917438D02*
X140574874Y-95965057D01*
X140574874Y-95965057D02*
X140527255Y-96060295D01*
X140527255Y-96060295D02*
X140527255Y-96298390D01*
X140527255Y-96298390D02*
X140574874Y-96393628D01*
X140574874Y-96393628D02*
X140622493Y-96441247D01*
X140622493Y-96441247D02*
X140717731Y-96488866D01*
X140717731Y-96488866D02*
X140908207Y-96488866D01*
X140908207Y-96488866D02*
X141003445Y-96441247D01*
X141003445Y-96441247D02*
X141051064Y-96393628D01*
X141051064Y-96393628D02*
X141098683Y-96298390D01*
X141384398Y-95869819D02*
X141717731Y-96869819D01*
X141717731Y-96869819D02*
X142051064Y-95869819D01*
X41860588Y-95917438D02*
X41765350Y-95869819D01*
X41765350Y-95869819D02*
X41622493Y-95869819D01*
X41622493Y-95869819D02*
X41479636Y-95917438D01*
X41479636Y-95917438D02*
X41384398Y-96012676D01*
X41384398Y-96012676D02*
X41336779Y-96107914D01*
X41336779Y-96107914D02*
X41289160Y-96298390D01*
X41289160Y-96298390D02*
X41289160Y-96441247D01*
X41289160Y-96441247D02*
X41336779Y-96631723D01*
X41336779Y-96631723D02*
X41384398Y-96726961D01*
X41384398Y-96726961D02*
X41479636Y-96822200D01*
X41479636Y-96822200D02*
X41622493Y-96869819D01*
X41622493Y-96869819D02*
X41717731Y-96869819D01*
X41717731Y-96869819D02*
X41860588Y-96822200D01*
X41860588Y-96822200D02*
X41908207Y-96774580D01*
X41908207Y-96774580D02*
X41908207Y-96441247D01*
X41908207Y-96441247D02*
X41717731Y-96441247D01*
X42336779Y-96869819D02*
X42336779Y-95869819D01*
X42336779Y-95869819D02*
X42908207Y-96869819D01*
X42908207Y-96869819D02*
X42908207Y-95869819D01*
X43384398Y-96869819D02*
X43384398Y-95869819D01*
X43384398Y-95869819D02*
X43622493Y-95869819D01*
X43622493Y-95869819D02*
X43765350Y-95917438D01*
X43765350Y-95917438D02*
X43860588Y-96012676D01*
X43860588Y-96012676D02*
X43908207Y-96107914D01*
X43908207Y-96107914D02*
X43955826Y-96298390D01*
X43955826Y-96298390D02*
X43955826Y-96441247D01*
X43955826Y-96441247D02*
X43908207Y-96631723D01*
X43908207Y-96631723D02*
X43860588Y-96726961D01*
X43860588Y-96726961D02*
X43765350Y-96822200D01*
X43765350Y-96822200D02*
X43622493Y-96869819D01*
X43622493Y-96869819D02*
X43384398Y-96869819D01*
X64177800Y-95789160D02*
X64130180Y-95932017D01*
X64130180Y-95932017D02*
X64130180Y-96170112D01*
X64130180Y-96170112D02*
X64177800Y-96265350D01*
X64177800Y-96265350D02*
X64225419Y-96312969D01*
X64225419Y-96312969D02*
X64320657Y-96360588D01*
X64320657Y-96360588D02*
X64415895Y-96360588D01*
X64415895Y-96360588D02*
X64511133Y-96312969D01*
X64511133Y-96312969D02*
X64558752Y-96265350D01*
X64558752Y-96265350D02*
X64606371Y-96170112D01*
X64606371Y-96170112D02*
X64653990Y-95979636D01*
X64653990Y-95979636D02*
X64701609Y-95884398D01*
X64701609Y-95884398D02*
X64749228Y-95836779D01*
X64749228Y-95836779D02*
X64844466Y-95789160D01*
X64844466Y-95789160D02*
X64939704Y-95789160D01*
X64939704Y-95789160D02*
X65034942Y-95836779D01*
X65034942Y-95836779D02*
X65082561Y-95884398D01*
X65082561Y-95884398D02*
X65130180Y-95979636D01*
X65130180Y-95979636D02*
X65130180Y-96217731D01*
X65130180Y-96217731D02*
X65082561Y-96360588D01*
X64796847Y-96646303D02*
X64796847Y-97027255D01*
X65130180Y-96789160D02*
X64273038Y-96789160D01*
X64273038Y-96789160D02*
X64177800Y-96836779D01*
X64177800Y-96836779D02*
X64130180Y-96932017D01*
X64130180Y-96932017D02*
X64130180Y-97027255D01*
X64796847Y-97789160D02*
X63987323Y-97789160D01*
X63987323Y-97789160D02*
X63892085Y-97741541D01*
X63892085Y-97741541D02*
X63844466Y-97693922D01*
X63844466Y-97693922D02*
X63796847Y-97598684D01*
X63796847Y-97598684D02*
X63796847Y-97455827D01*
X63796847Y-97455827D02*
X63844466Y-97360589D01*
X64177800Y-97789160D02*
X64130180Y-97693922D01*
X64130180Y-97693922D02*
X64130180Y-97503446D01*
X64130180Y-97503446D02*
X64177800Y-97408208D01*
X64177800Y-97408208D02*
X64225419Y-97360589D01*
X64225419Y-97360589D02*
X64320657Y-97312970D01*
X64320657Y-97312970D02*
X64606371Y-97312970D01*
X64606371Y-97312970D02*
X64701609Y-97360589D01*
X64701609Y-97360589D02*
X64749228Y-97408208D01*
X64749228Y-97408208D02*
X64796847Y-97503446D01*
X64796847Y-97503446D02*
X64796847Y-97693922D01*
X64796847Y-97693922D02*
X64749228Y-97789160D01*
X65034942Y-98217732D02*
X65082561Y-98265351D01*
X65082561Y-98265351D02*
X65130180Y-98360589D01*
X65130180Y-98360589D02*
X65130180Y-98598684D01*
X65130180Y-98598684D02*
X65082561Y-98693922D01*
X65082561Y-98693922D02*
X65034942Y-98741541D01*
X65034942Y-98741541D02*
X64939704Y-98789160D01*
X64939704Y-98789160D02*
X64844466Y-98789160D01*
X64844466Y-98789160D02*
X64701609Y-98741541D01*
X64701609Y-98741541D02*
X64130180Y-98170113D01*
X64130180Y-98170113D02*
X64130180Y-98789160D01*
X65082561Y-100503446D02*
X65130180Y-100408208D01*
X65130180Y-100408208D02*
X65130180Y-100265351D01*
X65130180Y-100265351D02*
X65082561Y-100122494D01*
X65082561Y-100122494D02*
X64987323Y-100027256D01*
X64987323Y-100027256D02*
X64892085Y-99979637D01*
X64892085Y-99979637D02*
X64701609Y-99932018D01*
X64701609Y-99932018D02*
X64558752Y-99932018D01*
X64558752Y-99932018D02*
X64368276Y-99979637D01*
X64368276Y-99979637D02*
X64273038Y-100027256D01*
X64273038Y-100027256D02*
X64177800Y-100122494D01*
X64177800Y-100122494D02*
X64130180Y-100265351D01*
X64130180Y-100265351D02*
X64130180Y-100360589D01*
X64130180Y-100360589D02*
X64177800Y-100503446D01*
X64177800Y-100503446D02*
X64225419Y-100551065D01*
X64225419Y-100551065D02*
X64558752Y-100551065D01*
X64558752Y-100551065D02*
X64558752Y-100360589D01*
X64130180Y-101408208D02*
X64653990Y-101408208D01*
X64653990Y-101408208D02*
X64749228Y-101360589D01*
X64749228Y-101360589D02*
X64796847Y-101265351D01*
X64796847Y-101265351D02*
X64796847Y-101074875D01*
X64796847Y-101074875D02*
X64749228Y-100979637D01*
X64177800Y-101408208D02*
X64130180Y-101312970D01*
X64130180Y-101312970D02*
X64130180Y-101074875D01*
X64130180Y-101074875D02*
X64177800Y-100979637D01*
X64177800Y-100979637D02*
X64273038Y-100932018D01*
X64273038Y-100932018D02*
X64368276Y-100932018D01*
X64368276Y-100932018D02*
X64463514Y-100979637D01*
X64463514Y-100979637D02*
X64511133Y-101074875D01*
X64511133Y-101074875D02*
X64511133Y-101312970D01*
X64511133Y-101312970D02*
X64558752Y-101408208D01*
X64130180Y-101884399D02*
X64796847Y-101884399D01*
X65130180Y-101884399D02*
X65082561Y-101836780D01*
X65082561Y-101836780D02*
X65034942Y-101884399D01*
X65034942Y-101884399D02*
X65082561Y-101932018D01*
X65082561Y-101932018D02*
X65130180Y-101884399D01*
X65130180Y-101884399D02*
X65034942Y-101884399D01*
X64796847Y-102360589D02*
X64130180Y-102360589D01*
X64701609Y-102360589D02*
X64749228Y-102408208D01*
X64749228Y-102408208D02*
X64796847Y-102503446D01*
X64796847Y-102503446D02*
X64796847Y-102646303D01*
X64796847Y-102646303D02*
X64749228Y-102741541D01*
X64749228Y-102741541D02*
X64653990Y-102789160D01*
X64653990Y-102789160D02*
X64130180Y-102789160D01*
X65082561Y-104551065D02*
X65130180Y-104455827D01*
X65130180Y-104455827D02*
X65130180Y-104312970D01*
X65130180Y-104312970D02*
X65082561Y-104170113D01*
X65082561Y-104170113D02*
X64987323Y-104074875D01*
X64987323Y-104074875D02*
X64892085Y-104027256D01*
X64892085Y-104027256D02*
X64701609Y-103979637D01*
X64701609Y-103979637D02*
X64558752Y-103979637D01*
X64558752Y-103979637D02*
X64368276Y-104027256D01*
X64368276Y-104027256D02*
X64273038Y-104074875D01*
X64273038Y-104074875D02*
X64177800Y-104170113D01*
X64177800Y-104170113D02*
X64130180Y-104312970D01*
X64130180Y-104312970D02*
X64130180Y-104408208D01*
X64130180Y-104408208D02*
X64177800Y-104551065D01*
X64177800Y-104551065D02*
X64225419Y-104598684D01*
X64225419Y-104598684D02*
X64558752Y-104598684D01*
X64558752Y-104598684D02*
X64558752Y-104408208D01*
X64130180Y-105027256D02*
X65130180Y-105027256D01*
X65130180Y-105027256D02*
X64130180Y-105598684D01*
X64130180Y-105598684D02*
X65130180Y-105598684D01*
X64130180Y-106074875D02*
X65130180Y-106074875D01*
X65130180Y-106074875D02*
X65130180Y-106312970D01*
X65130180Y-106312970D02*
X65082561Y-106455827D01*
X65082561Y-106455827D02*
X64987323Y-106551065D01*
X64987323Y-106551065D02*
X64892085Y-106598684D01*
X64892085Y-106598684D02*
X64701609Y-106646303D01*
X64701609Y-106646303D02*
X64558752Y-106646303D01*
X64558752Y-106646303D02*
X64368276Y-106598684D01*
X64368276Y-106598684D02*
X64273038Y-106551065D01*
X64273038Y-106551065D02*
X64177800Y-106455827D01*
X64177800Y-106455827D02*
X64130180Y-106312970D01*
X64130180Y-106312970D02*
X64130180Y-106074875D01*
X151860588Y-95917438D02*
X151765350Y-95869819D01*
X151765350Y-95869819D02*
X151622493Y-95869819D01*
X151622493Y-95869819D02*
X151479636Y-95917438D01*
X151479636Y-95917438D02*
X151384398Y-96012676D01*
X151384398Y-96012676D02*
X151336779Y-96107914D01*
X151336779Y-96107914D02*
X151289160Y-96298390D01*
X151289160Y-96298390D02*
X151289160Y-96441247D01*
X151289160Y-96441247D02*
X151336779Y-96631723D01*
X151336779Y-96631723D02*
X151384398Y-96726961D01*
X151384398Y-96726961D02*
X151479636Y-96822200D01*
X151479636Y-96822200D02*
X151622493Y-96869819D01*
X151622493Y-96869819D02*
X151717731Y-96869819D01*
X151717731Y-96869819D02*
X151860588Y-96822200D01*
X151860588Y-96822200D02*
X151908207Y-96774580D01*
X151908207Y-96774580D02*
X151908207Y-96441247D01*
X151908207Y-96441247D02*
X151717731Y-96441247D01*
X152336779Y-96869819D02*
X152336779Y-95869819D01*
X152336779Y-95869819D02*
X152908207Y-96869819D01*
X152908207Y-96869819D02*
X152908207Y-95869819D01*
X153384398Y-96869819D02*
X153384398Y-95869819D01*
X153384398Y-95869819D02*
X153622493Y-95869819D01*
X153622493Y-95869819D02*
X153765350Y-95917438D01*
X153765350Y-95917438D02*
X153860588Y-96012676D01*
X153860588Y-96012676D02*
X153908207Y-96107914D01*
X153908207Y-96107914D02*
X153955826Y-96298390D01*
X153955826Y-96298390D02*
X153955826Y-96441247D01*
X153955826Y-96441247D02*
X153908207Y-96631723D01*
X153908207Y-96631723D02*
X153860588Y-96726961D01*
X153860588Y-96726961D02*
X153765350Y-96822200D01*
X153765350Y-96822200D02*
X153622493Y-96869819D01*
X153622493Y-96869819D02*
X153384398Y-96869819D01*
X116336779Y-132369819D02*
X116336779Y-131369819D01*
X116336779Y-131369819D02*
X116670112Y-132084104D01*
X116670112Y-132084104D02*
X117003445Y-131369819D01*
X117003445Y-131369819D02*
X117003445Y-132369819D01*
X117479636Y-132369819D02*
X117479636Y-131703152D01*
X117479636Y-131369819D02*
X117432017Y-131417438D01*
X117432017Y-131417438D02*
X117479636Y-131465057D01*
X117479636Y-131465057D02*
X117527255Y-131417438D01*
X117527255Y-131417438D02*
X117479636Y-131369819D01*
X117479636Y-131369819D02*
X117479636Y-131465057D01*
X118384397Y-132369819D02*
X118384397Y-131369819D01*
X118384397Y-132322200D02*
X118289159Y-132369819D01*
X118289159Y-132369819D02*
X118098683Y-132369819D01*
X118098683Y-132369819D02*
X118003445Y-132322200D01*
X118003445Y-132322200D02*
X117955826Y-132274580D01*
X117955826Y-132274580D02*
X117908207Y-132179342D01*
X117908207Y-132179342D02*
X117908207Y-131893628D01*
X117908207Y-131893628D02*
X117955826Y-131798390D01*
X117955826Y-131798390D02*
X118003445Y-131750771D01*
X118003445Y-131750771D02*
X118098683Y-131703152D01*
X118098683Y-131703152D02*
X118289159Y-131703152D01*
X118289159Y-131703152D02*
X118384397Y-131750771D01*
X137023809Y-131869819D02*
X137595237Y-131869819D01*
X137309523Y-132869819D02*
X137309523Y-131869819D01*
X137928571Y-132869819D02*
X137928571Y-132203152D01*
X137928571Y-132393628D02*
X137976190Y-132298390D01*
X137976190Y-132298390D02*
X138023809Y-132250771D01*
X138023809Y-132250771D02*
X138119047Y-132203152D01*
X138119047Y-132203152D02*
X138214285Y-132203152D01*
X138928571Y-132822200D02*
X138833333Y-132869819D01*
X138833333Y-132869819D02*
X138642857Y-132869819D01*
X138642857Y-132869819D02*
X138547619Y-132822200D01*
X138547619Y-132822200D02*
X138500000Y-132726961D01*
X138500000Y-132726961D02*
X138500000Y-132346009D01*
X138500000Y-132346009D02*
X138547619Y-132250771D01*
X138547619Y-132250771D02*
X138642857Y-132203152D01*
X138642857Y-132203152D02*
X138833333Y-132203152D01*
X138833333Y-132203152D02*
X138928571Y-132250771D01*
X138928571Y-132250771D02*
X138976190Y-132346009D01*
X138976190Y-132346009D02*
X138976190Y-132441247D01*
X138976190Y-132441247D02*
X138500000Y-132536485D01*
X139404762Y-132869819D02*
X139404762Y-131869819D01*
X139404762Y-132250771D02*
X139500000Y-132203152D01*
X139500000Y-132203152D02*
X139690476Y-132203152D01*
X139690476Y-132203152D02*
X139785714Y-132250771D01*
X139785714Y-132250771D02*
X139833333Y-132298390D01*
X139833333Y-132298390D02*
X139880952Y-132393628D01*
X139880952Y-132393628D02*
X139880952Y-132679342D01*
X139880952Y-132679342D02*
X139833333Y-132774580D01*
X139833333Y-132774580D02*
X139785714Y-132822200D01*
X139785714Y-132822200D02*
X139690476Y-132869819D01*
X139690476Y-132869819D02*
X139500000Y-132869819D01*
X139500000Y-132869819D02*
X139404762Y-132822200D01*
X24789160Y-103822200D02*
X24932017Y-103869819D01*
X24932017Y-103869819D02*
X25170112Y-103869819D01*
X25170112Y-103869819D02*
X25265350Y-103822200D01*
X25265350Y-103822200D02*
X25312969Y-103774580D01*
X25312969Y-103774580D02*
X25360588Y-103679342D01*
X25360588Y-103679342D02*
X25360588Y-103584104D01*
X25360588Y-103584104D02*
X25312969Y-103488866D01*
X25312969Y-103488866D02*
X25265350Y-103441247D01*
X25265350Y-103441247D02*
X25170112Y-103393628D01*
X25170112Y-103393628D02*
X24979636Y-103346009D01*
X24979636Y-103346009D02*
X24884398Y-103298390D01*
X24884398Y-103298390D02*
X24836779Y-103250771D01*
X24836779Y-103250771D02*
X24789160Y-103155533D01*
X24789160Y-103155533D02*
X24789160Y-103060295D01*
X24789160Y-103060295D02*
X24836779Y-102965057D01*
X24836779Y-102965057D02*
X24884398Y-102917438D01*
X24884398Y-102917438D02*
X24979636Y-102869819D01*
X24979636Y-102869819D02*
X25217731Y-102869819D01*
X25217731Y-102869819D02*
X25360588Y-102917438D01*
X25789160Y-103869819D02*
X25789160Y-102869819D01*
X26789159Y-102917438D02*
X26693921Y-102869819D01*
X26693921Y-102869819D02*
X26551064Y-102869819D01*
X26551064Y-102869819D02*
X26408207Y-102917438D01*
X26408207Y-102917438D02*
X26312969Y-103012676D01*
X26312969Y-103012676D02*
X26265350Y-103107914D01*
X26265350Y-103107914D02*
X26217731Y-103298390D01*
X26217731Y-103298390D02*
X26217731Y-103441247D01*
X26217731Y-103441247D02*
X26265350Y-103631723D01*
X26265350Y-103631723D02*
X26312969Y-103726961D01*
X26312969Y-103726961D02*
X26408207Y-103822200D01*
X26408207Y-103822200D02*
X26551064Y-103869819D01*
X26551064Y-103869819D02*
X26646302Y-103869819D01*
X26646302Y-103869819D02*
X26789159Y-103822200D01*
X26789159Y-103822200D02*
X26836778Y-103774580D01*
X26836778Y-103774580D02*
X26836778Y-103441247D01*
X26836778Y-103441247D02*
X26646302Y-103441247D01*
X27265350Y-103774580D02*
X27312969Y-103822200D01*
X27312969Y-103822200D02*
X27265350Y-103869819D01*
X27265350Y-103869819D02*
X27217731Y-103822200D01*
X27217731Y-103822200D02*
X27265350Y-103774580D01*
X27265350Y-103774580D02*
X27265350Y-103869819D01*
X27265350Y-103250771D02*
X27312969Y-103298390D01*
X27312969Y-103298390D02*
X27265350Y-103346009D01*
X27265350Y-103346009D02*
X27217731Y-103298390D01*
X27217731Y-103298390D02*
X27265350Y-103250771D01*
X27265350Y-103250771D02*
X27265350Y-103346009D01*
X28360588Y-102869819D02*
X28932016Y-102869819D01*
X28646302Y-103869819D02*
X28646302Y-102869819D01*
X29408207Y-103869819D02*
X29312969Y-103822200D01*
X29312969Y-103822200D02*
X29265350Y-103774580D01*
X29265350Y-103774580D02*
X29217731Y-103679342D01*
X29217731Y-103679342D02*
X29217731Y-103393628D01*
X29217731Y-103393628D02*
X29265350Y-103298390D01*
X29265350Y-103298390D02*
X29312969Y-103250771D01*
X29312969Y-103250771D02*
X29408207Y-103203152D01*
X29408207Y-103203152D02*
X29551064Y-103203152D01*
X29551064Y-103203152D02*
X29646302Y-103250771D01*
X29646302Y-103250771D02*
X29693921Y-103298390D01*
X29693921Y-103298390D02*
X29741540Y-103393628D01*
X29741540Y-103393628D02*
X29741540Y-103679342D01*
X29741540Y-103679342D02*
X29693921Y-103774580D01*
X29693921Y-103774580D02*
X29646302Y-103822200D01*
X29646302Y-103822200D02*
X29551064Y-103869819D01*
X29551064Y-103869819D02*
X29408207Y-103869819D01*
X30884398Y-103822200D02*
X31027255Y-103869819D01*
X31027255Y-103869819D02*
X31265350Y-103869819D01*
X31265350Y-103869819D02*
X31360588Y-103822200D01*
X31360588Y-103822200D02*
X31408207Y-103774580D01*
X31408207Y-103774580D02*
X31455826Y-103679342D01*
X31455826Y-103679342D02*
X31455826Y-103584104D01*
X31455826Y-103584104D02*
X31408207Y-103488866D01*
X31408207Y-103488866D02*
X31360588Y-103441247D01*
X31360588Y-103441247D02*
X31265350Y-103393628D01*
X31265350Y-103393628D02*
X31074874Y-103346009D01*
X31074874Y-103346009D02*
X30979636Y-103298390D01*
X30979636Y-103298390D02*
X30932017Y-103250771D01*
X30932017Y-103250771D02*
X30884398Y-103155533D01*
X30884398Y-103155533D02*
X30884398Y-103060295D01*
X30884398Y-103060295D02*
X30932017Y-102965057D01*
X30932017Y-102965057D02*
X30979636Y-102917438D01*
X30979636Y-102917438D02*
X31074874Y-102869819D01*
X31074874Y-102869819D02*
X31312969Y-102869819D01*
X31312969Y-102869819D02*
X31455826Y-102917438D01*
X31741541Y-103203152D02*
X32122493Y-103203152D01*
X31884398Y-102869819D02*
X31884398Y-103726961D01*
X31884398Y-103726961D02*
X31932017Y-103822200D01*
X31932017Y-103822200D02*
X32027255Y-103869819D01*
X32027255Y-103869819D02*
X32122493Y-103869819D01*
X32884398Y-103203152D02*
X32884398Y-104012676D01*
X32884398Y-104012676D02*
X32836779Y-104107914D01*
X32836779Y-104107914D02*
X32789160Y-104155533D01*
X32789160Y-104155533D02*
X32693922Y-104203152D01*
X32693922Y-104203152D02*
X32551065Y-104203152D01*
X32551065Y-104203152D02*
X32455827Y-104155533D01*
X32884398Y-103822200D02*
X32789160Y-103869819D01*
X32789160Y-103869819D02*
X32598684Y-103869819D01*
X32598684Y-103869819D02*
X32503446Y-103822200D01*
X32503446Y-103822200D02*
X32455827Y-103774580D01*
X32455827Y-103774580D02*
X32408208Y-103679342D01*
X32408208Y-103679342D02*
X32408208Y-103393628D01*
X32408208Y-103393628D02*
X32455827Y-103298390D01*
X32455827Y-103298390D02*
X32503446Y-103250771D01*
X32503446Y-103250771D02*
X32598684Y-103203152D01*
X32598684Y-103203152D02*
X32789160Y-103203152D01*
X32789160Y-103203152D02*
X32884398Y-103250771D01*
X33884398Y-103869819D02*
X33312970Y-103869819D01*
X33598684Y-103869819D02*
X33598684Y-102869819D01*
X33598684Y-102869819D02*
X33503446Y-103012676D01*
X33503446Y-103012676D02*
X33408208Y-103107914D01*
X33408208Y-103107914D02*
X33312970Y-103155533D01*
X106836779Y-96488866D02*
X107598684Y-96488866D01*
X107217731Y-96869819D02*
X107217731Y-96107914D01*
X107979636Y-95869819D02*
X108598683Y-95869819D01*
X108598683Y-95869819D02*
X108265350Y-96250771D01*
X108265350Y-96250771D02*
X108408207Y-96250771D01*
X108408207Y-96250771D02*
X108503445Y-96298390D01*
X108503445Y-96298390D02*
X108551064Y-96346009D01*
X108551064Y-96346009D02*
X108598683Y-96441247D01*
X108598683Y-96441247D02*
X108598683Y-96679342D01*
X108598683Y-96679342D02*
X108551064Y-96774580D01*
X108551064Y-96774580D02*
X108503445Y-96822200D01*
X108503445Y-96822200D02*
X108408207Y-96869819D01*
X108408207Y-96869819D02*
X108122493Y-96869819D01*
X108122493Y-96869819D02*
X108027255Y-96822200D01*
X108027255Y-96822200D02*
X107979636Y-96774580D01*
X109217731Y-95869819D02*
X109312969Y-95869819D01*
X109312969Y-95869819D02*
X109408207Y-95917438D01*
X109408207Y-95917438D02*
X109455826Y-95965057D01*
X109455826Y-95965057D02*
X109503445Y-96060295D01*
X109503445Y-96060295D02*
X109551064Y-96250771D01*
X109551064Y-96250771D02*
X109551064Y-96488866D01*
X109551064Y-96488866D02*
X109503445Y-96679342D01*
X109503445Y-96679342D02*
X109455826Y-96774580D01*
X109455826Y-96774580D02*
X109408207Y-96822200D01*
X109408207Y-96822200D02*
X109312969Y-96869819D01*
X109312969Y-96869819D02*
X109217731Y-96869819D01*
X109217731Y-96869819D02*
X109122493Y-96822200D01*
X109122493Y-96822200D02*
X109074874Y-96774580D01*
X109074874Y-96774580D02*
X109027255Y-96679342D01*
X109027255Y-96679342D02*
X108979636Y-96488866D01*
X108979636Y-96488866D02*
X108979636Y-96250771D01*
X108979636Y-96250771D02*
X109027255Y-96060295D01*
X109027255Y-96060295D02*
X109074874Y-95965057D01*
X109074874Y-95965057D02*
X109122493Y-95917438D01*
X109122493Y-95917438D02*
X109217731Y-95869819D01*
X109836779Y-95869819D02*
X110170112Y-96869819D01*
X110170112Y-96869819D02*
X110503445Y-95869819D01*
X67917438Y-132639411D02*
X67869819Y-132734649D01*
X67869819Y-132734649D02*
X67869819Y-132877506D01*
X67869819Y-132877506D02*
X67917438Y-133020363D01*
X67917438Y-133020363D02*
X68012676Y-133115601D01*
X68012676Y-133115601D02*
X68107914Y-133163220D01*
X68107914Y-133163220D02*
X68298390Y-133210839D01*
X68298390Y-133210839D02*
X68441247Y-133210839D01*
X68441247Y-133210839D02*
X68631723Y-133163220D01*
X68631723Y-133163220D02*
X68726961Y-133115601D01*
X68726961Y-133115601D02*
X68822200Y-133020363D01*
X68822200Y-133020363D02*
X68869819Y-132877506D01*
X68869819Y-132877506D02*
X68869819Y-132782268D01*
X68869819Y-132782268D02*
X68822200Y-132639411D01*
X68822200Y-132639411D02*
X68774580Y-132591792D01*
X68774580Y-132591792D02*
X68441247Y-132591792D01*
X68441247Y-132591792D02*
X68441247Y-132782268D01*
X68869819Y-131734649D02*
X68346009Y-131734649D01*
X68346009Y-131734649D02*
X68250771Y-131782268D01*
X68250771Y-131782268D02*
X68203152Y-131877506D01*
X68203152Y-131877506D02*
X68203152Y-132067982D01*
X68203152Y-132067982D02*
X68250771Y-132163220D01*
X68822200Y-131734649D02*
X68869819Y-131829887D01*
X68869819Y-131829887D02*
X68869819Y-132067982D01*
X68869819Y-132067982D02*
X68822200Y-132163220D01*
X68822200Y-132163220D02*
X68726961Y-132210839D01*
X68726961Y-132210839D02*
X68631723Y-132210839D01*
X68631723Y-132210839D02*
X68536485Y-132163220D01*
X68536485Y-132163220D02*
X68488866Y-132067982D01*
X68488866Y-132067982D02*
X68488866Y-131829887D01*
X68488866Y-131829887D02*
X68441247Y-131734649D01*
X68869819Y-131258458D02*
X68203152Y-131258458D01*
X67869819Y-131258458D02*
X67917438Y-131306077D01*
X67917438Y-131306077D02*
X67965057Y-131258458D01*
X67965057Y-131258458D02*
X67917438Y-131210839D01*
X67917438Y-131210839D02*
X67869819Y-131258458D01*
X67869819Y-131258458D02*
X67965057Y-131258458D01*
X68203152Y-130782268D02*
X68869819Y-130782268D01*
X68298390Y-130782268D02*
X68250771Y-130734649D01*
X68250771Y-130734649D02*
X68203152Y-130639411D01*
X68203152Y-130639411D02*
X68203152Y-130496554D01*
X68203152Y-130496554D02*
X68250771Y-130401316D01*
X68250771Y-130401316D02*
X68346009Y-130353697D01*
X68346009Y-130353697D02*
X68869819Y-130353697D01*
X47369819Y-133163220D02*
X46369819Y-133163220D01*
X46703152Y-132687030D02*
X47369819Y-132687030D01*
X46798390Y-132687030D02*
X46750771Y-132639411D01*
X46750771Y-132639411D02*
X46703152Y-132544173D01*
X46703152Y-132544173D02*
X46703152Y-132401316D01*
X46703152Y-132401316D02*
X46750771Y-132306078D01*
X46750771Y-132306078D02*
X46846009Y-132258459D01*
X46846009Y-132258459D02*
X47369819Y-132258459D01*
X46703152Y-131782268D02*
X47703152Y-131782268D01*
X46750771Y-131782268D02*
X46703152Y-131687030D01*
X46703152Y-131687030D02*
X46703152Y-131496554D01*
X46703152Y-131496554D02*
X46750771Y-131401316D01*
X46750771Y-131401316D02*
X46798390Y-131353697D01*
X46798390Y-131353697D02*
X46893628Y-131306078D01*
X46893628Y-131306078D02*
X47179342Y-131306078D01*
X47179342Y-131306078D02*
X47274580Y-131353697D01*
X47274580Y-131353697D02*
X47322200Y-131401316D01*
X47322200Y-131401316D02*
X47369819Y-131496554D01*
X47369819Y-131496554D02*
X47369819Y-131687030D01*
X47369819Y-131687030D02*
X47322200Y-131782268D01*
X46703152Y-130448935D02*
X47369819Y-130448935D01*
X46703152Y-130877506D02*
X47226961Y-130877506D01*
X47226961Y-130877506D02*
X47322200Y-130829887D01*
X47322200Y-130829887D02*
X47369819Y-130734649D01*
X47369819Y-130734649D02*
X47369819Y-130591792D01*
X47369819Y-130591792D02*
X47322200Y-130496554D01*
X47322200Y-130496554D02*
X47274580Y-130448935D01*
X46703152Y-130115601D02*
X46703152Y-129734649D01*
X46369819Y-129972744D02*
X47226961Y-129972744D01*
X47226961Y-129972744D02*
X47322200Y-129925125D01*
X47322200Y-129925125D02*
X47369819Y-129829887D01*
X47369819Y-129829887D02*
X47369819Y-129734649D01*
X47369819Y-128163220D02*
X47369819Y-128639410D01*
X47369819Y-128639410D02*
X46369819Y-128639410D01*
X47322200Y-127448934D02*
X47369819Y-127544172D01*
X47369819Y-127544172D02*
X47369819Y-127734648D01*
X47369819Y-127734648D02*
X47322200Y-127829886D01*
X47322200Y-127829886D02*
X47226961Y-127877505D01*
X47226961Y-127877505D02*
X46846009Y-127877505D01*
X46846009Y-127877505D02*
X46750771Y-127829886D01*
X46750771Y-127829886D02*
X46703152Y-127734648D01*
X46703152Y-127734648D02*
X46703152Y-127544172D01*
X46703152Y-127544172D02*
X46750771Y-127448934D01*
X46750771Y-127448934D02*
X46846009Y-127401315D01*
X46846009Y-127401315D02*
X46941247Y-127401315D01*
X46941247Y-127401315D02*
X47036485Y-127877505D01*
X46703152Y-127067981D02*
X47369819Y-126829886D01*
X47369819Y-126829886D02*
X46703152Y-126591791D01*
X47322200Y-125829886D02*
X47369819Y-125925124D01*
X47369819Y-125925124D02*
X47369819Y-126115600D01*
X47369819Y-126115600D02*
X47322200Y-126210838D01*
X47322200Y-126210838D02*
X47226961Y-126258457D01*
X47226961Y-126258457D02*
X46846009Y-126258457D01*
X46846009Y-126258457D02*
X46750771Y-126210838D01*
X46750771Y-126210838D02*
X46703152Y-126115600D01*
X46703152Y-126115600D02*
X46703152Y-125925124D01*
X46703152Y-125925124D02*
X46750771Y-125829886D01*
X46750771Y-125829886D02*
X46846009Y-125782267D01*
X46846009Y-125782267D02*
X46941247Y-125782267D01*
X46941247Y-125782267D02*
X47036485Y-126258457D01*
X47369819Y-125210838D02*
X47322200Y-125306076D01*
X47322200Y-125306076D02*
X47226961Y-125353695D01*
X47226961Y-125353695D02*
X46369819Y-125353695D01*
X69677800Y-95789160D02*
X69630180Y-95932017D01*
X69630180Y-95932017D02*
X69630180Y-96170112D01*
X69630180Y-96170112D02*
X69677800Y-96265350D01*
X69677800Y-96265350D02*
X69725419Y-96312969D01*
X69725419Y-96312969D02*
X69820657Y-96360588D01*
X69820657Y-96360588D02*
X69915895Y-96360588D01*
X69915895Y-96360588D02*
X70011133Y-96312969D01*
X70011133Y-96312969D02*
X70058752Y-96265350D01*
X70058752Y-96265350D02*
X70106371Y-96170112D01*
X70106371Y-96170112D02*
X70153990Y-95979636D01*
X70153990Y-95979636D02*
X70201609Y-95884398D01*
X70201609Y-95884398D02*
X70249228Y-95836779D01*
X70249228Y-95836779D02*
X70344466Y-95789160D01*
X70344466Y-95789160D02*
X70439704Y-95789160D01*
X70439704Y-95789160D02*
X70534942Y-95836779D01*
X70534942Y-95836779D02*
X70582561Y-95884398D01*
X70582561Y-95884398D02*
X70630180Y-95979636D01*
X70630180Y-95979636D02*
X70630180Y-96217731D01*
X70630180Y-96217731D02*
X70582561Y-96360588D01*
X70296847Y-96646303D02*
X70296847Y-97027255D01*
X70630180Y-96789160D02*
X69773038Y-96789160D01*
X69773038Y-96789160D02*
X69677800Y-96836779D01*
X69677800Y-96836779D02*
X69630180Y-96932017D01*
X69630180Y-96932017D02*
X69630180Y-97027255D01*
X70296847Y-97789160D02*
X69487323Y-97789160D01*
X69487323Y-97789160D02*
X69392085Y-97741541D01*
X69392085Y-97741541D02*
X69344466Y-97693922D01*
X69344466Y-97693922D02*
X69296847Y-97598684D01*
X69296847Y-97598684D02*
X69296847Y-97455827D01*
X69296847Y-97455827D02*
X69344466Y-97360589D01*
X69677800Y-97789160D02*
X69630180Y-97693922D01*
X69630180Y-97693922D02*
X69630180Y-97503446D01*
X69630180Y-97503446D02*
X69677800Y-97408208D01*
X69677800Y-97408208D02*
X69725419Y-97360589D01*
X69725419Y-97360589D02*
X69820657Y-97312970D01*
X69820657Y-97312970D02*
X70106371Y-97312970D01*
X70106371Y-97312970D02*
X70201609Y-97360589D01*
X70201609Y-97360589D02*
X70249228Y-97408208D01*
X70249228Y-97408208D02*
X70296847Y-97503446D01*
X70296847Y-97503446D02*
X70296847Y-97693922D01*
X70296847Y-97693922D02*
X70249228Y-97789160D01*
X70534942Y-98217732D02*
X70582561Y-98265351D01*
X70582561Y-98265351D02*
X70630180Y-98360589D01*
X70630180Y-98360589D02*
X70630180Y-98598684D01*
X70630180Y-98598684D02*
X70582561Y-98693922D01*
X70582561Y-98693922D02*
X70534942Y-98741541D01*
X70534942Y-98741541D02*
X70439704Y-98789160D01*
X70439704Y-98789160D02*
X70344466Y-98789160D01*
X70344466Y-98789160D02*
X70201609Y-98741541D01*
X70201609Y-98741541D02*
X69630180Y-98170113D01*
X69630180Y-98170113D02*
X69630180Y-98789160D01*
X70582561Y-100503446D02*
X70630180Y-100408208D01*
X70630180Y-100408208D02*
X70630180Y-100265351D01*
X70630180Y-100265351D02*
X70582561Y-100122494D01*
X70582561Y-100122494D02*
X70487323Y-100027256D01*
X70487323Y-100027256D02*
X70392085Y-99979637D01*
X70392085Y-99979637D02*
X70201609Y-99932018D01*
X70201609Y-99932018D02*
X70058752Y-99932018D01*
X70058752Y-99932018D02*
X69868276Y-99979637D01*
X69868276Y-99979637D02*
X69773038Y-100027256D01*
X69773038Y-100027256D02*
X69677800Y-100122494D01*
X69677800Y-100122494D02*
X69630180Y-100265351D01*
X69630180Y-100265351D02*
X69630180Y-100360589D01*
X69630180Y-100360589D02*
X69677800Y-100503446D01*
X69677800Y-100503446D02*
X69725419Y-100551065D01*
X69725419Y-100551065D02*
X70058752Y-100551065D01*
X70058752Y-100551065D02*
X70058752Y-100360589D01*
X69630180Y-101408208D02*
X70153990Y-101408208D01*
X70153990Y-101408208D02*
X70249228Y-101360589D01*
X70249228Y-101360589D02*
X70296847Y-101265351D01*
X70296847Y-101265351D02*
X70296847Y-101074875D01*
X70296847Y-101074875D02*
X70249228Y-100979637D01*
X69677800Y-101408208D02*
X69630180Y-101312970D01*
X69630180Y-101312970D02*
X69630180Y-101074875D01*
X69630180Y-101074875D02*
X69677800Y-100979637D01*
X69677800Y-100979637D02*
X69773038Y-100932018D01*
X69773038Y-100932018D02*
X69868276Y-100932018D01*
X69868276Y-100932018D02*
X69963514Y-100979637D01*
X69963514Y-100979637D02*
X70011133Y-101074875D01*
X70011133Y-101074875D02*
X70011133Y-101312970D01*
X70011133Y-101312970D02*
X70058752Y-101408208D01*
X69630180Y-101884399D02*
X70296847Y-101884399D01*
X70630180Y-101884399D02*
X70582561Y-101836780D01*
X70582561Y-101836780D02*
X70534942Y-101884399D01*
X70534942Y-101884399D02*
X70582561Y-101932018D01*
X70582561Y-101932018D02*
X70630180Y-101884399D01*
X70630180Y-101884399D02*
X70534942Y-101884399D01*
X70296847Y-102360589D02*
X69630180Y-102360589D01*
X70201609Y-102360589D02*
X70249228Y-102408208D01*
X70249228Y-102408208D02*
X70296847Y-102503446D01*
X70296847Y-102503446D02*
X70296847Y-102646303D01*
X70296847Y-102646303D02*
X70249228Y-102741541D01*
X70249228Y-102741541D02*
X70153990Y-102789160D01*
X70153990Y-102789160D02*
X69630180Y-102789160D01*
X69677800Y-103979637D02*
X69630180Y-104122494D01*
X69630180Y-104122494D02*
X69630180Y-104360589D01*
X69630180Y-104360589D02*
X69677800Y-104455827D01*
X69677800Y-104455827D02*
X69725419Y-104503446D01*
X69725419Y-104503446D02*
X69820657Y-104551065D01*
X69820657Y-104551065D02*
X69915895Y-104551065D01*
X69915895Y-104551065D02*
X70011133Y-104503446D01*
X70011133Y-104503446D02*
X70058752Y-104455827D01*
X70058752Y-104455827D02*
X70106371Y-104360589D01*
X70106371Y-104360589D02*
X70153990Y-104170113D01*
X70153990Y-104170113D02*
X70201609Y-104074875D01*
X70201609Y-104074875D02*
X70249228Y-104027256D01*
X70249228Y-104027256D02*
X70344466Y-103979637D01*
X70344466Y-103979637D02*
X70439704Y-103979637D01*
X70439704Y-103979637D02*
X70534942Y-104027256D01*
X70534942Y-104027256D02*
X70582561Y-104074875D01*
X70582561Y-104074875D02*
X70630180Y-104170113D01*
X70630180Y-104170113D02*
X70630180Y-104408208D01*
X70630180Y-104408208D02*
X70582561Y-104551065D01*
X70534942Y-104932018D02*
X70582561Y-104979637D01*
X70582561Y-104979637D02*
X70630180Y-105074875D01*
X70630180Y-105074875D02*
X70630180Y-105312970D01*
X70630180Y-105312970D02*
X70582561Y-105408208D01*
X70582561Y-105408208D02*
X70534942Y-105455827D01*
X70534942Y-105455827D02*
X70439704Y-105503446D01*
X70439704Y-105503446D02*
X70344466Y-105503446D01*
X70344466Y-105503446D02*
X70201609Y-105455827D01*
X70201609Y-105455827D02*
X69630180Y-104884399D01*
X69630180Y-104884399D02*
X69630180Y-105503446D01*
X190744828Y-109655342D02*
X190268637Y-109988675D01*
X190744828Y-110226770D02*
X189744828Y-110226770D01*
X189744828Y-110226770D02*
X189744828Y-109845818D01*
X189744828Y-109845818D02*
X189792447Y-109750580D01*
X189792447Y-109750580D02*
X189840066Y-109702961D01*
X189840066Y-109702961D02*
X189935304Y-109655342D01*
X189935304Y-109655342D02*
X190078161Y-109655342D01*
X190078161Y-109655342D02*
X190173399Y-109702961D01*
X190173399Y-109702961D02*
X190221018Y-109750580D01*
X190221018Y-109750580D02*
X190268637Y-109845818D01*
X190268637Y-109845818D02*
X190268637Y-110226770D01*
X190744828Y-108702961D02*
X190744828Y-109274389D01*
X190744828Y-108988675D02*
X189744828Y-108988675D01*
X189744828Y-108988675D02*
X189887685Y-109083913D01*
X189887685Y-109083913D02*
X189982923Y-109179151D01*
X189982923Y-109179151D02*
X190030542Y-109274389D01*
X189744828Y-108083913D02*
X189744828Y-107988675D01*
X189744828Y-107988675D02*
X189792447Y-107893437D01*
X189792447Y-107893437D02*
X189840066Y-107845818D01*
X189840066Y-107845818D02*
X189935304Y-107798199D01*
X189935304Y-107798199D02*
X190125780Y-107750580D01*
X190125780Y-107750580D02*
X190363875Y-107750580D01*
X190363875Y-107750580D02*
X190554351Y-107798199D01*
X190554351Y-107798199D02*
X190649589Y-107845818D01*
X190649589Y-107845818D02*
X190697209Y-107893437D01*
X190697209Y-107893437D02*
X190744828Y-107988675D01*
X190744828Y-107988675D02*
X190744828Y-108083913D01*
X190744828Y-108083913D02*
X190697209Y-108179151D01*
X190697209Y-108179151D02*
X190649589Y-108226770D01*
X190649589Y-108226770D02*
X190554351Y-108274389D01*
X190554351Y-108274389D02*
X190363875Y-108322008D01*
X190363875Y-108322008D02*
X190125780Y-108322008D01*
X190125780Y-108322008D02*
X189935304Y-108274389D01*
X189935304Y-108274389D02*
X189840066Y-108226770D01*
X189840066Y-108226770D02*
X189792447Y-108179151D01*
X189792447Y-108179151D02*
X189744828Y-108083913D01*
X161159580Y-108666666D02*
X161207200Y-108714285D01*
X161207200Y-108714285D02*
X161254819Y-108857142D01*
X161254819Y-108857142D02*
X161254819Y-108952380D01*
X161254819Y-108952380D02*
X161207200Y-109095237D01*
X161207200Y-109095237D02*
X161111961Y-109190475D01*
X161111961Y-109190475D02*
X161016723Y-109238094D01*
X161016723Y-109238094D02*
X160826247Y-109285713D01*
X160826247Y-109285713D02*
X160683390Y-109285713D01*
X160683390Y-109285713D02*
X160492914Y-109238094D01*
X160492914Y-109238094D02*
X160397676Y-109190475D01*
X160397676Y-109190475D02*
X160302438Y-109095237D01*
X160302438Y-109095237D02*
X160254819Y-108952380D01*
X160254819Y-108952380D02*
X160254819Y-108857142D01*
X160254819Y-108857142D02*
X160302438Y-108714285D01*
X160302438Y-108714285D02*
X160350057Y-108666666D01*
X160254819Y-107761904D02*
X160254819Y-108238094D01*
X160254819Y-108238094D02*
X160731009Y-108285713D01*
X160731009Y-108285713D02*
X160683390Y-108238094D01*
X160683390Y-108238094D02*
X160635771Y-108142856D01*
X160635771Y-108142856D02*
X160635771Y-107904761D01*
X160635771Y-107904761D02*
X160683390Y-107809523D01*
X160683390Y-107809523D02*
X160731009Y-107761904D01*
X160731009Y-107761904D02*
X160826247Y-107714285D01*
X160826247Y-107714285D02*
X161064342Y-107714285D01*
X161064342Y-107714285D02*
X161159580Y-107761904D01*
X161159580Y-107761904D02*
X161207200Y-107809523D01*
X161207200Y-107809523D02*
X161254819Y-107904761D01*
X161254819Y-107904761D02*
X161254819Y-108142856D01*
X161254819Y-108142856D02*
X161207200Y-108238094D01*
X161207200Y-108238094D02*
X161159580Y-108285713D01*
X153954819Y-127198094D02*
X152954819Y-127198094D01*
X152954819Y-127198094D02*
X152954819Y-126959999D01*
X152954819Y-126959999D02*
X153002438Y-126817142D01*
X153002438Y-126817142D02*
X153097676Y-126721904D01*
X153097676Y-126721904D02*
X153192914Y-126674285D01*
X153192914Y-126674285D02*
X153383390Y-126626666D01*
X153383390Y-126626666D02*
X153526247Y-126626666D01*
X153526247Y-126626666D02*
X153716723Y-126674285D01*
X153716723Y-126674285D02*
X153811961Y-126721904D01*
X153811961Y-126721904D02*
X153907200Y-126817142D01*
X153907200Y-126817142D02*
X153954819Y-126959999D01*
X153954819Y-126959999D02*
X153954819Y-127198094D01*
X153288152Y-125769523D02*
X153954819Y-125769523D01*
X152907200Y-126007618D02*
X153621485Y-126245713D01*
X153621485Y-126245713D02*
X153621485Y-125626666D01*
X181454819Y-127238094D02*
X180454819Y-127238094D01*
X180454819Y-127238094D02*
X180454819Y-126999999D01*
X180454819Y-126999999D02*
X180502438Y-126857142D01*
X180502438Y-126857142D02*
X180597676Y-126761904D01*
X180597676Y-126761904D02*
X180692914Y-126714285D01*
X180692914Y-126714285D02*
X180883390Y-126666666D01*
X180883390Y-126666666D02*
X181026247Y-126666666D01*
X181026247Y-126666666D02*
X181216723Y-126714285D01*
X181216723Y-126714285D02*
X181311961Y-126761904D01*
X181311961Y-126761904D02*
X181407200Y-126857142D01*
X181407200Y-126857142D02*
X181454819Y-126999999D01*
X181454819Y-126999999D02*
X181454819Y-127238094D01*
X180550057Y-126285713D02*
X180502438Y-126238094D01*
X180502438Y-126238094D02*
X180454819Y-126142856D01*
X180454819Y-126142856D02*
X180454819Y-125904761D01*
X180454819Y-125904761D02*
X180502438Y-125809523D01*
X180502438Y-125809523D02*
X180550057Y-125761904D01*
X180550057Y-125761904D02*
X180645295Y-125714285D01*
X180645295Y-125714285D02*
X180740533Y-125714285D01*
X180740533Y-125714285D02*
X180883390Y-125761904D01*
X180883390Y-125761904D02*
X181454819Y-126333332D01*
X181454819Y-126333332D02*
X181454819Y-125714285D01*
X23738095Y-92754819D02*
X23738095Y-91754819D01*
X23738095Y-92231009D02*
X24309523Y-92231009D01*
X24309523Y-92754819D02*
X24309523Y-91754819D01*
X25309523Y-92754819D02*
X24738095Y-92754819D01*
X25023809Y-92754819D02*
X25023809Y-91754819D01*
X25023809Y-91754819D02*
X24928571Y-91897676D01*
X24928571Y-91897676D02*
X24833333Y-91992914D01*
X24833333Y-91992914D02*
X24738095Y-92040533D01*
X174954819Y-127238094D02*
X173954819Y-127238094D01*
X173954819Y-127238094D02*
X173954819Y-126999999D01*
X173954819Y-126999999D02*
X174002438Y-126857142D01*
X174002438Y-126857142D02*
X174097676Y-126761904D01*
X174097676Y-126761904D02*
X174192914Y-126714285D01*
X174192914Y-126714285D02*
X174383390Y-126666666D01*
X174383390Y-126666666D02*
X174526247Y-126666666D01*
X174526247Y-126666666D02*
X174716723Y-126714285D01*
X174716723Y-126714285D02*
X174811961Y-126761904D01*
X174811961Y-126761904D02*
X174907200Y-126857142D01*
X174907200Y-126857142D02*
X174954819Y-126999999D01*
X174954819Y-126999999D02*
X174954819Y-127238094D01*
X174954819Y-125714285D02*
X174954819Y-126285713D01*
X174954819Y-125999999D02*
X173954819Y-125999999D01*
X173954819Y-125999999D02*
X174097676Y-126095237D01*
X174097676Y-126095237D02*
X174192914Y-126190475D01*
X174192914Y-126190475D02*
X174240533Y-126285713D01*
X165554819Y-94309523D02*
X166269104Y-94309523D01*
X166269104Y-94309523D02*
X166411961Y-94357142D01*
X166411961Y-94357142D02*
X166507200Y-94452380D01*
X166507200Y-94452380D02*
X166554819Y-94595237D01*
X166554819Y-94595237D02*
X166554819Y-94690475D01*
X166554819Y-93309523D02*
X166554819Y-93880951D01*
X166554819Y-93595237D02*
X165554819Y-93595237D01*
X165554819Y-93595237D02*
X165697676Y-93690475D01*
X165697676Y-93690475D02*
X165792914Y-93785713D01*
X165792914Y-93785713D02*
X165840533Y-93880951D01*
X165650057Y-92928570D02*
X165602438Y-92880951D01*
X165602438Y-92880951D02*
X165554819Y-92785713D01*
X165554819Y-92785713D02*
X165554819Y-92547618D01*
X165554819Y-92547618D02*
X165602438Y-92452380D01*
X165602438Y-92452380D02*
X165650057Y-92404761D01*
X165650057Y-92404761D02*
X165745295Y-92357142D01*
X165745295Y-92357142D02*
X165840533Y-92357142D01*
X165840533Y-92357142D02*
X165983390Y-92404761D01*
X165983390Y-92404761D02*
X166554819Y-92976189D01*
X166554819Y-92976189D02*
X166554819Y-92357142D01*
X151954819Y-109642857D02*
X151478628Y-109976190D01*
X151954819Y-110214285D02*
X150954819Y-110214285D01*
X150954819Y-110214285D02*
X150954819Y-109833333D01*
X150954819Y-109833333D02*
X151002438Y-109738095D01*
X151002438Y-109738095D02*
X151050057Y-109690476D01*
X151050057Y-109690476D02*
X151145295Y-109642857D01*
X151145295Y-109642857D02*
X151288152Y-109642857D01*
X151288152Y-109642857D02*
X151383390Y-109690476D01*
X151383390Y-109690476D02*
X151431009Y-109738095D01*
X151431009Y-109738095D02*
X151478628Y-109833333D01*
X151478628Y-109833333D02*
X151478628Y-110214285D01*
X151954819Y-108690476D02*
X151954819Y-109261904D01*
X151954819Y-108976190D02*
X150954819Y-108976190D01*
X150954819Y-108976190D02*
X151097676Y-109071428D01*
X151097676Y-109071428D02*
X151192914Y-109166666D01*
X151192914Y-109166666D02*
X151240533Y-109261904D01*
X150954819Y-107785714D02*
X150954819Y-108261904D01*
X150954819Y-108261904D02*
X151431009Y-108309523D01*
X151431009Y-108309523D02*
X151383390Y-108261904D01*
X151383390Y-108261904D02*
X151335771Y-108166666D01*
X151335771Y-108166666D02*
X151335771Y-107928571D01*
X151335771Y-107928571D02*
X151383390Y-107833333D01*
X151383390Y-107833333D02*
X151431009Y-107785714D01*
X151431009Y-107785714D02*
X151526247Y-107738095D01*
X151526247Y-107738095D02*
X151764342Y-107738095D01*
X151764342Y-107738095D02*
X151859580Y-107785714D01*
X151859580Y-107785714D02*
X151907200Y-107833333D01*
X151907200Y-107833333D02*
X151954819Y-107928571D01*
X151954819Y-107928571D02*
X151954819Y-108166666D01*
X151954819Y-108166666D02*
X151907200Y-108261904D01*
X151907200Y-108261904D02*
X151859580Y-108309523D01*
X99054819Y-93833333D02*
X99769104Y-93833333D01*
X99769104Y-93833333D02*
X99911961Y-93880952D01*
X99911961Y-93880952D02*
X100007200Y-93976190D01*
X100007200Y-93976190D02*
X100054819Y-94119047D01*
X100054819Y-94119047D02*
X100054819Y-94214285D01*
X99054819Y-92880952D02*
X99054819Y-93357142D01*
X99054819Y-93357142D02*
X99531009Y-93404761D01*
X99531009Y-93404761D02*
X99483390Y-93357142D01*
X99483390Y-93357142D02*
X99435771Y-93261904D01*
X99435771Y-93261904D02*
X99435771Y-93023809D01*
X99435771Y-93023809D02*
X99483390Y-92928571D01*
X99483390Y-92928571D02*
X99531009Y-92880952D01*
X99531009Y-92880952D02*
X99626247Y-92833333D01*
X99626247Y-92833333D02*
X99864342Y-92833333D01*
X99864342Y-92833333D02*
X99959580Y-92880952D01*
X99959580Y-92880952D02*
X100007200Y-92928571D01*
X100007200Y-92928571D02*
X100054819Y-93023809D01*
X100054819Y-93023809D02*
X100054819Y-93261904D01*
X100054819Y-93261904D02*
X100007200Y-93357142D01*
X100007200Y-93357142D02*
X99959580Y-93404761D01*
X170584819Y-111642857D02*
X170108628Y-111976190D01*
X170584819Y-112214285D02*
X169584819Y-112214285D01*
X169584819Y-112214285D02*
X169584819Y-111833333D01*
X169584819Y-111833333D02*
X169632438Y-111738095D01*
X169632438Y-111738095D02*
X169680057Y-111690476D01*
X169680057Y-111690476D02*
X169775295Y-111642857D01*
X169775295Y-111642857D02*
X169918152Y-111642857D01*
X169918152Y-111642857D02*
X170013390Y-111690476D01*
X170013390Y-111690476D02*
X170061009Y-111738095D01*
X170061009Y-111738095D02*
X170108628Y-111833333D01*
X170108628Y-111833333D02*
X170108628Y-112214285D01*
X170584819Y-110690476D02*
X170584819Y-111261904D01*
X170584819Y-110976190D02*
X169584819Y-110976190D01*
X169584819Y-110976190D02*
X169727676Y-111071428D01*
X169727676Y-111071428D02*
X169822914Y-111166666D01*
X169822914Y-111166666D02*
X169870533Y-111261904D01*
X169680057Y-110309523D02*
X169632438Y-110261904D01*
X169632438Y-110261904D02*
X169584819Y-110166666D01*
X169584819Y-110166666D02*
X169584819Y-109928571D01*
X169584819Y-109928571D02*
X169632438Y-109833333D01*
X169632438Y-109833333D02*
X169680057Y-109785714D01*
X169680057Y-109785714D02*
X169775295Y-109738095D01*
X169775295Y-109738095D02*
X169870533Y-109738095D01*
X169870533Y-109738095D02*
X170013390Y-109785714D01*
X170013390Y-109785714D02*
X170584819Y-110357142D01*
X170584819Y-110357142D02*
X170584819Y-109738095D01*
X99954819Y-141595238D02*
X99478628Y-141928571D01*
X99954819Y-142166666D02*
X98954819Y-142166666D01*
X98954819Y-142166666D02*
X98954819Y-141785714D01*
X98954819Y-141785714D02*
X99002438Y-141690476D01*
X99002438Y-141690476D02*
X99050057Y-141642857D01*
X99050057Y-141642857D02*
X99145295Y-141595238D01*
X99145295Y-141595238D02*
X99288152Y-141595238D01*
X99288152Y-141595238D02*
X99383390Y-141642857D01*
X99383390Y-141642857D02*
X99431009Y-141690476D01*
X99431009Y-141690476D02*
X99478628Y-141785714D01*
X99478628Y-141785714D02*
X99478628Y-142166666D01*
X98954819Y-141309523D02*
X99954819Y-140976190D01*
X99954819Y-140976190D02*
X98954819Y-140642857D01*
X98954819Y-140404761D02*
X98954819Y-139785714D01*
X98954819Y-139785714D02*
X99335771Y-140119047D01*
X99335771Y-140119047D02*
X99335771Y-139976190D01*
X99335771Y-139976190D02*
X99383390Y-139880952D01*
X99383390Y-139880952D02*
X99431009Y-139833333D01*
X99431009Y-139833333D02*
X99526247Y-139785714D01*
X99526247Y-139785714D02*
X99764342Y-139785714D01*
X99764342Y-139785714D02*
X99859580Y-139833333D01*
X99859580Y-139833333D02*
X99907200Y-139880952D01*
X99907200Y-139880952D02*
X99954819Y-139976190D01*
X99954819Y-139976190D02*
X99954819Y-140261904D01*
X99954819Y-140261904D02*
X99907200Y-140357142D01*
X99907200Y-140357142D02*
X99859580Y-140404761D01*
X142554819Y-93833333D02*
X143269104Y-93833333D01*
X143269104Y-93833333D02*
X143411961Y-93880952D01*
X143411961Y-93880952D02*
X143507200Y-93976190D01*
X143507200Y-93976190D02*
X143554819Y-94119047D01*
X143554819Y-94119047D02*
X143554819Y-94214285D01*
X143554819Y-93309523D02*
X143554819Y-93119047D01*
X143554819Y-93119047D02*
X143507200Y-93023809D01*
X143507200Y-93023809D02*
X143459580Y-92976190D01*
X143459580Y-92976190D02*
X143316723Y-92880952D01*
X143316723Y-92880952D02*
X143126247Y-92833333D01*
X143126247Y-92833333D02*
X142745295Y-92833333D01*
X142745295Y-92833333D02*
X142650057Y-92880952D01*
X142650057Y-92880952D02*
X142602438Y-92928571D01*
X142602438Y-92928571D02*
X142554819Y-93023809D01*
X142554819Y-93023809D02*
X142554819Y-93214285D01*
X142554819Y-93214285D02*
X142602438Y-93309523D01*
X142602438Y-93309523D02*
X142650057Y-93357142D01*
X142650057Y-93357142D02*
X142745295Y-93404761D01*
X142745295Y-93404761D02*
X142983390Y-93404761D01*
X142983390Y-93404761D02*
X143078628Y-93357142D01*
X143078628Y-93357142D02*
X143126247Y-93309523D01*
X143126247Y-93309523D02*
X143173866Y-93214285D01*
X143173866Y-93214285D02*
X143173866Y-93023809D01*
X143173866Y-93023809D02*
X143126247Y-92928571D01*
X143126247Y-92928571D02*
X143078628Y-92880952D01*
X143078628Y-92880952D02*
X142983390Y-92833333D01*
X110554819Y-94309523D02*
X111269104Y-94309523D01*
X111269104Y-94309523D02*
X111411961Y-94357142D01*
X111411961Y-94357142D02*
X111507200Y-94452380D01*
X111507200Y-94452380D02*
X111554819Y-94595237D01*
X111554819Y-94595237D02*
X111554819Y-94690475D01*
X111554819Y-93309523D02*
X111554819Y-93880951D01*
X111554819Y-93595237D02*
X110554819Y-93595237D01*
X110554819Y-93595237D02*
X110697676Y-93690475D01*
X110697676Y-93690475D02*
X110792914Y-93785713D01*
X110792914Y-93785713D02*
X110840533Y-93880951D01*
X111554819Y-92357142D02*
X111554819Y-92928570D01*
X111554819Y-92642856D02*
X110554819Y-92642856D01*
X110554819Y-92642856D02*
X110697676Y-92738094D01*
X110697676Y-92738094D02*
X110792914Y-92833332D01*
X110792914Y-92833332D02*
X110840533Y-92928570D01*
X32554819Y-93833333D02*
X33269104Y-93833333D01*
X33269104Y-93833333D02*
X33411961Y-93880952D01*
X33411961Y-93880952D02*
X33507200Y-93976190D01*
X33507200Y-93976190D02*
X33554819Y-94119047D01*
X33554819Y-94119047D02*
X33554819Y-94214285D01*
X32554819Y-93452380D02*
X32554819Y-92785714D01*
X32554819Y-92785714D02*
X33554819Y-93214285D01*
X70869819Y-140091792D02*
X70393628Y-140425125D01*
X70869819Y-140663220D02*
X69869819Y-140663220D01*
X69869819Y-140663220D02*
X69869819Y-140282268D01*
X69869819Y-140282268D02*
X69917438Y-140187030D01*
X69917438Y-140187030D02*
X69965057Y-140139411D01*
X69965057Y-140139411D02*
X70060295Y-140091792D01*
X70060295Y-140091792D02*
X70203152Y-140091792D01*
X70203152Y-140091792D02*
X70298390Y-140139411D01*
X70298390Y-140139411D02*
X70346009Y-140187030D01*
X70346009Y-140187030D02*
X70393628Y-140282268D01*
X70393628Y-140282268D02*
X70393628Y-140663220D01*
X69869819Y-139806077D02*
X70869819Y-139472744D01*
X70869819Y-139472744D02*
X69869819Y-139139411D01*
X69965057Y-138853696D02*
X69917438Y-138806077D01*
X69917438Y-138806077D02*
X69869819Y-138710839D01*
X69869819Y-138710839D02*
X69869819Y-138472744D01*
X69869819Y-138472744D02*
X69917438Y-138377506D01*
X69917438Y-138377506D02*
X69965057Y-138329887D01*
X69965057Y-138329887D02*
X70060295Y-138282268D01*
X70060295Y-138282268D02*
X70155533Y-138282268D01*
X70155533Y-138282268D02*
X70298390Y-138329887D01*
X70298390Y-138329887D02*
X70869819Y-138901315D01*
X70869819Y-138901315D02*
X70869819Y-138282268D01*
X120954819Y-141595238D02*
X120478628Y-141928571D01*
X120954819Y-142166666D02*
X119954819Y-142166666D01*
X119954819Y-142166666D02*
X119954819Y-141785714D01*
X119954819Y-141785714D02*
X120002438Y-141690476D01*
X120002438Y-141690476D02*
X120050057Y-141642857D01*
X120050057Y-141642857D02*
X120145295Y-141595238D01*
X120145295Y-141595238D02*
X120288152Y-141595238D01*
X120288152Y-141595238D02*
X120383390Y-141642857D01*
X120383390Y-141642857D02*
X120431009Y-141690476D01*
X120431009Y-141690476D02*
X120478628Y-141785714D01*
X120478628Y-141785714D02*
X120478628Y-142166666D01*
X119954819Y-141309523D02*
X120954819Y-140976190D01*
X120954819Y-140976190D02*
X119954819Y-140642857D01*
X120288152Y-139880952D02*
X120954819Y-139880952D01*
X119907200Y-140119047D02*
X120621485Y-140357142D01*
X120621485Y-140357142D02*
X120621485Y-139738095D01*
X71554819Y-94309523D02*
X72269104Y-94309523D01*
X72269104Y-94309523D02*
X72411961Y-94357142D01*
X72411961Y-94357142D02*
X72507200Y-94452380D01*
X72507200Y-94452380D02*
X72554819Y-94595237D01*
X72554819Y-94595237D02*
X72554819Y-94690475D01*
X72554819Y-93309523D02*
X72554819Y-93880951D01*
X72554819Y-93595237D02*
X71554819Y-93595237D01*
X71554819Y-93595237D02*
X71697676Y-93690475D01*
X71697676Y-93690475D02*
X71792914Y-93785713D01*
X71792914Y-93785713D02*
X71840533Y-93880951D01*
X71983390Y-92738094D02*
X71935771Y-92833332D01*
X71935771Y-92833332D02*
X71888152Y-92880951D01*
X71888152Y-92880951D02*
X71792914Y-92928570D01*
X71792914Y-92928570D02*
X71745295Y-92928570D01*
X71745295Y-92928570D02*
X71650057Y-92880951D01*
X71650057Y-92880951D02*
X71602438Y-92833332D01*
X71602438Y-92833332D02*
X71554819Y-92738094D01*
X71554819Y-92738094D02*
X71554819Y-92547618D01*
X71554819Y-92547618D02*
X71602438Y-92452380D01*
X71602438Y-92452380D02*
X71650057Y-92404761D01*
X71650057Y-92404761D02*
X71745295Y-92357142D01*
X71745295Y-92357142D02*
X71792914Y-92357142D01*
X71792914Y-92357142D02*
X71888152Y-92404761D01*
X71888152Y-92404761D02*
X71935771Y-92452380D01*
X71935771Y-92452380D02*
X71983390Y-92547618D01*
X71983390Y-92547618D02*
X71983390Y-92738094D01*
X71983390Y-92738094D02*
X72031009Y-92833332D01*
X72031009Y-92833332D02*
X72078628Y-92880951D01*
X72078628Y-92880951D02*
X72173866Y-92928570D01*
X72173866Y-92928570D02*
X72364342Y-92928570D01*
X72364342Y-92928570D02*
X72459580Y-92880951D01*
X72459580Y-92880951D02*
X72507200Y-92833332D01*
X72507200Y-92833332D02*
X72554819Y-92738094D01*
X72554819Y-92738094D02*
X72554819Y-92547618D01*
X72554819Y-92547618D02*
X72507200Y-92452380D01*
X72507200Y-92452380D02*
X72459580Y-92404761D01*
X72459580Y-92404761D02*
X72364342Y-92357142D01*
X72364342Y-92357142D02*
X72173866Y-92357142D01*
X72173866Y-92357142D02*
X72078628Y-92404761D01*
X72078628Y-92404761D02*
X72031009Y-92452380D01*
X72031009Y-92452380D02*
X71983390Y-92547618D01*
X106753333Y-125824819D02*
X106420000Y-125348628D01*
X106181905Y-125824819D02*
X106181905Y-124824819D01*
X106181905Y-124824819D02*
X106562857Y-124824819D01*
X106562857Y-124824819D02*
X106658095Y-124872438D01*
X106658095Y-124872438D02*
X106705714Y-124920057D01*
X106705714Y-124920057D02*
X106753333Y-125015295D01*
X106753333Y-125015295D02*
X106753333Y-125158152D01*
X106753333Y-125158152D02*
X106705714Y-125253390D01*
X106705714Y-125253390D02*
X106658095Y-125301009D01*
X106658095Y-125301009D02*
X106562857Y-125348628D01*
X106562857Y-125348628D02*
X106181905Y-125348628D01*
X107610476Y-125158152D02*
X107610476Y-125824819D01*
X107372381Y-124777200D02*
X107134286Y-125491485D01*
X107134286Y-125491485D02*
X107753333Y-125491485D01*
X53084819Y-127336666D02*
X52608628Y-127669999D01*
X53084819Y-127908094D02*
X52084819Y-127908094D01*
X52084819Y-127908094D02*
X52084819Y-127527142D01*
X52084819Y-127527142D02*
X52132438Y-127431904D01*
X52132438Y-127431904D02*
X52180057Y-127384285D01*
X52180057Y-127384285D02*
X52275295Y-127336666D01*
X52275295Y-127336666D02*
X52418152Y-127336666D01*
X52418152Y-127336666D02*
X52513390Y-127384285D01*
X52513390Y-127384285D02*
X52561009Y-127431904D01*
X52561009Y-127431904D02*
X52608628Y-127527142D01*
X52608628Y-127527142D02*
X52608628Y-127908094D01*
X52084819Y-127003332D02*
X52084819Y-126384285D01*
X52084819Y-126384285D02*
X52465771Y-126717618D01*
X52465771Y-126717618D02*
X52465771Y-126574761D01*
X52465771Y-126574761D02*
X52513390Y-126479523D01*
X52513390Y-126479523D02*
X52561009Y-126431904D01*
X52561009Y-126431904D02*
X52656247Y-126384285D01*
X52656247Y-126384285D02*
X52894342Y-126384285D01*
X52894342Y-126384285D02*
X52989580Y-126431904D01*
X52989580Y-126431904D02*
X53037200Y-126479523D01*
X53037200Y-126479523D02*
X53084819Y-126574761D01*
X53084819Y-126574761D02*
X53084819Y-126860475D01*
X53084819Y-126860475D02*
X53037200Y-126955713D01*
X53037200Y-126955713D02*
X52989580Y-127003332D01*
X66054819Y-94309523D02*
X66769104Y-94309523D01*
X66769104Y-94309523D02*
X66911961Y-94357142D01*
X66911961Y-94357142D02*
X67007200Y-94452380D01*
X67007200Y-94452380D02*
X67054819Y-94595237D01*
X67054819Y-94595237D02*
X67054819Y-94690475D01*
X67054819Y-93309523D02*
X67054819Y-93880951D01*
X67054819Y-93595237D02*
X66054819Y-93595237D01*
X66054819Y-93595237D02*
X66197676Y-93690475D01*
X66197676Y-93690475D02*
X66292914Y-93785713D01*
X66292914Y-93785713D02*
X66340533Y-93880951D01*
X66054819Y-92976189D02*
X66054819Y-92309523D01*
X66054819Y-92309523D02*
X67054819Y-92738094D01*
X161333333Y-130034819D02*
X161000000Y-129558628D01*
X160761905Y-130034819D02*
X160761905Y-129034819D01*
X160761905Y-129034819D02*
X161142857Y-129034819D01*
X161142857Y-129034819D02*
X161238095Y-129082438D01*
X161238095Y-129082438D02*
X161285714Y-129130057D01*
X161285714Y-129130057D02*
X161333333Y-129225295D01*
X161333333Y-129225295D02*
X161333333Y-129368152D01*
X161333333Y-129368152D02*
X161285714Y-129463390D01*
X161285714Y-129463390D02*
X161238095Y-129511009D01*
X161238095Y-129511009D02*
X161142857Y-129558628D01*
X161142857Y-129558628D02*
X160761905Y-129558628D01*
X161666667Y-129034819D02*
X162333333Y-129034819D01*
X162333333Y-129034819D02*
X161904762Y-130034819D01*
X202738095Y-92754819D02*
X202738095Y-91754819D01*
X202738095Y-92231009D02*
X203309523Y-92231009D01*
X203309523Y-92754819D02*
X203309523Y-91754819D01*
X203690476Y-91754819D02*
X204357142Y-91754819D01*
X204357142Y-91754819D02*
X203928571Y-92754819D01*
X55554819Y-94309523D02*
X56269104Y-94309523D01*
X56269104Y-94309523D02*
X56411961Y-94357142D01*
X56411961Y-94357142D02*
X56507200Y-94452380D01*
X56507200Y-94452380D02*
X56554819Y-94595237D01*
X56554819Y-94595237D02*
X56554819Y-94690475D01*
X56554819Y-93309523D02*
X56554819Y-93880951D01*
X56554819Y-93595237D02*
X55554819Y-93595237D01*
X55554819Y-93595237D02*
X55697676Y-93690475D01*
X55697676Y-93690475D02*
X55792914Y-93785713D01*
X55792914Y-93785713D02*
X55840533Y-93880951D01*
X55554819Y-92690475D02*
X55554819Y-92595237D01*
X55554819Y-92595237D02*
X55602438Y-92499999D01*
X55602438Y-92499999D02*
X55650057Y-92452380D01*
X55650057Y-92452380D02*
X55745295Y-92404761D01*
X55745295Y-92404761D02*
X55935771Y-92357142D01*
X55935771Y-92357142D02*
X56173866Y-92357142D01*
X56173866Y-92357142D02*
X56364342Y-92404761D01*
X56364342Y-92404761D02*
X56459580Y-92452380D01*
X56459580Y-92452380D02*
X56507200Y-92499999D01*
X56507200Y-92499999D02*
X56554819Y-92595237D01*
X56554819Y-92595237D02*
X56554819Y-92690475D01*
X56554819Y-92690475D02*
X56507200Y-92785713D01*
X56507200Y-92785713D02*
X56459580Y-92833332D01*
X56459580Y-92833332D02*
X56364342Y-92880951D01*
X56364342Y-92880951D02*
X56173866Y-92928570D01*
X56173866Y-92928570D02*
X55935771Y-92928570D01*
X55935771Y-92928570D02*
X55745295Y-92880951D01*
X55745295Y-92880951D02*
X55650057Y-92833332D01*
X55650057Y-92833332D02*
X55602438Y-92785713D01*
X55602438Y-92785713D02*
X55554819Y-92690475D01*
X77054819Y-94309523D02*
X77769104Y-94309523D01*
X77769104Y-94309523D02*
X77911961Y-94357142D01*
X77911961Y-94357142D02*
X78007200Y-94452380D01*
X78007200Y-94452380D02*
X78054819Y-94595237D01*
X78054819Y-94595237D02*
X78054819Y-94690475D01*
X78054819Y-93309523D02*
X78054819Y-93880951D01*
X78054819Y-93595237D02*
X77054819Y-93595237D01*
X77054819Y-93595237D02*
X77197676Y-93690475D01*
X77197676Y-93690475D02*
X77292914Y-93785713D01*
X77292914Y-93785713D02*
X77340533Y-93880951D01*
X78054819Y-92833332D02*
X78054819Y-92642856D01*
X78054819Y-92642856D02*
X78007200Y-92547618D01*
X78007200Y-92547618D02*
X77959580Y-92499999D01*
X77959580Y-92499999D02*
X77816723Y-92404761D01*
X77816723Y-92404761D02*
X77626247Y-92357142D01*
X77626247Y-92357142D02*
X77245295Y-92357142D01*
X77245295Y-92357142D02*
X77150057Y-92404761D01*
X77150057Y-92404761D02*
X77102438Y-92452380D01*
X77102438Y-92452380D02*
X77054819Y-92547618D01*
X77054819Y-92547618D02*
X77054819Y-92738094D01*
X77054819Y-92738094D02*
X77102438Y-92833332D01*
X77102438Y-92833332D02*
X77150057Y-92880951D01*
X77150057Y-92880951D02*
X77245295Y-92928570D01*
X77245295Y-92928570D02*
X77483390Y-92928570D01*
X77483390Y-92928570D02*
X77578628Y-92880951D01*
X77578628Y-92880951D02*
X77626247Y-92833332D01*
X77626247Y-92833332D02*
X77673866Y-92738094D01*
X77673866Y-92738094D02*
X77673866Y-92547618D01*
X77673866Y-92547618D02*
X77626247Y-92452380D01*
X77626247Y-92452380D02*
X77578628Y-92404761D01*
X77578628Y-92404761D02*
X77483390Y-92357142D01*
X97859580Y-127166666D02*
X97907200Y-127214285D01*
X97907200Y-127214285D02*
X97954819Y-127357142D01*
X97954819Y-127357142D02*
X97954819Y-127452380D01*
X97954819Y-127452380D02*
X97907200Y-127595237D01*
X97907200Y-127595237D02*
X97811961Y-127690475D01*
X97811961Y-127690475D02*
X97716723Y-127738094D01*
X97716723Y-127738094D02*
X97526247Y-127785713D01*
X97526247Y-127785713D02*
X97383390Y-127785713D01*
X97383390Y-127785713D02*
X97192914Y-127738094D01*
X97192914Y-127738094D02*
X97097676Y-127690475D01*
X97097676Y-127690475D02*
X97002438Y-127595237D01*
X97002438Y-127595237D02*
X96954819Y-127452380D01*
X96954819Y-127452380D02*
X96954819Y-127357142D01*
X96954819Y-127357142D02*
X97002438Y-127214285D01*
X97002438Y-127214285D02*
X97050057Y-127166666D01*
X97050057Y-126785713D02*
X97002438Y-126738094D01*
X97002438Y-126738094D02*
X96954819Y-126642856D01*
X96954819Y-126642856D02*
X96954819Y-126404761D01*
X96954819Y-126404761D02*
X97002438Y-126309523D01*
X97002438Y-126309523D02*
X97050057Y-126261904D01*
X97050057Y-126261904D02*
X97145295Y-126214285D01*
X97145295Y-126214285D02*
X97240533Y-126214285D01*
X97240533Y-126214285D02*
X97383390Y-126261904D01*
X97383390Y-126261904D02*
X97954819Y-126833332D01*
X97954819Y-126833332D02*
X97954819Y-126214285D01*
X107454819Y-117309523D02*
X108169104Y-117309523D01*
X108169104Y-117309523D02*
X108311961Y-117357142D01*
X108311961Y-117357142D02*
X108407200Y-117452380D01*
X108407200Y-117452380D02*
X108454819Y-117595237D01*
X108454819Y-117595237D02*
X108454819Y-117690475D01*
X107550057Y-116880951D02*
X107502438Y-116833332D01*
X107502438Y-116833332D02*
X107454819Y-116738094D01*
X107454819Y-116738094D02*
X107454819Y-116499999D01*
X107454819Y-116499999D02*
X107502438Y-116404761D01*
X107502438Y-116404761D02*
X107550057Y-116357142D01*
X107550057Y-116357142D02*
X107645295Y-116309523D01*
X107645295Y-116309523D02*
X107740533Y-116309523D01*
X107740533Y-116309523D02*
X107883390Y-116357142D01*
X107883390Y-116357142D02*
X108454819Y-116928570D01*
X108454819Y-116928570D02*
X108454819Y-116309523D01*
X107550057Y-115928570D02*
X107502438Y-115880951D01*
X107502438Y-115880951D02*
X107454819Y-115785713D01*
X107454819Y-115785713D02*
X107454819Y-115547618D01*
X107454819Y-115547618D02*
X107502438Y-115452380D01*
X107502438Y-115452380D02*
X107550057Y-115404761D01*
X107550057Y-115404761D02*
X107645295Y-115357142D01*
X107645295Y-115357142D02*
X107740533Y-115357142D01*
X107740533Y-115357142D02*
X107883390Y-115404761D01*
X107883390Y-115404761D02*
X108454819Y-115976189D01*
X108454819Y-115976189D02*
X108454819Y-115357142D01*
X87554819Y-93833333D02*
X88269104Y-93833333D01*
X88269104Y-93833333D02*
X88411961Y-93880952D01*
X88411961Y-93880952D02*
X88507200Y-93976190D01*
X88507200Y-93976190D02*
X88554819Y-94119047D01*
X88554819Y-94119047D02*
X88554819Y-94214285D01*
X87983390Y-93214285D02*
X87935771Y-93309523D01*
X87935771Y-93309523D02*
X87888152Y-93357142D01*
X87888152Y-93357142D02*
X87792914Y-93404761D01*
X87792914Y-93404761D02*
X87745295Y-93404761D01*
X87745295Y-93404761D02*
X87650057Y-93357142D01*
X87650057Y-93357142D02*
X87602438Y-93309523D01*
X87602438Y-93309523D02*
X87554819Y-93214285D01*
X87554819Y-93214285D02*
X87554819Y-93023809D01*
X87554819Y-93023809D02*
X87602438Y-92928571D01*
X87602438Y-92928571D02*
X87650057Y-92880952D01*
X87650057Y-92880952D02*
X87745295Y-92833333D01*
X87745295Y-92833333D02*
X87792914Y-92833333D01*
X87792914Y-92833333D02*
X87888152Y-92880952D01*
X87888152Y-92880952D02*
X87935771Y-92928571D01*
X87935771Y-92928571D02*
X87983390Y-93023809D01*
X87983390Y-93023809D02*
X87983390Y-93214285D01*
X87983390Y-93214285D02*
X88031009Y-93309523D01*
X88031009Y-93309523D02*
X88078628Y-93357142D01*
X88078628Y-93357142D02*
X88173866Y-93404761D01*
X88173866Y-93404761D02*
X88364342Y-93404761D01*
X88364342Y-93404761D02*
X88459580Y-93357142D01*
X88459580Y-93357142D02*
X88507200Y-93309523D01*
X88507200Y-93309523D02*
X88554819Y-93214285D01*
X88554819Y-93214285D02*
X88554819Y-93023809D01*
X88554819Y-93023809D02*
X88507200Y-92928571D01*
X88507200Y-92928571D02*
X88459580Y-92880952D01*
X88459580Y-92880952D02*
X88364342Y-92833333D01*
X88364342Y-92833333D02*
X88173866Y-92833333D01*
X88173866Y-92833333D02*
X88078628Y-92880952D01*
X88078628Y-92880952D02*
X88031009Y-92928571D01*
X88031009Y-92928571D02*
X87983390Y-93023809D01*
X158404761Y-123550057D02*
X158309523Y-123502438D01*
X158309523Y-123502438D02*
X158214285Y-123407200D01*
X158214285Y-123407200D02*
X158071428Y-123264342D01*
X158071428Y-123264342D02*
X157976190Y-123216723D01*
X157976190Y-123216723D02*
X157880952Y-123216723D01*
X157928571Y-123454819D02*
X157833333Y-123407200D01*
X157833333Y-123407200D02*
X157738095Y-123311961D01*
X157738095Y-123311961D02*
X157690476Y-123121485D01*
X157690476Y-123121485D02*
X157690476Y-122788152D01*
X157690476Y-122788152D02*
X157738095Y-122597676D01*
X157738095Y-122597676D02*
X157833333Y-122502438D01*
X157833333Y-122502438D02*
X157928571Y-122454819D01*
X157928571Y-122454819D02*
X158119047Y-122454819D01*
X158119047Y-122454819D02*
X158214285Y-122502438D01*
X158214285Y-122502438D02*
X158309523Y-122597676D01*
X158309523Y-122597676D02*
X158357142Y-122788152D01*
X158357142Y-122788152D02*
X158357142Y-123121485D01*
X158357142Y-123121485D02*
X158309523Y-123311961D01*
X158309523Y-123311961D02*
X158214285Y-123407200D01*
X158214285Y-123407200D02*
X158119047Y-123454819D01*
X158119047Y-123454819D02*
X157928571Y-123454819D01*
X159309523Y-123454819D02*
X158738095Y-123454819D01*
X159023809Y-123454819D02*
X159023809Y-122454819D01*
X159023809Y-122454819D02*
X158928571Y-122597676D01*
X158928571Y-122597676D02*
X158833333Y-122692914D01*
X158833333Y-122692914D02*
X158738095Y-122740533D01*
X44054819Y-93833333D02*
X44769104Y-93833333D01*
X44769104Y-93833333D02*
X44911961Y-93880952D01*
X44911961Y-93880952D02*
X45007200Y-93976190D01*
X45007200Y-93976190D02*
X45054819Y-94119047D01*
X45054819Y-94119047D02*
X45054819Y-94214285D01*
X44388152Y-92928571D02*
X45054819Y-92928571D01*
X44007200Y-93166666D02*
X44721485Y-93404761D01*
X44721485Y-93404761D02*
X44721485Y-92785714D01*
X145238095Y-138254819D02*
X145238095Y-137254819D01*
X145238095Y-137731009D02*
X145809523Y-137731009D01*
X145809523Y-138254819D02*
X145809523Y-137254819D01*
X146714285Y-137254819D02*
X146523809Y-137254819D01*
X146523809Y-137254819D02*
X146428571Y-137302438D01*
X146428571Y-137302438D02*
X146380952Y-137350057D01*
X146380952Y-137350057D02*
X146285714Y-137492914D01*
X146285714Y-137492914D02*
X146238095Y-137683390D01*
X146238095Y-137683390D02*
X146238095Y-138064342D01*
X146238095Y-138064342D02*
X146285714Y-138159580D01*
X146285714Y-138159580D02*
X146333333Y-138207200D01*
X146333333Y-138207200D02*
X146428571Y-138254819D01*
X146428571Y-138254819D02*
X146619047Y-138254819D01*
X146619047Y-138254819D02*
X146714285Y-138207200D01*
X146714285Y-138207200D02*
X146761904Y-138159580D01*
X146761904Y-138159580D02*
X146809523Y-138064342D01*
X146809523Y-138064342D02*
X146809523Y-137826247D01*
X146809523Y-137826247D02*
X146761904Y-137731009D01*
X146761904Y-137731009D02*
X146714285Y-137683390D01*
X146714285Y-137683390D02*
X146619047Y-137635771D01*
X146619047Y-137635771D02*
X146428571Y-137635771D01*
X146428571Y-137635771D02*
X146333333Y-137683390D01*
X146333333Y-137683390D02*
X146285714Y-137731009D01*
X146285714Y-137731009D02*
X146238095Y-137826247D01*
X192364761Y-123610057D02*
X192269523Y-123562438D01*
X192269523Y-123562438D02*
X192174285Y-123467200D01*
X192174285Y-123467200D02*
X192031428Y-123324342D01*
X192031428Y-123324342D02*
X191936190Y-123276723D01*
X191936190Y-123276723D02*
X191840952Y-123276723D01*
X191888571Y-123514819D02*
X191793333Y-123467200D01*
X191793333Y-123467200D02*
X191698095Y-123371961D01*
X191698095Y-123371961D02*
X191650476Y-123181485D01*
X191650476Y-123181485D02*
X191650476Y-122848152D01*
X191650476Y-122848152D02*
X191698095Y-122657676D01*
X191698095Y-122657676D02*
X191793333Y-122562438D01*
X191793333Y-122562438D02*
X191888571Y-122514819D01*
X191888571Y-122514819D02*
X192079047Y-122514819D01*
X192079047Y-122514819D02*
X192174285Y-122562438D01*
X192174285Y-122562438D02*
X192269523Y-122657676D01*
X192269523Y-122657676D02*
X192317142Y-122848152D01*
X192317142Y-122848152D02*
X192317142Y-123181485D01*
X192317142Y-123181485D02*
X192269523Y-123371961D01*
X192269523Y-123371961D02*
X192174285Y-123467200D01*
X192174285Y-123467200D02*
X192079047Y-123514819D01*
X192079047Y-123514819D02*
X191888571Y-123514819D01*
X192698095Y-122610057D02*
X192745714Y-122562438D01*
X192745714Y-122562438D02*
X192840952Y-122514819D01*
X192840952Y-122514819D02*
X193079047Y-122514819D01*
X193079047Y-122514819D02*
X193174285Y-122562438D01*
X193174285Y-122562438D02*
X193221904Y-122610057D01*
X193221904Y-122610057D02*
X193269523Y-122705295D01*
X193269523Y-122705295D02*
X193269523Y-122800533D01*
X193269523Y-122800533D02*
X193221904Y-122943390D01*
X193221904Y-122943390D02*
X192650476Y-123514819D01*
X192650476Y-123514819D02*
X193269523Y-123514819D01*
X196154819Y-141595238D02*
X195678628Y-141928571D01*
X196154819Y-142166666D02*
X195154819Y-142166666D01*
X195154819Y-142166666D02*
X195154819Y-141785714D01*
X195154819Y-141785714D02*
X195202438Y-141690476D01*
X195202438Y-141690476D02*
X195250057Y-141642857D01*
X195250057Y-141642857D02*
X195345295Y-141595238D01*
X195345295Y-141595238D02*
X195488152Y-141595238D01*
X195488152Y-141595238D02*
X195583390Y-141642857D01*
X195583390Y-141642857D02*
X195631009Y-141690476D01*
X195631009Y-141690476D02*
X195678628Y-141785714D01*
X195678628Y-141785714D02*
X195678628Y-142166666D01*
X195154819Y-141309523D02*
X196154819Y-140976190D01*
X196154819Y-140976190D02*
X195154819Y-140642857D01*
X195154819Y-140404761D02*
X195154819Y-139738095D01*
X195154819Y-139738095D02*
X196154819Y-140166666D01*
X141954819Y-141595238D02*
X141478628Y-141928571D01*
X141954819Y-142166666D02*
X140954819Y-142166666D01*
X140954819Y-142166666D02*
X140954819Y-141785714D01*
X140954819Y-141785714D02*
X141002438Y-141690476D01*
X141002438Y-141690476D02*
X141050057Y-141642857D01*
X141050057Y-141642857D02*
X141145295Y-141595238D01*
X141145295Y-141595238D02*
X141288152Y-141595238D01*
X141288152Y-141595238D02*
X141383390Y-141642857D01*
X141383390Y-141642857D02*
X141431009Y-141690476D01*
X141431009Y-141690476D02*
X141478628Y-141785714D01*
X141478628Y-141785714D02*
X141478628Y-142166666D01*
X140954819Y-141309523D02*
X141954819Y-140976190D01*
X141954819Y-140976190D02*
X140954819Y-140642857D01*
X140954819Y-139833333D02*
X140954819Y-140309523D01*
X140954819Y-140309523D02*
X141431009Y-140357142D01*
X141431009Y-140357142D02*
X141383390Y-140309523D01*
X141383390Y-140309523D02*
X141335771Y-140214285D01*
X141335771Y-140214285D02*
X141335771Y-139976190D01*
X141335771Y-139976190D02*
X141383390Y-139880952D01*
X141383390Y-139880952D02*
X141431009Y-139833333D01*
X141431009Y-139833333D02*
X141526247Y-139785714D01*
X141526247Y-139785714D02*
X141764342Y-139785714D01*
X141764342Y-139785714D02*
X141859580Y-139833333D01*
X141859580Y-139833333D02*
X141907200Y-139880952D01*
X141907200Y-139880952D02*
X141954819Y-139976190D01*
X141954819Y-139976190D02*
X141954819Y-140214285D01*
X141954819Y-140214285D02*
X141907200Y-140309523D01*
X141907200Y-140309523D02*
X141859580Y-140357142D01*
X204859580Y-114166666D02*
X204907200Y-114214285D01*
X204907200Y-114214285D02*
X204954819Y-114357142D01*
X204954819Y-114357142D02*
X204954819Y-114452380D01*
X204954819Y-114452380D02*
X204907200Y-114595237D01*
X204907200Y-114595237D02*
X204811961Y-114690475D01*
X204811961Y-114690475D02*
X204716723Y-114738094D01*
X204716723Y-114738094D02*
X204526247Y-114785713D01*
X204526247Y-114785713D02*
X204383390Y-114785713D01*
X204383390Y-114785713D02*
X204192914Y-114738094D01*
X204192914Y-114738094D02*
X204097676Y-114690475D01*
X204097676Y-114690475D02*
X204002438Y-114595237D01*
X204002438Y-114595237D02*
X203954819Y-114452380D01*
X203954819Y-114452380D02*
X203954819Y-114357142D01*
X203954819Y-114357142D02*
X204002438Y-114214285D01*
X204002438Y-114214285D02*
X204050057Y-114166666D01*
X204954819Y-113690475D02*
X204954819Y-113499999D01*
X204954819Y-113499999D02*
X204907200Y-113404761D01*
X204907200Y-113404761D02*
X204859580Y-113357142D01*
X204859580Y-113357142D02*
X204716723Y-113261904D01*
X204716723Y-113261904D02*
X204526247Y-113214285D01*
X204526247Y-113214285D02*
X204145295Y-113214285D01*
X204145295Y-113214285D02*
X204050057Y-113261904D01*
X204050057Y-113261904D02*
X204002438Y-113309523D01*
X204002438Y-113309523D02*
X203954819Y-113404761D01*
X203954819Y-113404761D02*
X203954819Y-113595237D01*
X203954819Y-113595237D02*
X204002438Y-113690475D01*
X204002438Y-113690475D02*
X204050057Y-113738094D01*
X204050057Y-113738094D02*
X204145295Y-113785713D01*
X204145295Y-113785713D02*
X204383390Y-113785713D01*
X204383390Y-113785713D02*
X204478628Y-113738094D01*
X204478628Y-113738094D02*
X204526247Y-113690475D01*
X204526247Y-113690475D02*
X204573866Y-113595237D01*
X204573866Y-113595237D02*
X204573866Y-113404761D01*
X204573866Y-113404761D02*
X204526247Y-113309523D01*
X204526247Y-113309523D02*
X204478628Y-113261904D01*
X204478628Y-113261904D02*
X204383390Y-113214285D01*
X149857142Y-117109580D02*
X149809523Y-117157200D01*
X149809523Y-117157200D02*
X149666666Y-117204819D01*
X149666666Y-117204819D02*
X149571428Y-117204819D01*
X149571428Y-117204819D02*
X149428571Y-117157200D01*
X149428571Y-117157200D02*
X149333333Y-117061961D01*
X149333333Y-117061961D02*
X149285714Y-116966723D01*
X149285714Y-116966723D02*
X149238095Y-116776247D01*
X149238095Y-116776247D02*
X149238095Y-116633390D01*
X149238095Y-116633390D02*
X149285714Y-116442914D01*
X149285714Y-116442914D02*
X149333333Y-116347676D01*
X149333333Y-116347676D02*
X149428571Y-116252438D01*
X149428571Y-116252438D02*
X149571428Y-116204819D01*
X149571428Y-116204819D02*
X149666666Y-116204819D01*
X149666666Y-116204819D02*
X149809523Y-116252438D01*
X149809523Y-116252438D02*
X149857142Y-116300057D01*
X150809523Y-117204819D02*
X150238095Y-117204819D01*
X150523809Y-117204819D02*
X150523809Y-116204819D01*
X150523809Y-116204819D02*
X150428571Y-116347676D01*
X150428571Y-116347676D02*
X150333333Y-116442914D01*
X150333333Y-116442914D02*
X150238095Y-116490533D01*
X151428571Y-116204819D02*
X151523809Y-116204819D01*
X151523809Y-116204819D02*
X151619047Y-116252438D01*
X151619047Y-116252438D02*
X151666666Y-116300057D01*
X151666666Y-116300057D02*
X151714285Y-116395295D01*
X151714285Y-116395295D02*
X151761904Y-116585771D01*
X151761904Y-116585771D02*
X151761904Y-116823866D01*
X151761904Y-116823866D02*
X151714285Y-117014342D01*
X151714285Y-117014342D02*
X151666666Y-117109580D01*
X151666666Y-117109580D02*
X151619047Y-117157200D01*
X151619047Y-117157200D02*
X151523809Y-117204819D01*
X151523809Y-117204819D02*
X151428571Y-117204819D01*
X151428571Y-117204819D02*
X151333333Y-117157200D01*
X151333333Y-117157200D02*
X151285714Y-117109580D01*
X151285714Y-117109580D02*
X151238095Y-117014342D01*
X151238095Y-117014342D02*
X151190476Y-116823866D01*
X151190476Y-116823866D02*
X151190476Y-116585771D01*
X151190476Y-116585771D02*
X151238095Y-116395295D01*
X151238095Y-116395295D02*
X151285714Y-116300057D01*
X151285714Y-116300057D02*
X151333333Y-116252438D01*
X151333333Y-116252438D02*
X151428571Y-116204819D01*
X23738095Y-137754819D02*
X23738095Y-136754819D01*
X23738095Y-137231009D02*
X24309523Y-137231009D01*
X24309523Y-137754819D02*
X24309523Y-136754819D01*
X24738095Y-136850057D02*
X24785714Y-136802438D01*
X24785714Y-136802438D02*
X24880952Y-136754819D01*
X24880952Y-136754819D02*
X25119047Y-136754819D01*
X25119047Y-136754819D02*
X25214285Y-136802438D01*
X25214285Y-136802438D02*
X25261904Y-136850057D01*
X25261904Y-136850057D02*
X25309523Y-136945295D01*
X25309523Y-136945295D02*
X25309523Y-137040533D01*
X25309523Y-137040533D02*
X25261904Y-137183390D01*
X25261904Y-137183390D02*
X24690476Y-137754819D01*
X24690476Y-137754819D02*
X25309523Y-137754819D01*
X124238095Y-92754819D02*
X124238095Y-91754819D01*
X124238095Y-92231009D02*
X124809523Y-92231009D01*
X124809523Y-92754819D02*
X124809523Y-91754819D01*
X125761904Y-91754819D02*
X125285714Y-91754819D01*
X125285714Y-91754819D02*
X125238095Y-92231009D01*
X125238095Y-92231009D02*
X125285714Y-92183390D01*
X125285714Y-92183390D02*
X125380952Y-92135771D01*
X125380952Y-92135771D02*
X125619047Y-92135771D01*
X125619047Y-92135771D02*
X125714285Y-92183390D01*
X125714285Y-92183390D02*
X125761904Y-92231009D01*
X125761904Y-92231009D02*
X125809523Y-92326247D01*
X125809523Y-92326247D02*
X125809523Y-92564342D01*
X125809523Y-92564342D02*
X125761904Y-92659580D01*
X125761904Y-92659580D02*
X125714285Y-92707200D01*
X125714285Y-92707200D02*
X125619047Y-92754819D01*
X125619047Y-92754819D02*
X125380952Y-92754819D01*
X125380952Y-92754819D02*
X125285714Y-92707200D01*
X125285714Y-92707200D02*
X125238095Y-92659580D01*
X181584819Y-111642857D02*
X181108628Y-111976190D01*
X181584819Y-112214285D02*
X180584819Y-112214285D01*
X180584819Y-112214285D02*
X180584819Y-111833333D01*
X180584819Y-111833333D02*
X180632438Y-111738095D01*
X180632438Y-111738095D02*
X180680057Y-111690476D01*
X180680057Y-111690476D02*
X180775295Y-111642857D01*
X180775295Y-111642857D02*
X180918152Y-111642857D01*
X180918152Y-111642857D02*
X181013390Y-111690476D01*
X181013390Y-111690476D02*
X181061009Y-111738095D01*
X181061009Y-111738095D02*
X181108628Y-111833333D01*
X181108628Y-111833333D02*
X181108628Y-112214285D01*
X181584819Y-110690476D02*
X181584819Y-111261904D01*
X181584819Y-110976190D02*
X180584819Y-110976190D01*
X180584819Y-110976190D02*
X180727676Y-111071428D01*
X180727676Y-111071428D02*
X180822914Y-111166666D01*
X180822914Y-111166666D02*
X180870533Y-111261904D01*
X181584819Y-109738095D02*
X181584819Y-110309523D01*
X181584819Y-110023809D02*
X180584819Y-110023809D01*
X180584819Y-110023809D02*
X180727676Y-110119047D01*
X180727676Y-110119047D02*
X180822914Y-110214285D01*
X180822914Y-110214285D02*
X180870533Y-110309523D01*
X179159580Y-121926666D02*
X179207200Y-121974285D01*
X179207200Y-121974285D02*
X179254819Y-122117142D01*
X179254819Y-122117142D02*
X179254819Y-122212380D01*
X179254819Y-122212380D02*
X179207200Y-122355237D01*
X179207200Y-122355237D02*
X179111961Y-122450475D01*
X179111961Y-122450475D02*
X179016723Y-122498094D01*
X179016723Y-122498094D02*
X178826247Y-122545713D01*
X178826247Y-122545713D02*
X178683390Y-122545713D01*
X178683390Y-122545713D02*
X178492914Y-122498094D01*
X178492914Y-122498094D02*
X178397676Y-122450475D01*
X178397676Y-122450475D02*
X178302438Y-122355237D01*
X178302438Y-122355237D02*
X178254819Y-122212380D01*
X178254819Y-122212380D02*
X178254819Y-122117142D01*
X178254819Y-122117142D02*
X178302438Y-121974285D01*
X178302438Y-121974285D02*
X178350057Y-121926666D01*
X178254819Y-121593332D02*
X178254819Y-120926666D01*
X178254819Y-120926666D02*
X179254819Y-121355237D01*
X171154819Y-141595238D02*
X170678628Y-141928571D01*
X171154819Y-142166666D02*
X170154819Y-142166666D01*
X170154819Y-142166666D02*
X170154819Y-141785714D01*
X170154819Y-141785714D02*
X170202438Y-141690476D01*
X170202438Y-141690476D02*
X170250057Y-141642857D01*
X170250057Y-141642857D02*
X170345295Y-141595238D01*
X170345295Y-141595238D02*
X170488152Y-141595238D01*
X170488152Y-141595238D02*
X170583390Y-141642857D01*
X170583390Y-141642857D02*
X170631009Y-141690476D01*
X170631009Y-141690476D02*
X170678628Y-141785714D01*
X170678628Y-141785714D02*
X170678628Y-142166666D01*
X170154819Y-141309523D02*
X171154819Y-140976190D01*
X171154819Y-140976190D02*
X170154819Y-140642857D01*
X170583390Y-140166666D02*
X170535771Y-140261904D01*
X170535771Y-140261904D02*
X170488152Y-140309523D01*
X170488152Y-140309523D02*
X170392914Y-140357142D01*
X170392914Y-140357142D02*
X170345295Y-140357142D01*
X170345295Y-140357142D02*
X170250057Y-140309523D01*
X170250057Y-140309523D02*
X170202438Y-140261904D01*
X170202438Y-140261904D02*
X170154819Y-140166666D01*
X170154819Y-140166666D02*
X170154819Y-139976190D01*
X170154819Y-139976190D02*
X170202438Y-139880952D01*
X170202438Y-139880952D02*
X170250057Y-139833333D01*
X170250057Y-139833333D02*
X170345295Y-139785714D01*
X170345295Y-139785714D02*
X170392914Y-139785714D01*
X170392914Y-139785714D02*
X170488152Y-139833333D01*
X170488152Y-139833333D02*
X170535771Y-139880952D01*
X170535771Y-139880952D02*
X170583390Y-139976190D01*
X170583390Y-139976190D02*
X170583390Y-140166666D01*
X170583390Y-140166666D02*
X170631009Y-140261904D01*
X170631009Y-140261904D02*
X170678628Y-140309523D01*
X170678628Y-140309523D02*
X170773866Y-140357142D01*
X170773866Y-140357142D02*
X170964342Y-140357142D01*
X170964342Y-140357142D02*
X171059580Y-140309523D01*
X171059580Y-140309523D02*
X171107200Y-140261904D01*
X171107200Y-140261904D02*
X171154819Y-140166666D01*
X171154819Y-140166666D02*
X171154819Y-139976190D01*
X171154819Y-139976190D02*
X171107200Y-139880952D01*
X171107200Y-139880952D02*
X171059580Y-139833333D01*
X171059580Y-139833333D02*
X170964342Y-139785714D01*
X170964342Y-139785714D02*
X170773866Y-139785714D01*
X170773866Y-139785714D02*
X170678628Y-139833333D01*
X170678628Y-139833333D02*
X170631009Y-139880952D01*
X170631009Y-139880952D02*
X170583390Y-139976190D01*
X49869819Y-140091792D02*
X49393628Y-140425125D01*
X49869819Y-140663220D02*
X48869819Y-140663220D01*
X48869819Y-140663220D02*
X48869819Y-140282268D01*
X48869819Y-140282268D02*
X48917438Y-140187030D01*
X48917438Y-140187030D02*
X48965057Y-140139411D01*
X48965057Y-140139411D02*
X49060295Y-140091792D01*
X49060295Y-140091792D02*
X49203152Y-140091792D01*
X49203152Y-140091792D02*
X49298390Y-140139411D01*
X49298390Y-140139411D02*
X49346009Y-140187030D01*
X49346009Y-140187030D02*
X49393628Y-140282268D01*
X49393628Y-140282268D02*
X49393628Y-140663220D01*
X48869819Y-139806077D02*
X49869819Y-139472744D01*
X49869819Y-139472744D02*
X48869819Y-139139411D01*
X49869819Y-138282268D02*
X49869819Y-138853696D01*
X49869819Y-138567982D02*
X48869819Y-138567982D01*
X48869819Y-138567982D02*
X49012676Y-138663220D01*
X49012676Y-138663220D02*
X49107914Y-138758458D01*
X49107914Y-138758458D02*
X49155533Y-138853696D01*
X74238095Y-138254819D02*
X74238095Y-137254819D01*
X74238095Y-137731009D02*
X74809523Y-137731009D01*
X74809523Y-138254819D02*
X74809523Y-137254819D01*
X75714285Y-137588152D02*
X75714285Y-138254819D01*
X75476190Y-137207200D02*
X75238095Y-137921485D01*
X75238095Y-137921485D02*
X75857142Y-137921485D01*
X156832915Y-108725688D02*
X156356724Y-109059021D01*
X156832915Y-109297116D02*
X155832915Y-109297116D01*
X155832915Y-109297116D02*
X155832915Y-108916164D01*
X155832915Y-108916164D02*
X155880534Y-108820926D01*
X155880534Y-108820926D02*
X155928153Y-108773307D01*
X155928153Y-108773307D02*
X156023391Y-108725688D01*
X156023391Y-108725688D02*
X156166248Y-108725688D01*
X156166248Y-108725688D02*
X156261486Y-108773307D01*
X156261486Y-108773307D02*
X156309105Y-108820926D01*
X156309105Y-108820926D02*
X156356724Y-108916164D01*
X156356724Y-108916164D02*
X156356724Y-109297116D01*
X156261486Y-108154259D02*
X156213867Y-108249497D01*
X156213867Y-108249497D02*
X156166248Y-108297116D01*
X156166248Y-108297116D02*
X156071010Y-108344735D01*
X156071010Y-108344735D02*
X156023391Y-108344735D01*
X156023391Y-108344735D02*
X155928153Y-108297116D01*
X155928153Y-108297116D02*
X155880534Y-108249497D01*
X155880534Y-108249497D02*
X155832915Y-108154259D01*
X155832915Y-108154259D02*
X155832915Y-107963783D01*
X155832915Y-107963783D02*
X155880534Y-107868545D01*
X155880534Y-107868545D02*
X155928153Y-107820926D01*
X155928153Y-107820926D02*
X156023391Y-107773307D01*
X156023391Y-107773307D02*
X156071010Y-107773307D01*
X156071010Y-107773307D02*
X156166248Y-107820926D01*
X156166248Y-107820926D02*
X156213867Y-107868545D01*
X156213867Y-107868545D02*
X156261486Y-107963783D01*
X156261486Y-107963783D02*
X156261486Y-108154259D01*
X156261486Y-108154259D02*
X156309105Y-108249497D01*
X156309105Y-108249497D02*
X156356724Y-108297116D01*
X156356724Y-108297116D02*
X156451962Y-108344735D01*
X156451962Y-108344735D02*
X156642438Y-108344735D01*
X156642438Y-108344735D02*
X156737676Y-108297116D01*
X156737676Y-108297116D02*
X156785296Y-108249497D01*
X156785296Y-108249497D02*
X156832915Y-108154259D01*
X156832915Y-108154259D02*
X156832915Y-107963783D01*
X156832915Y-107963783D02*
X156785296Y-107868545D01*
X156785296Y-107868545D02*
X156737676Y-107820926D01*
X156737676Y-107820926D02*
X156642438Y-107773307D01*
X156642438Y-107773307D02*
X156451962Y-107773307D01*
X156451962Y-107773307D02*
X156356724Y-107820926D01*
X156356724Y-107820926D02*
X156309105Y-107868545D01*
X156309105Y-107868545D02*
X156261486Y-107963783D01*
X188143333Y-129954819D02*
X187810000Y-129478628D01*
X187571905Y-129954819D02*
X187571905Y-128954819D01*
X187571905Y-128954819D02*
X187952857Y-128954819D01*
X187952857Y-128954819D02*
X188048095Y-129002438D01*
X188048095Y-129002438D02*
X188095714Y-129050057D01*
X188095714Y-129050057D02*
X188143333Y-129145295D01*
X188143333Y-129145295D02*
X188143333Y-129288152D01*
X188143333Y-129288152D02*
X188095714Y-129383390D01*
X188095714Y-129383390D02*
X188048095Y-129431009D01*
X188048095Y-129431009D02*
X187952857Y-129478628D01*
X187952857Y-129478628D02*
X187571905Y-129478628D01*
X189000476Y-128954819D02*
X188810000Y-128954819D01*
X188810000Y-128954819D02*
X188714762Y-129002438D01*
X188714762Y-129002438D02*
X188667143Y-129050057D01*
X188667143Y-129050057D02*
X188571905Y-129192914D01*
X188571905Y-129192914D02*
X188524286Y-129383390D01*
X188524286Y-129383390D02*
X188524286Y-129764342D01*
X188524286Y-129764342D02*
X188571905Y-129859580D01*
X188571905Y-129859580D02*
X188619524Y-129907200D01*
X188619524Y-129907200D02*
X188714762Y-129954819D01*
X188714762Y-129954819D02*
X188905238Y-129954819D01*
X188905238Y-129954819D02*
X189000476Y-129907200D01*
X189000476Y-129907200D02*
X189048095Y-129859580D01*
X189048095Y-129859580D02*
X189095714Y-129764342D01*
X189095714Y-129764342D02*
X189095714Y-129526247D01*
X189095714Y-129526247D02*
X189048095Y-129431009D01*
X189048095Y-129431009D02*
X189000476Y-129383390D01*
X189000476Y-129383390D02*
X188905238Y-129335771D01*
X188905238Y-129335771D02*
X188714762Y-129335771D01*
X188714762Y-129335771D02*
X188619524Y-129383390D01*
X188619524Y-129383390D02*
X188571905Y-129431009D01*
X188571905Y-129431009D02*
X188524286Y-129526247D01*
X198824819Y-109642857D02*
X198348628Y-109976190D01*
X198824819Y-110214285D02*
X197824819Y-110214285D01*
X197824819Y-110214285D02*
X197824819Y-109833333D01*
X197824819Y-109833333D02*
X197872438Y-109738095D01*
X197872438Y-109738095D02*
X197920057Y-109690476D01*
X197920057Y-109690476D02*
X198015295Y-109642857D01*
X198015295Y-109642857D02*
X198158152Y-109642857D01*
X198158152Y-109642857D02*
X198253390Y-109690476D01*
X198253390Y-109690476D02*
X198301009Y-109738095D01*
X198301009Y-109738095D02*
X198348628Y-109833333D01*
X198348628Y-109833333D02*
X198348628Y-110214285D01*
X198824819Y-108690476D02*
X198824819Y-109261904D01*
X198824819Y-108976190D02*
X197824819Y-108976190D01*
X197824819Y-108976190D02*
X197967676Y-109071428D01*
X197967676Y-109071428D02*
X198062914Y-109166666D01*
X198062914Y-109166666D02*
X198110533Y-109261904D01*
X198158152Y-107833333D02*
X198824819Y-107833333D01*
X197777200Y-108071428D02*
X198491485Y-108309523D01*
X198491485Y-108309523D02*
X198491485Y-107690476D01*
X102454819Y-117309523D02*
X103169104Y-117309523D01*
X103169104Y-117309523D02*
X103311961Y-117357142D01*
X103311961Y-117357142D02*
X103407200Y-117452380D01*
X103407200Y-117452380D02*
X103454819Y-117595237D01*
X103454819Y-117595237D02*
X103454819Y-117690475D01*
X102550057Y-116880951D02*
X102502438Y-116833332D01*
X102502438Y-116833332D02*
X102454819Y-116738094D01*
X102454819Y-116738094D02*
X102454819Y-116499999D01*
X102454819Y-116499999D02*
X102502438Y-116404761D01*
X102502438Y-116404761D02*
X102550057Y-116357142D01*
X102550057Y-116357142D02*
X102645295Y-116309523D01*
X102645295Y-116309523D02*
X102740533Y-116309523D01*
X102740533Y-116309523D02*
X102883390Y-116357142D01*
X102883390Y-116357142D02*
X103454819Y-116928570D01*
X103454819Y-116928570D02*
X103454819Y-116309523D01*
X102454819Y-115690475D02*
X102454819Y-115595237D01*
X102454819Y-115595237D02*
X102502438Y-115499999D01*
X102502438Y-115499999D02*
X102550057Y-115452380D01*
X102550057Y-115452380D02*
X102645295Y-115404761D01*
X102645295Y-115404761D02*
X102835771Y-115357142D01*
X102835771Y-115357142D02*
X103073866Y-115357142D01*
X103073866Y-115357142D02*
X103264342Y-115404761D01*
X103264342Y-115404761D02*
X103359580Y-115452380D01*
X103359580Y-115452380D02*
X103407200Y-115499999D01*
X103407200Y-115499999D02*
X103454819Y-115595237D01*
X103454819Y-115595237D02*
X103454819Y-115690475D01*
X103454819Y-115690475D02*
X103407200Y-115785713D01*
X103407200Y-115785713D02*
X103359580Y-115833332D01*
X103359580Y-115833332D02*
X103264342Y-115880951D01*
X103264342Y-115880951D02*
X103073866Y-115928570D01*
X103073866Y-115928570D02*
X102835771Y-115928570D01*
X102835771Y-115928570D02*
X102645295Y-115880951D01*
X102645295Y-115880951D02*
X102550057Y-115833332D01*
X102550057Y-115833332D02*
X102502438Y-115785713D01*
X102502438Y-115785713D02*
X102454819Y-115690475D01*
X199238095Y-140954819D02*
X199238095Y-139954819D01*
X199238095Y-140431009D02*
X199809523Y-140431009D01*
X199809523Y-140954819D02*
X199809523Y-139954819D01*
X200428571Y-140383390D02*
X200333333Y-140335771D01*
X200333333Y-140335771D02*
X200285714Y-140288152D01*
X200285714Y-140288152D02*
X200238095Y-140192914D01*
X200238095Y-140192914D02*
X200238095Y-140145295D01*
X200238095Y-140145295D02*
X200285714Y-140050057D01*
X200285714Y-140050057D02*
X200333333Y-140002438D01*
X200333333Y-140002438D02*
X200428571Y-139954819D01*
X200428571Y-139954819D02*
X200619047Y-139954819D01*
X200619047Y-139954819D02*
X200714285Y-140002438D01*
X200714285Y-140002438D02*
X200761904Y-140050057D01*
X200761904Y-140050057D02*
X200809523Y-140145295D01*
X200809523Y-140145295D02*
X200809523Y-140192914D01*
X200809523Y-140192914D02*
X200761904Y-140288152D01*
X200761904Y-140288152D02*
X200714285Y-140335771D01*
X200714285Y-140335771D02*
X200619047Y-140383390D01*
X200619047Y-140383390D02*
X200428571Y-140383390D01*
X200428571Y-140383390D02*
X200333333Y-140431009D01*
X200333333Y-140431009D02*
X200285714Y-140478628D01*
X200285714Y-140478628D02*
X200238095Y-140573866D01*
X200238095Y-140573866D02*
X200238095Y-140764342D01*
X200238095Y-140764342D02*
X200285714Y-140859580D01*
X200285714Y-140859580D02*
X200333333Y-140907200D01*
X200333333Y-140907200D02*
X200428571Y-140954819D01*
X200428571Y-140954819D02*
X200619047Y-140954819D01*
X200619047Y-140954819D02*
X200714285Y-140907200D01*
X200714285Y-140907200D02*
X200761904Y-140859580D01*
X200761904Y-140859580D02*
X200809523Y-140764342D01*
X200809523Y-140764342D02*
X200809523Y-140573866D01*
X200809523Y-140573866D02*
X200761904Y-140478628D01*
X200761904Y-140478628D02*
X200714285Y-140431009D01*
X200714285Y-140431009D02*
X200619047Y-140383390D01*
X147454819Y-127278094D02*
X146454819Y-127278094D01*
X146454819Y-127278094D02*
X146454819Y-127039999D01*
X146454819Y-127039999D02*
X146502438Y-126897142D01*
X146502438Y-126897142D02*
X146597676Y-126801904D01*
X146597676Y-126801904D02*
X146692914Y-126754285D01*
X146692914Y-126754285D02*
X146883390Y-126706666D01*
X146883390Y-126706666D02*
X147026247Y-126706666D01*
X147026247Y-126706666D02*
X147216723Y-126754285D01*
X147216723Y-126754285D02*
X147311961Y-126801904D01*
X147311961Y-126801904D02*
X147407200Y-126897142D01*
X147407200Y-126897142D02*
X147454819Y-127039999D01*
X147454819Y-127039999D02*
X147454819Y-127278094D01*
X146454819Y-126373332D02*
X146454819Y-125754285D01*
X146454819Y-125754285D02*
X146835771Y-126087618D01*
X146835771Y-126087618D02*
X146835771Y-125944761D01*
X146835771Y-125944761D02*
X146883390Y-125849523D01*
X146883390Y-125849523D02*
X146931009Y-125801904D01*
X146931009Y-125801904D02*
X147026247Y-125754285D01*
X147026247Y-125754285D02*
X147264342Y-125754285D01*
X147264342Y-125754285D02*
X147359580Y-125801904D01*
X147359580Y-125801904D02*
X147407200Y-125849523D01*
X147407200Y-125849523D02*
X147454819Y-125944761D01*
X147454819Y-125944761D02*
X147454819Y-126230475D01*
X147454819Y-126230475D02*
X147407200Y-126325713D01*
X147407200Y-126325713D02*
X147359580Y-126373332D01*
X165584819Y-111166666D02*
X165108628Y-111499999D01*
X165584819Y-111738094D02*
X164584819Y-111738094D01*
X164584819Y-111738094D02*
X164584819Y-111357142D01*
X164584819Y-111357142D02*
X164632438Y-111261904D01*
X164632438Y-111261904D02*
X164680057Y-111214285D01*
X164680057Y-111214285D02*
X164775295Y-111166666D01*
X164775295Y-111166666D02*
X164918152Y-111166666D01*
X164918152Y-111166666D02*
X165013390Y-111214285D01*
X165013390Y-111214285D02*
X165061009Y-111261904D01*
X165061009Y-111261904D02*
X165108628Y-111357142D01*
X165108628Y-111357142D02*
X165108628Y-111738094D01*
X165584819Y-110690475D02*
X165584819Y-110499999D01*
X165584819Y-110499999D02*
X165537200Y-110404761D01*
X165537200Y-110404761D02*
X165489580Y-110357142D01*
X165489580Y-110357142D02*
X165346723Y-110261904D01*
X165346723Y-110261904D02*
X165156247Y-110214285D01*
X165156247Y-110214285D02*
X164775295Y-110214285D01*
X164775295Y-110214285D02*
X164680057Y-110261904D01*
X164680057Y-110261904D02*
X164632438Y-110309523D01*
X164632438Y-110309523D02*
X164584819Y-110404761D01*
X164584819Y-110404761D02*
X164584819Y-110595237D01*
X164584819Y-110595237D02*
X164632438Y-110690475D01*
X164632438Y-110690475D02*
X164680057Y-110738094D01*
X164680057Y-110738094D02*
X164775295Y-110785713D01*
X164775295Y-110785713D02*
X165013390Y-110785713D01*
X165013390Y-110785713D02*
X165108628Y-110738094D01*
X165108628Y-110738094D02*
X165156247Y-110690475D01*
X165156247Y-110690475D02*
X165203866Y-110595237D01*
X165203866Y-110595237D02*
X165203866Y-110404761D01*
X165203866Y-110404761D02*
X165156247Y-110309523D01*
X165156247Y-110309523D02*
X165108628Y-110261904D01*
X165108628Y-110261904D02*
X165013390Y-110214285D01*
X177054819Y-94309523D02*
X177769104Y-94309523D01*
X177769104Y-94309523D02*
X177911961Y-94357142D01*
X177911961Y-94357142D02*
X178007200Y-94452380D01*
X178007200Y-94452380D02*
X178054819Y-94595237D01*
X178054819Y-94595237D02*
X178054819Y-94690475D01*
X177054819Y-93928570D02*
X177054819Y-93309523D01*
X177054819Y-93309523D02*
X177435771Y-93642856D01*
X177435771Y-93642856D02*
X177435771Y-93499999D01*
X177435771Y-93499999D02*
X177483390Y-93404761D01*
X177483390Y-93404761D02*
X177531009Y-93357142D01*
X177531009Y-93357142D02*
X177626247Y-93309523D01*
X177626247Y-93309523D02*
X177864342Y-93309523D01*
X177864342Y-93309523D02*
X177959580Y-93357142D01*
X177959580Y-93357142D02*
X178007200Y-93404761D01*
X178007200Y-93404761D02*
X178054819Y-93499999D01*
X178054819Y-93499999D02*
X178054819Y-93785713D01*
X178054819Y-93785713D02*
X178007200Y-93880951D01*
X178007200Y-93880951D02*
X177959580Y-93928570D01*
X177150057Y-92928570D02*
X177102438Y-92880951D01*
X177102438Y-92880951D02*
X177054819Y-92785713D01*
X177054819Y-92785713D02*
X177054819Y-92547618D01*
X177054819Y-92547618D02*
X177102438Y-92452380D01*
X177102438Y-92452380D02*
X177150057Y-92404761D01*
X177150057Y-92404761D02*
X177245295Y-92357142D01*
X177245295Y-92357142D02*
X177340533Y-92357142D01*
X177340533Y-92357142D02*
X177483390Y-92404761D01*
X177483390Y-92404761D02*
X178054819Y-92976189D01*
X178054819Y-92976189D02*
X178054819Y-92357142D01*
X168159580Y-121926666D02*
X168207200Y-121974285D01*
X168207200Y-121974285D02*
X168254819Y-122117142D01*
X168254819Y-122117142D02*
X168254819Y-122212380D01*
X168254819Y-122212380D02*
X168207200Y-122355237D01*
X168207200Y-122355237D02*
X168111961Y-122450475D01*
X168111961Y-122450475D02*
X168016723Y-122498094D01*
X168016723Y-122498094D02*
X167826247Y-122545713D01*
X167826247Y-122545713D02*
X167683390Y-122545713D01*
X167683390Y-122545713D02*
X167492914Y-122498094D01*
X167492914Y-122498094D02*
X167397676Y-122450475D01*
X167397676Y-122450475D02*
X167302438Y-122355237D01*
X167302438Y-122355237D02*
X167254819Y-122212380D01*
X167254819Y-122212380D02*
X167254819Y-122117142D01*
X167254819Y-122117142D02*
X167302438Y-121974285D01*
X167302438Y-121974285D02*
X167350057Y-121926666D01*
X167683390Y-121355237D02*
X167635771Y-121450475D01*
X167635771Y-121450475D02*
X167588152Y-121498094D01*
X167588152Y-121498094D02*
X167492914Y-121545713D01*
X167492914Y-121545713D02*
X167445295Y-121545713D01*
X167445295Y-121545713D02*
X167350057Y-121498094D01*
X167350057Y-121498094D02*
X167302438Y-121450475D01*
X167302438Y-121450475D02*
X167254819Y-121355237D01*
X167254819Y-121355237D02*
X167254819Y-121164761D01*
X167254819Y-121164761D02*
X167302438Y-121069523D01*
X167302438Y-121069523D02*
X167350057Y-121021904D01*
X167350057Y-121021904D02*
X167445295Y-120974285D01*
X167445295Y-120974285D02*
X167492914Y-120974285D01*
X167492914Y-120974285D02*
X167588152Y-121021904D01*
X167588152Y-121021904D02*
X167635771Y-121069523D01*
X167635771Y-121069523D02*
X167683390Y-121164761D01*
X167683390Y-121164761D02*
X167683390Y-121355237D01*
X167683390Y-121355237D02*
X167731009Y-121450475D01*
X167731009Y-121450475D02*
X167778628Y-121498094D01*
X167778628Y-121498094D02*
X167873866Y-121545713D01*
X167873866Y-121545713D02*
X168064342Y-121545713D01*
X168064342Y-121545713D02*
X168159580Y-121498094D01*
X168159580Y-121498094D02*
X168207200Y-121450475D01*
X168207200Y-121450475D02*
X168254819Y-121355237D01*
X168254819Y-121355237D02*
X168254819Y-121164761D01*
X168254819Y-121164761D02*
X168207200Y-121069523D01*
X168207200Y-121069523D02*
X168159580Y-121021904D01*
X168159580Y-121021904D02*
X168064342Y-120974285D01*
X168064342Y-120974285D02*
X167873866Y-120974285D01*
X167873866Y-120974285D02*
X167778628Y-121021904D01*
X167778628Y-121021904D02*
X167731009Y-121069523D01*
X167731009Y-121069523D02*
X167683390Y-121164761D01*
X37084819Y-120586666D02*
X36608628Y-120919999D01*
X37084819Y-121158094D02*
X36084819Y-121158094D01*
X36084819Y-121158094D02*
X36084819Y-120777142D01*
X36084819Y-120777142D02*
X36132438Y-120681904D01*
X36132438Y-120681904D02*
X36180057Y-120634285D01*
X36180057Y-120634285D02*
X36275295Y-120586666D01*
X36275295Y-120586666D02*
X36418152Y-120586666D01*
X36418152Y-120586666D02*
X36513390Y-120634285D01*
X36513390Y-120634285D02*
X36561009Y-120681904D01*
X36561009Y-120681904D02*
X36608628Y-120777142D01*
X36608628Y-120777142D02*
X36608628Y-121158094D01*
X36180057Y-120205713D02*
X36132438Y-120158094D01*
X36132438Y-120158094D02*
X36084819Y-120062856D01*
X36084819Y-120062856D02*
X36084819Y-119824761D01*
X36084819Y-119824761D02*
X36132438Y-119729523D01*
X36132438Y-119729523D02*
X36180057Y-119681904D01*
X36180057Y-119681904D02*
X36275295Y-119634285D01*
X36275295Y-119634285D02*
X36370533Y-119634285D01*
X36370533Y-119634285D02*
X36513390Y-119681904D01*
X36513390Y-119681904D02*
X37084819Y-120253332D01*
X37084819Y-120253332D02*
X37084819Y-119634285D01*
X115359580Y-129666666D02*
X115407200Y-129714285D01*
X115407200Y-129714285D02*
X115454819Y-129857142D01*
X115454819Y-129857142D02*
X115454819Y-129952380D01*
X115454819Y-129952380D02*
X115407200Y-130095237D01*
X115407200Y-130095237D02*
X115311961Y-130190475D01*
X115311961Y-130190475D02*
X115216723Y-130238094D01*
X115216723Y-130238094D02*
X115026247Y-130285713D01*
X115026247Y-130285713D02*
X114883390Y-130285713D01*
X114883390Y-130285713D02*
X114692914Y-130238094D01*
X114692914Y-130238094D02*
X114597676Y-130190475D01*
X114597676Y-130190475D02*
X114502438Y-130095237D01*
X114502438Y-130095237D02*
X114454819Y-129952380D01*
X114454819Y-129952380D02*
X114454819Y-129857142D01*
X114454819Y-129857142D02*
X114502438Y-129714285D01*
X114502438Y-129714285D02*
X114550057Y-129666666D01*
X114454819Y-129333332D02*
X114454819Y-128714285D01*
X114454819Y-128714285D02*
X114835771Y-129047618D01*
X114835771Y-129047618D02*
X114835771Y-128904761D01*
X114835771Y-128904761D02*
X114883390Y-128809523D01*
X114883390Y-128809523D02*
X114931009Y-128761904D01*
X114931009Y-128761904D02*
X115026247Y-128714285D01*
X115026247Y-128714285D02*
X115264342Y-128714285D01*
X115264342Y-128714285D02*
X115359580Y-128761904D01*
X115359580Y-128761904D02*
X115407200Y-128809523D01*
X115407200Y-128809523D02*
X115454819Y-128904761D01*
X115454819Y-128904761D02*
X115454819Y-129190475D01*
X115454819Y-129190475D02*
X115407200Y-129285713D01*
X115407200Y-129285713D02*
X115359580Y-129333332D01*
X154054819Y-93833333D02*
X154769104Y-93833333D01*
X154769104Y-93833333D02*
X154911961Y-93880952D01*
X154911961Y-93880952D02*
X155007200Y-93976190D01*
X155007200Y-93976190D02*
X155054819Y-94119047D01*
X155054819Y-94119047D02*
X155054819Y-94214285D01*
X154054819Y-92928571D02*
X154054819Y-93119047D01*
X154054819Y-93119047D02*
X154102438Y-93214285D01*
X154102438Y-93214285D02*
X154150057Y-93261904D01*
X154150057Y-93261904D02*
X154292914Y-93357142D01*
X154292914Y-93357142D02*
X154483390Y-93404761D01*
X154483390Y-93404761D02*
X154864342Y-93404761D01*
X154864342Y-93404761D02*
X154959580Y-93357142D01*
X154959580Y-93357142D02*
X155007200Y-93309523D01*
X155007200Y-93309523D02*
X155054819Y-93214285D01*
X155054819Y-93214285D02*
X155054819Y-93023809D01*
X155054819Y-93023809D02*
X155007200Y-92928571D01*
X155007200Y-92928571D02*
X154959580Y-92880952D01*
X154959580Y-92880952D02*
X154864342Y-92833333D01*
X154864342Y-92833333D02*
X154626247Y-92833333D01*
X154626247Y-92833333D02*
X154531009Y-92880952D01*
X154531009Y-92880952D02*
X154483390Y-92928571D01*
X154483390Y-92928571D02*
X154435771Y-93023809D01*
X154435771Y-93023809D02*
X154435771Y-93214285D01*
X154435771Y-93214285D02*
X154483390Y-93309523D01*
X154483390Y-93309523D02*
X154531009Y-93357142D01*
X154531009Y-93357142D02*
X154626247Y-93404761D01*
X176584819Y-111642857D02*
X176108628Y-111976190D01*
X176584819Y-112214285D02*
X175584819Y-112214285D01*
X175584819Y-112214285D02*
X175584819Y-111833333D01*
X175584819Y-111833333D02*
X175632438Y-111738095D01*
X175632438Y-111738095D02*
X175680057Y-111690476D01*
X175680057Y-111690476D02*
X175775295Y-111642857D01*
X175775295Y-111642857D02*
X175918152Y-111642857D01*
X175918152Y-111642857D02*
X176013390Y-111690476D01*
X176013390Y-111690476D02*
X176061009Y-111738095D01*
X176061009Y-111738095D02*
X176108628Y-111833333D01*
X176108628Y-111833333D02*
X176108628Y-112214285D01*
X176584819Y-110690476D02*
X176584819Y-111261904D01*
X176584819Y-110976190D02*
X175584819Y-110976190D01*
X175584819Y-110976190D02*
X175727676Y-111071428D01*
X175727676Y-111071428D02*
X175822914Y-111166666D01*
X175822914Y-111166666D02*
X175870533Y-111261904D01*
X175584819Y-110357142D02*
X175584819Y-109738095D01*
X175584819Y-109738095D02*
X175965771Y-110071428D01*
X175965771Y-110071428D02*
X175965771Y-109928571D01*
X175965771Y-109928571D02*
X176013390Y-109833333D01*
X176013390Y-109833333D02*
X176061009Y-109785714D01*
X176061009Y-109785714D02*
X176156247Y-109738095D01*
X176156247Y-109738095D02*
X176394342Y-109738095D01*
X176394342Y-109738095D02*
X176489580Y-109785714D01*
X176489580Y-109785714D02*
X176537200Y-109833333D01*
X176537200Y-109833333D02*
X176584819Y-109928571D01*
X176584819Y-109928571D02*
X176584819Y-110214285D01*
X176584819Y-110214285D02*
X176537200Y-110309523D01*
X176537200Y-110309523D02*
X176489580Y-110357142D01*
X186159580Y-108666666D02*
X186207200Y-108714285D01*
X186207200Y-108714285D02*
X186254819Y-108857142D01*
X186254819Y-108857142D02*
X186254819Y-108952380D01*
X186254819Y-108952380D02*
X186207200Y-109095237D01*
X186207200Y-109095237D02*
X186111961Y-109190475D01*
X186111961Y-109190475D02*
X186016723Y-109238094D01*
X186016723Y-109238094D02*
X185826247Y-109285713D01*
X185826247Y-109285713D02*
X185683390Y-109285713D01*
X185683390Y-109285713D02*
X185492914Y-109238094D01*
X185492914Y-109238094D02*
X185397676Y-109190475D01*
X185397676Y-109190475D02*
X185302438Y-109095237D01*
X185302438Y-109095237D02*
X185254819Y-108952380D01*
X185254819Y-108952380D02*
X185254819Y-108857142D01*
X185254819Y-108857142D02*
X185302438Y-108714285D01*
X185302438Y-108714285D02*
X185350057Y-108666666D01*
X185254819Y-107809523D02*
X185254819Y-107999999D01*
X185254819Y-107999999D02*
X185302438Y-108095237D01*
X185302438Y-108095237D02*
X185350057Y-108142856D01*
X185350057Y-108142856D02*
X185492914Y-108238094D01*
X185492914Y-108238094D02*
X185683390Y-108285713D01*
X185683390Y-108285713D02*
X186064342Y-108285713D01*
X186064342Y-108285713D02*
X186159580Y-108238094D01*
X186159580Y-108238094D02*
X186207200Y-108190475D01*
X186207200Y-108190475D02*
X186254819Y-108095237D01*
X186254819Y-108095237D02*
X186254819Y-107904761D01*
X186254819Y-107904761D02*
X186207200Y-107809523D01*
X186207200Y-107809523D02*
X186159580Y-107761904D01*
X186159580Y-107761904D02*
X186064342Y-107714285D01*
X186064342Y-107714285D02*
X185826247Y-107714285D01*
X185826247Y-107714285D02*
X185731009Y-107761904D01*
X185731009Y-107761904D02*
X185683390Y-107809523D01*
X185683390Y-107809523D02*
X185635771Y-107904761D01*
X185635771Y-107904761D02*
X185635771Y-108095237D01*
X185635771Y-108095237D02*
X185683390Y-108190475D01*
X185683390Y-108190475D02*
X185731009Y-108238094D01*
X185731009Y-108238094D02*
X185826247Y-108285713D01*
X127333333Y-127359580D02*
X127285714Y-127407200D01*
X127285714Y-127407200D02*
X127142857Y-127454819D01*
X127142857Y-127454819D02*
X127047619Y-127454819D01*
X127047619Y-127454819D02*
X126904762Y-127407200D01*
X126904762Y-127407200D02*
X126809524Y-127311961D01*
X126809524Y-127311961D02*
X126761905Y-127216723D01*
X126761905Y-127216723D02*
X126714286Y-127026247D01*
X126714286Y-127026247D02*
X126714286Y-126883390D01*
X126714286Y-126883390D02*
X126761905Y-126692914D01*
X126761905Y-126692914D02*
X126809524Y-126597676D01*
X126809524Y-126597676D02*
X126904762Y-126502438D01*
X126904762Y-126502438D02*
X127047619Y-126454819D01*
X127047619Y-126454819D02*
X127142857Y-126454819D01*
X127142857Y-126454819D02*
X127285714Y-126502438D01*
X127285714Y-126502438D02*
X127333333Y-126550057D01*
X128190476Y-126788152D02*
X128190476Y-127454819D01*
X127952381Y-126407200D02*
X127714286Y-127121485D01*
X127714286Y-127121485D02*
X128333333Y-127121485D01*
X112454819Y-117309523D02*
X113169104Y-117309523D01*
X113169104Y-117309523D02*
X113311961Y-117357142D01*
X113311961Y-117357142D02*
X113407200Y-117452380D01*
X113407200Y-117452380D02*
X113454819Y-117595237D01*
X113454819Y-117595237D02*
X113454819Y-117690475D01*
X112550057Y-116880951D02*
X112502438Y-116833332D01*
X112502438Y-116833332D02*
X112454819Y-116738094D01*
X112454819Y-116738094D02*
X112454819Y-116499999D01*
X112454819Y-116499999D02*
X112502438Y-116404761D01*
X112502438Y-116404761D02*
X112550057Y-116357142D01*
X112550057Y-116357142D02*
X112645295Y-116309523D01*
X112645295Y-116309523D02*
X112740533Y-116309523D01*
X112740533Y-116309523D02*
X112883390Y-116357142D01*
X112883390Y-116357142D02*
X113454819Y-116928570D01*
X113454819Y-116928570D02*
X113454819Y-116309523D01*
X113454819Y-115357142D02*
X113454819Y-115928570D01*
X113454819Y-115642856D02*
X112454819Y-115642856D01*
X112454819Y-115642856D02*
X112597676Y-115738094D01*
X112597676Y-115738094D02*
X112692914Y-115833332D01*
X112692914Y-115833332D02*
X112740533Y-115928570D01*
X34939580Y-120166666D02*
X34987200Y-120214285D01*
X34987200Y-120214285D02*
X35034819Y-120357142D01*
X35034819Y-120357142D02*
X35034819Y-120452380D01*
X35034819Y-120452380D02*
X34987200Y-120595237D01*
X34987200Y-120595237D02*
X34891961Y-120690475D01*
X34891961Y-120690475D02*
X34796723Y-120738094D01*
X34796723Y-120738094D02*
X34606247Y-120785713D01*
X34606247Y-120785713D02*
X34463390Y-120785713D01*
X34463390Y-120785713D02*
X34272914Y-120738094D01*
X34272914Y-120738094D02*
X34177676Y-120690475D01*
X34177676Y-120690475D02*
X34082438Y-120595237D01*
X34082438Y-120595237D02*
X34034819Y-120452380D01*
X34034819Y-120452380D02*
X34034819Y-120357142D01*
X34034819Y-120357142D02*
X34082438Y-120214285D01*
X34082438Y-120214285D02*
X34130057Y-120166666D01*
X35034819Y-119214285D02*
X35034819Y-119785713D01*
X35034819Y-119499999D02*
X34034819Y-119499999D01*
X34034819Y-119499999D02*
X34177676Y-119595237D01*
X34177676Y-119595237D02*
X34272914Y-119690475D01*
X34272914Y-119690475D02*
X34320533Y-119785713D01*
X21690476Y-100454819D02*
X21690476Y-101169104D01*
X21690476Y-101169104D02*
X21642857Y-101311961D01*
X21642857Y-101311961D02*
X21547619Y-101407200D01*
X21547619Y-101407200D02*
X21404762Y-101454819D01*
X21404762Y-101454819D02*
X21309524Y-101454819D01*
X22690476Y-101454819D02*
X22119048Y-101454819D01*
X22404762Y-101454819D02*
X22404762Y-100454819D01*
X22404762Y-100454819D02*
X22309524Y-100597676D01*
X22309524Y-100597676D02*
X22214286Y-100692914D01*
X22214286Y-100692914D02*
X22119048Y-100740533D01*
X23023810Y-100454819D02*
X23642857Y-100454819D01*
X23642857Y-100454819D02*
X23309524Y-100835771D01*
X23309524Y-100835771D02*
X23452381Y-100835771D01*
X23452381Y-100835771D02*
X23547619Y-100883390D01*
X23547619Y-100883390D02*
X23595238Y-100931009D01*
X23595238Y-100931009D02*
X23642857Y-101026247D01*
X23642857Y-101026247D02*
X23642857Y-101264342D01*
X23642857Y-101264342D02*
X23595238Y-101359580D01*
X23595238Y-101359580D02*
X23547619Y-101407200D01*
X23547619Y-101407200D02*
X23452381Y-101454819D01*
X23452381Y-101454819D02*
X23166667Y-101454819D01*
X23166667Y-101454819D02*
X23071429Y-101407200D01*
X23071429Y-101407200D02*
X23023810Y-101359580D01*
X203354819Y-102309523D02*
X204069104Y-102309523D01*
X204069104Y-102309523D02*
X204211961Y-102357142D01*
X204211961Y-102357142D02*
X204307200Y-102452380D01*
X204307200Y-102452380D02*
X204354819Y-102595237D01*
X204354819Y-102595237D02*
X204354819Y-102690475D01*
X203450057Y-101880951D02*
X203402438Y-101833332D01*
X203402438Y-101833332D02*
X203354819Y-101738094D01*
X203354819Y-101738094D02*
X203354819Y-101499999D01*
X203354819Y-101499999D02*
X203402438Y-101404761D01*
X203402438Y-101404761D02*
X203450057Y-101357142D01*
X203450057Y-101357142D02*
X203545295Y-101309523D01*
X203545295Y-101309523D02*
X203640533Y-101309523D01*
X203640533Y-101309523D02*
X203783390Y-101357142D01*
X203783390Y-101357142D02*
X204354819Y-101928570D01*
X204354819Y-101928570D02*
X204354819Y-101309523D01*
X203783390Y-100738094D02*
X203735771Y-100833332D01*
X203735771Y-100833332D02*
X203688152Y-100880951D01*
X203688152Y-100880951D02*
X203592914Y-100928570D01*
X203592914Y-100928570D02*
X203545295Y-100928570D01*
X203545295Y-100928570D02*
X203450057Y-100880951D01*
X203450057Y-100880951D02*
X203402438Y-100833332D01*
X203402438Y-100833332D02*
X203354819Y-100738094D01*
X203354819Y-100738094D02*
X203354819Y-100547618D01*
X203354819Y-100547618D02*
X203402438Y-100452380D01*
X203402438Y-100452380D02*
X203450057Y-100404761D01*
X203450057Y-100404761D02*
X203545295Y-100357142D01*
X203545295Y-100357142D02*
X203592914Y-100357142D01*
X203592914Y-100357142D02*
X203688152Y-100404761D01*
X203688152Y-100404761D02*
X203735771Y-100452380D01*
X203735771Y-100452380D02*
X203783390Y-100547618D01*
X203783390Y-100547618D02*
X203783390Y-100738094D01*
X203783390Y-100738094D02*
X203831009Y-100833332D01*
X203831009Y-100833332D02*
X203878628Y-100880951D01*
X203878628Y-100880951D02*
X203973866Y-100928570D01*
X203973866Y-100928570D02*
X204164342Y-100928570D01*
X204164342Y-100928570D02*
X204259580Y-100880951D01*
X204259580Y-100880951D02*
X204307200Y-100833332D01*
X204307200Y-100833332D02*
X204354819Y-100738094D01*
X204354819Y-100738094D02*
X204354819Y-100547618D01*
X204354819Y-100547618D02*
X204307200Y-100452380D01*
X204307200Y-100452380D02*
X204259580Y-100404761D01*
X204259580Y-100404761D02*
X204164342Y-100357142D01*
X204164342Y-100357142D02*
X203973866Y-100357142D01*
X203973866Y-100357142D02*
X203878628Y-100404761D01*
X203878628Y-100404761D02*
X203831009Y-100452380D01*
X203831009Y-100452380D02*
X203783390Y-100547618D01*
X40833333Y-130954819D02*
X40500000Y-130478628D01*
X40261905Y-130954819D02*
X40261905Y-129954819D01*
X40261905Y-129954819D02*
X40642857Y-129954819D01*
X40642857Y-129954819D02*
X40738095Y-130002438D01*
X40738095Y-130002438D02*
X40785714Y-130050057D01*
X40785714Y-130050057D02*
X40833333Y-130145295D01*
X40833333Y-130145295D02*
X40833333Y-130288152D01*
X40833333Y-130288152D02*
X40785714Y-130383390D01*
X40785714Y-130383390D02*
X40738095Y-130431009D01*
X40738095Y-130431009D02*
X40642857Y-130478628D01*
X40642857Y-130478628D02*
X40261905Y-130478628D01*
X41785714Y-130954819D02*
X41214286Y-130954819D01*
X41500000Y-130954819D02*
X41500000Y-129954819D01*
X41500000Y-129954819D02*
X41404762Y-130097676D01*
X41404762Y-130097676D02*
X41309524Y-130192914D01*
X41309524Y-130192914D02*
X41214286Y-130240533D01*
D12*
%TO.C,J26*%
X207300000Y-136800000D02*
X207300000Y-134200000D01*
X207300000Y-136800000D02*
X204700000Y-136800000D01*
X204700000Y-136800000D02*
X204700000Y-134200000D01*
X204700000Y-134200000D02*
X207300000Y-134200000D01*
%TO.C,J27*%
X207300000Y-132800000D02*
X207300000Y-130200000D01*
X207300000Y-132800000D02*
X204700000Y-132800000D01*
X204700000Y-132800000D02*
X204700000Y-130200000D01*
X204700000Y-130200000D02*
X207300000Y-130200000D01*
%TO.C,R10*%
X191130000Y-107730000D02*
X191130000Y-114270000D01*
X191130000Y-114270000D02*
X193870000Y-114270000D01*
X192500000Y-106960000D02*
X192500000Y-107730000D01*
X192500000Y-115040000D02*
X192500000Y-114270000D01*
X193870000Y-107730000D02*
X191130000Y-107730000D01*
X193870000Y-114270000D02*
X193870000Y-107730000D01*
%TO.C,C5*%
X161930000Y-106230000D02*
X161945000Y-106230000D01*
X161930000Y-110770000D02*
X161930000Y-106230000D01*
X161930000Y-110770000D02*
X161945000Y-110770000D01*
X164055000Y-106230000D02*
X164070000Y-106230000D01*
X164055000Y-110770000D02*
X164070000Y-110770000D01*
X164070000Y-110770000D02*
X164070000Y-106230000D01*
%TO.C,D4*%
X155045000Y-128170000D02*
X151955000Y-128170000D01*
X153499952Y-133720000D02*
G75*
G02*
X151955170Y-128170000I48J2990000D01*
G01*
X155044830Y-128170000D02*
G75*
G02*
X153500048Y-133720000I-1544830J-2560000D01*
G01*
X156000000Y-130730000D02*
G75*
G02*
X151000000Y-130730000I-2500000J0D01*
G01*
X151000000Y-130730000D02*
G75*
G02*
X156000000Y-130730000I2500000J0D01*
G01*
%TO.C,D2*%
X182545000Y-128210000D02*
X179455000Y-128210000D01*
X180999952Y-133760000D02*
G75*
G02*
X179455170Y-128210000I48J2990000D01*
G01*
X182544830Y-128210000D02*
G75*
G02*
X181000048Y-133760000I-1544830J-2560000D01*
G01*
X183500000Y-130770000D02*
G75*
G02*
X178500000Y-130770000I-2500000J0D01*
G01*
X178500000Y-130770000D02*
G75*
G02*
X183500000Y-130770000I2500000J0D01*
G01*
%TO.C,D1*%
X172955000Y-133290000D02*
X176045000Y-133290000D01*
X172955170Y-133290000D02*
G75*
G02*
X174499952Y-127740000I1544830J2560000D01*
G01*
X174500048Y-127740000D02*
G75*
G02*
X176044830Y-133290000I-48J-2990000D01*
G01*
X177000000Y-130730000D02*
G75*
G02*
X172000000Y-130730000I-2500000J0D01*
G01*
X172000000Y-130730000D02*
G75*
G02*
X177000000Y-130730000I2500000J0D01*
G01*
%TO.C,J12*%
X162700000Y-92200000D02*
X165300000Y-92200000D01*
X162700000Y-94800000D02*
X162700000Y-92200000D01*
X165300000Y-94800000D02*
X162700000Y-94800000D01*
X165300000Y-94800000D02*
X165300000Y-92200000D01*
%TO.C,J29*%
X204700000Y-125700000D02*
X207300000Y-125700000D01*
X204700000Y-128300000D02*
X204700000Y-125700000D01*
X207300000Y-128300000D02*
X204700000Y-128300000D01*
X207300000Y-128300000D02*
X207300000Y-125700000D01*
%TO.C,R15*%
X152630000Y-107730000D02*
X152630000Y-114270000D01*
X152630000Y-114270000D02*
X155370000Y-114270000D01*
X154000000Y-106960000D02*
X154000000Y-107730000D01*
X154000000Y-115040000D02*
X154000000Y-114270000D01*
X155370000Y-107730000D02*
X152630000Y-107730000D01*
X155370000Y-114270000D02*
X155370000Y-107730000D01*
%TO.C,J5*%
X96200000Y-92200000D02*
X98800000Y-92200000D01*
X96200000Y-94800000D02*
X96200000Y-92200000D01*
X98800000Y-94800000D02*
X96200000Y-94800000D01*
X98800000Y-94800000D02*
X98800000Y-92200000D01*
%TO.C,R12*%
X171130000Y-107730000D02*
X171130000Y-114270000D01*
X171130000Y-114270000D02*
X173870000Y-114270000D01*
X172500000Y-106960000D02*
X172500000Y-107730000D01*
X172500000Y-115040000D02*
X172500000Y-114270000D01*
X173870000Y-107730000D02*
X171130000Y-107730000D01*
X173870000Y-114270000D02*
X173870000Y-107730000D01*
%TO.C,RV3*%
X80430000Y-134180000D02*
X80430000Y-144920000D01*
X85880000Y-144920000D02*
X85880000Y-149920000D01*
X86380000Y-149920000D02*
X86380000Y-159920000D01*
X92620000Y-149920000D02*
X92620000Y-159920000D01*
X92620000Y-159920000D02*
X86380000Y-159920000D01*
X93120000Y-144920000D02*
X93120000Y-149920000D01*
X93120000Y-149920000D02*
X85880000Y-149920000D01*
X98570000Y-134180000D02*
X80430000Y-134180000D01*
X98570000Y-134180000D02*
X98570000Y-144920000D01*
X98570000Y-144920000D02*
X80430000Y-144920000D01*
%TO.C,J9*%
X139700000Y-92200000D02*
X142300000Y-92200000D01*
X139700000Y-94800000D02*
X139700000Y-92200000D01*
X142300000Y-94800000D02*
X139700000Y-94800000D01*
X142300000Y-94800000D02*
X142300000Y-92200000D01*
%TO.C,J11*%
X107700000Y-92200000D02*
X110300000Y-92200000D01*
X107700000Y-94800000D02*
X107700000Y-92200000D01*
X110300000Y-94800000D02*
X107700000Y-94800000D01*
X110300000Y-94800000D02*
X110300000Y-92200000D01*
%TO.C,J7*%
X29700000Y-92200000D02*
X32300000Y-92200000D01*
X29700000Y-94800000D02*
X29700000Y-92200000D01*
X32300000Y-94800000D02*
X29700000Y-94800000D01*
X32300000Y-94800000D02*
X32300000Y-92200000D01*
%TO.C,RV2*%
X50930000Y-134180000D02*
X50930000Y-144920000D01*
X56380000Y-144920000D02*
X56380000Y-149920000D01*
X56880000Y-149920000D02*
X56880000Y-159920000D01*
X63120000Y-149920000D02*
X63120000Y-159920000D01*
X63120000Y-159920000D02*
X56880000Y-159920000D01*
X63620000Y-144920000D02*
X63620000Y-149920000D01*
X63620000Y-149920000D02*
X56380000Y-149920000D01*
X69070000Y-134180000D02*
X50930000Y-134180000D01*
X69070000Y-134180000D02*
X69070000Y-144920000D01*
X69070000Y-144920000D02*
X50930000Y-144920000D01*
%TO.C,J30*%
X204700000Y-121700000D02*
X207300000Y-121700000D01*
X204700000Y-124300000D02*
X204700000Y-121700000D01*
X207300000Y-124300000D02*
X204700000Y-124300000D01*
X207300000Y-124300000D02*
X207300000Y-121700000D01*
%TO.C,RV4*%
X101430000Y-134180000D02*
X101430000Y-144920000D01*
X106880000Y-144920000D02*
X106880000Y-149920000D01*
X107380000Y-149920000D02*
X107380000Y-159920000D01*
X113620000Y-149920000D02*
X113620000Y-159920000D01*
X113620000Y-159920000D02*
X107380000Y-159920000D01*
X114120000Y-144920000D02*
X114120000Y-149920000D01*
X114120000Y-149920000D02*
X106880000Y-149920000D01*
X119570000Y-134180000D02*
X101430000Y-134180000D01*
X119570000Y-134180000D02*
X119570000Y-144920000D01*
X119570000Y-144920000D02*
X101430000Y-144920000D01*
%TO.C,J18*%
X68700000Y-92200000D02*
X71300000Y-92200000D01*
X68700000Y-94800000D02*
X68700000Y-92200000D01*
X71300000Y-94800000D02*
X68700000Y-94800000D01*
X71300000Y-94800000D02*
X71300000Y-92200000D01*
%TO.C,R4*%
X102880000Y-123000000D02*
X103650000Y-123000000D01*
X103650000Y-121630000D02*
X103650000Y-124370000D01*
X103650000Y-124370000D02*
X110190000Y-124370000D01*
X110190000Y-121630000D02*
X103650000Y-121630000D01*
X110190000Y-124370000D02*
X110190000Y-121630000D01*
X110960000Y-123000000D02*
X110190000Y-123000000D01*
%TO.C,R3*%
X53630000Y-123900000D02*
X53630000Y-130440000D01*
X53630000Y-130440000D02*
X56370000Y-130440000D01*
X55000000Y-123130000D02*
X55000000Y-123900000D01*
X55000000Y-131210000D02*
X55000000Y-130440000D01*
X56370000Y-123900000D02*
X53630000Y-123900000D01*
X56370000Y-130440000D02*
X56370000Y-123900000D01*
%TO.C,J17*%
X63200000Y-92200000D02*
X65800000Y-92200000D01*
X63200000Y-94800000D02*
X63200000Y-92200000D01*
X65800000Y-94800000D02*
X63200000Y-94800000D01*
X65800000Y-94800000D02*
X65800000Y-92200000D01*
%TO.C,R7*%
X158630000Y-131500000D02*
X159580000Y-131500000D01*
X159580000Y-130580000D02*
X159580000Y-132420000D01*
X159580000Y-132420000D02*
X163420000Y-132420000D01*
X163420000Y-130580000D02*
X159580000Y-130580000D01*
X163420000Y-132420000D02*
X163420000Y-130580000D01*
X164370000Y-131500000D02*
X163420000Y-131500000D01*
%TO.C,J10*%
X52700000Y-92200000D02*
X55300000Y-92200000D01*
X52700000Y-94800000D02*
X52700000Y-92200000D01*
X55300000Y-94800000D02*
X52700000Y-94800000D01*
X55300000Y-94800000D02*
X55300000Y-92200000D01*
%TO.C,J19*%
X74200000Y-92200000D02*
X76800000Y-92200000D01*
X74200000Y-94800000D02*
X74200000Y-92200000D01*
X76800000Y-94800000D02*
X74200000Y-94800000D01*
X76800000Y-94800000D02*
X76800000Y-92200000D01*
%TO.C,C2*%
X92630000Y-123380000D02*
X92630000Y-130620000D01*
X96370000Y-123380000D02*
X92630000Y-123380000D01*
X96370000Y-123380000D02*
X96370000Y-130620000D01*
X96370000Y-130620000D02*
X92630000Y-130620000D01*
%TO.C,J22*%
X109200000Y-115200000D02*
X111800000Y-115200000D01*
X109200000Y-117800000D02*
X109200000Y-115200000D01*
X111800000Y-117800000D02*
X109200000Y-117800000D01*
X111800000Y-117800000D02*
X111800000Y-115200000D01*
%TO.C,J8*%
X84700000Y-92200000D02*
X87300000Y-92200000D01*
X84700000Y-94800000D02*
X84700000Y-92200000D01*
X87300000Y-94800000D02*
X84700000Y-94800000D01*
X87300000Y-94800000D02*
X87300000Y-92200000D01*
%TO.C,Q1*%
X156700000Y-121850000D02*
X160300000Y-121850000D01*
X156143600Y-118901193D02*
G75*
G02*
X158500000Y-117400000I2356400J-1098807D01*
G01*
X156700000Y-121850000D02*
G75*
G02*
X156175816Y-121122795I1800000J1850000D01*
G01*
X158500000Y-117400000D02*
G75*
G02*
X160856400Y-118901193I0J-2600000D01*
G01*
X160824184Y-121122795D02*
G75*
G02*
X160300000Y-121850000I-2324184J1122795D01*
G01*
%TO.C,J4*%
X41200000Y-92200000D02*
X43800000Y-92200000D01*
X41200000Y-94800000D02*
X41200000Y-92200000D01*
X43800000Y-94800000D02*
X41200000Y-94800000D01*
X43800000Y-94800000D02*
X43800000Y-92200000D01*
%TO.C,Q2*%
X194260000Y-117650000D02*
X190660000Y-117650000D01*
X190135816Y-118377205D02*
G75*
G02*
X190660000Y-117650000I2324184J-1122795D01*
G01*
X192460000Y-122100000D02*
G75*
G02*
X190103600Y-120598807I0J2600000D01*
G01*
X194260000Y-117650000D02*
G75*
G02*
X194784184Y-118377205I-1800000J-1850000D01*
G01*
X194816400Y-120598807D02*
G75*
G02*
X192460000Y-122100000I-2356400J1098807D01*
G01*
%TO.C,RV7*%
X176430000Y-134180000D02*
X176430000Y-144920000D01*
X181880000Y-144920000D02*
X181880000Y-149920000D01*
X182380000Y-149920000D02*
X182380000Y-159920000D01*
X188620000Y-149920000D02*
X188620000Y-159920000D01*
X188620000Y-159920000D02*
X182380000Y-159920000D01*
X189120000Y-144920000D02*
X189120000Y-149920000D01*
X189120000Y-149920000D02*
X181880000Y-149920000D01*
X194570000Y-134180000D02*
X176430000Y-134180000D01*
X194570000Y-134180000D02*
X194570000Y-144920000D01*
X194570000Y-144920000D02*
X176430000Y-144920000D01*
%TO.C,RV5*%
X122430000Y-134180000D02*
X122430000Y-144920000D01*
X127880000Y-144920000D02*
X127880000Y-149920000D01*
X128380000Y-149920000D02*
X128380000Y-159920000D01*
X134620000Y-149920000D02*
X134620000Y-159920000D01*
X134620000Y-159920000D02*
X128380000Y-159920000D01*
X135120000Y-144920000D02*
X135120000Y-149920000D01*
X135120000Y-149920000D02*
X127880000Y-149920000D01*
X140570000Y-134180000D02*
X122430000Y-134180000D01*
X140570000Y-134180000D02*
X140570000Y-144920000D01*
X140570000Y-144920000D02*
X122430000Y-144920000D01*
%TO.C,J16*%
X24280000Y-121200000D02*
X26880000Y-121200000D01*
X24280000Y-123800000D02*
X24280000Y-121200000D01*
X24280000Y-123800000D02*
X26880000Y-123800000D01*
X26880000Y-121200000D02*
X26880000Y-123800000D01*
%TO.C,C9*%
X197880000Y-113130000D02*
X197880000Y-120870000D01*
X203120000Y-113130000D02*
X197880000Y-113130000D01*
X203120000Y-113130000D02*
X203120000Y-120870000D01*
X203120000Y-120870000D02*
X197880000Y-120870000D01*
%TO.C,C10*%
X146630000Y-117880000D02*
X146630000Y-123120000D01*
X146630000Y-117880000D02*
X154370000Y-117880000D01*
X146630000Y-123120000D02*
X154370000Y-123120000D01*
X154370000Y-117880000D02*
X154370000Y-123120000D01*
%TO.C,R11*%
X182130000Y-107730000D02*
X182130000Y-114270000D01*
X182130000Y-114270000D02*
X184870000Y-114270000D01*
X183500000Y-106960000D02*
X183500000Y-107730000D01*
X183500000Y-115040000D02*
X183500000Y-114270000D01*
X184870000Y-107730000D02*
X182130000Y-107730000D01*
X184870000Y-114270000D02*
X184870000Y-107730000D01*
%TO.C,C7*%
X179930000Y-119490000D02*
X179945000Y-119490000D01*
X179930000Y-124030000D02*
X179930000Y-119490000D01*
X179930000Y-124030000D02*
X179945000Y-124030000D01*
X182055000Y-119490000D02*
X182070000Y-119490000D01*
X182055000Y-124030000D02*
X182070000Y-124030000D01*
X182070000Y-124030000D02*
X182070000Y-119490000D01*
%TO.C,RV8*%
X151430000Y-134180000D02*
X151430000Y-144920000D01*
X156880000Y-144920000D02*
X156880000Y-149920000D01*
X157380000Y-149920000D02*
X157380000Y-159920000D01*
X163620000Y-149920000D02*
X163620000Y-159920000D01*
X163620000Y-159920000D02*
X157380000Y-159920000D01*
X164120000Y-144920000D02*
X164120000Y-149920000D01*
X164120000Y-149920000D02*
X156880000Y-149920000D01*
X169570000Y-134180000D02*
X151430000Y-134180000D01*
X169570000Y-134180000D02*
X169570000Y-144920000D01*
X169570000Y-144920000D02*
X151430000Y-144920000D01*
%TO.C,J3*%
X187700000Y-94800000D02*
X187700000Y-92200000D01*
X190300000Y-94800000D02*
X187700000Y-94800000D01*
X190300000Y-92200000D02*
X190300000Y-94800000D01*
X190300000Y-92200000D02*
X187700000Y-92200000D01*
%TO.C,RV1*%
X29930000Y-134180000D02*
X29930000Y-144920000D01*
X35380000Y-144920000D02*
X35380000Y-149920000D01*
X35880000Y-149920000D02*
X35880000Y-159920000D01*
X42120000Y-149920000D02*
X42120000Y-159920000D01*
X42120000Y-159920000D02*
X35880000Y-159920000D01*
X42620000Y-144920000D02*
X42620000Y-149920000D01*
X42620000Y-149920000D02*
X35380000Y-149920000D01*
X48070000Y-134180000D02*
X29930000Y-134180000D01*
X48070000Y-134180000D02*
X48070000Y-144920000D01*
X48070000Y-144920000D02*
X29930000Y-144920000D01*
%TO.C,R8*%
X157130000Y-107650000D02*
X157130000Y-114190000D01*
X157130000Y-114190000D02*
X159870000Y-114190000D01*
X158500000Y-106880000D02*
X158500000Y-107650000D01*
X158500000Y-114960000D02*
X158500000Y-114190000D01*
X159870000Y-107650000D02*
X157130000Y-107650000D01*
X159870000Y-114190000D02*
X159870000Y-107650000D01*
%TO.C,R6*%
X186440000Y-131500000D02*
X187390000Y-131500000D01*
X187390000Y-130580000D02*
X187390000Y-132420000D01*
X187390000Y-132420000D02*
X191230000Y-132420000D01*
X191230000Y-130580000D02*
X187390000Y-130580000D01*
X191230000Y-132420000D02*
X191230000Y-130580000D01*
X192180000Y-131500000D02*
X191230000Y-131500000D01*
%TO.C,R14*%
X194630000Y-107730000D02*
X194630000Y-114270000D01*
X194630000Y-114270000D02*
X197370000Y-114270000D01*
X196000000Y-106960000D02*
X196000000Y-107730000D01*
X196000000Y-115040000D02*
X196000000Y-114270000D01*
X197370000Y-107730000D02*
X194630000Y-107730000D01*
X197370000Y-114270000D02*
X197370000Y-107730000D01*
%TO.C,J20*%
X104200000Y-115200000D02*
X106800000Y-115200000D01*
X104200000Y-117800000D02*
X104200000Y-115200000D01*
X106800000Y-117800000D02*
X104200000Y-117800000D01*
X106800000Y-117800000D02*
X106800000Y-115200000D01*
%TO.C,D3*%
X145455000Y-133330000D02*
X148545000Y-133330000D01*
X145455170Y-133330000D02*
G75*
G02*
X146999952Y-127780000I1544830J2560000D01*
G01*
X147000048Y-127780000D02*
G75*
G02*
X148544830Y-133330000I-48J-2990000D01*
G01*
X149500000Y-130770000D02*
G75*
G02*
X144500000Y-130770000I-2500000J0D01*
G01*
X144500000Y-130770000D02*
G75*
G02*
X149500000Y-130770000I2500000J0D01*
G01*
%TO.C,R9*%
X166130000Y-107730000D02*
X166130000Y-114270000D01*
X166130000Y-114270000D02*
X168870000Y-114270000D01*
X167500000Y-106960000D02*
X167500000Y-107730000D01*
X167500000Y-115040000D02*
X167500000Y-114270000D01*
X168870000Y-107730000D02*
X166130000Y-107730000D01*
X168870000Y-114270000D02*
X168870000Y-107730000D01*
%TO.C,J32*%
X174200000Y-92200000D02*
X176800000Y-92200000D01*
X174200000Y-94800000D02*
X174200000Y-92200000D01*
X176800000Y-94800000D02*
X174200000Y-94800000D01*
X176800000Y-94800000D02*
X176800000Y-92200000D01*
%TO.C,C8*%
X168930000Y-119490000D02*
X168945000Y-119490000D01*
X168930000Y-124030000D02*
X168930000Y-119490000D01*
X168930000Y-124030000D02*
X168945000Y-124030000D01*
X171055000Y-119490000D02*
X171070000Y-119490000D01*
X171055000Y-124030000D02*
X171070000Y-124030000D01*
X171070000Y-124030000D02*
X171070000Y-119490000D01*
%TO.C,R2*%
X37630000Y-117150000D02*
X37630000Y-123690000D01*
X37630000Y-123690000D02*
X40370000Y-123690000D01*
X39000000Y-116380000D02*
X39000000Y-117150000D01*
X39000000Y-124460000D02*
X39000000Y-123690000D01*
X40370000Y-117150000D02*
X37630000Y-117150000D01*
X40370000Y-123690000D02*
X40370000Y-117150000D01*
%TO.C,C3*%
X110130000Y-125880000D02*
X110130000Y-133120000D01*
X113870000Y-125880000D02*
X110130000Y-125880000D01*
X113870000Y-125880000D02*
X113870000Y-133120000D01*
X113870000Y-133120000D02*
X110130000Y-133120000D01*
%TO.C,J1*%
X191700000Y-94800000D02*
X191700000Y-92200000D01*
X194300000Y-94800000D02*
X191700000Y-94800000D01*
X194300000Y-92200000D02*
X194300000Y-94800000D01*
X194300000Y-92200000D02*
X191700000Y-92200000D01*
%TO.C,J6*%
X151200000Y-92200000D02*
X153800000Y-92200000D01*
X151200000Y-94800000D02*
X151200000Y-92200000D01*
X153800000Y-94800000D02*
X151200000Y-94800000D01*
X153800000Y-94800000D02*
X153800000Y-92200000D01*
%TO.C,J14*%
X24280000Y-125700000D02*
X26880000Y-125700000D01*
X24280000Y-128300000D02*
X24280000Y-125700000D01*
X24280000Y-128300000D02*
X26880000Y-128300000D01*
X26880000Y-125700000D02*
X26880000Y-128300000D01*
%TO.C,R13*%
X177130000Y-107730000D02*
X177130000Y-114270000D01*
X177130000Y-114270000D02*
X179870000Y-114270000D01*
X178500000Y-106960000D02*
X178500000Y-107730000D01*
X178500000Y-115040000D02*
X178500000Y-114270000D01*
X179870000Y-107730000D02*
X177130000Y-107730000D01*
X179870000Y-114270000D02*
X179870000Y-107730000D01*
%TO.C,C6*%
X186930000Y-106230000D02*
X186945000Y-106230000D01*
X186930000Y-110770000D02*
X186930000Y-106230000D01*
X186930000Y-110770000D02*
X186945000Y-110770000D01*
X189055000Y-106230000D02*
X189070000Y-106230000D01*
X189055000Y-110770000D02*
X189070000Y-110770000D01*
X189070000Y-110770000D02*
X189070000Y-106230000D01*
%TO.C,J2*%
X195700000Y-94800000D02*
X195700000Y-92200000D01*
X198300000Y-94800000D02*
X195700000Y-94800000D01*
X198300000Y-92200000D02*
X198300000Y-94800000D01*
X198300000Y-92200000D02*
X195700000Y-92200000D01*
%TO.C,C4*%
X123880000Y-128130000D02*
X123880000Y-131870000D01*
X123880000Y-128130000D02*
X131120000Y-128130000D01*
X123880000Y-131870000D02*
X131120000Y-131870000D01*
X131120000Y-128130000D02*
X131120000Y-131870000D01*
%TO.C,J21*%
X114200000Y-115200000D02*
X116800000Y-115200000D01*
X114200000Y-117800000D02*
X114200000Y-115200000D01*
X116800000Y-117800000D02*
X114200000Y-117800000D01*
X116800000Y-117800000D02*
X116800000Y-115200000D01*
%TO.C,C1*%
X29710000Y-116380000D02*
X29710000Y-123620000D01*
X33450000Y-116380000D02*
X29710000Y-116380000D01*
X33450000Y-116380000D02*
X33450000Y-123620000D01*
X33450000Y-123620000D02*
X29710000Y-123620000D01*
%TO.C,J13*%
X21200000Y-102200000D02*
X23800000Y-102200000D01*
X21200000Y-104800000D02*
X21200000Y-102200000D01*
X23800000Y-104800000D02*
X21200000Y-104800000D01*
X23800000Y-104800000D02*
X23800000Y-102200000D01*
%TO.C,J28*%
X207300000Y-102800000D02*
X204700000Y-102800000D01*
X207300000Y-100200000D02*
X207300000Y-102800000D01*
X204700000Y-100200000D02*
X207300000Y-100200000D01*
X204700000Y-100200000D02*
X204700000Y-102800000D01*
%TO.C,R1*%
X35040000Y-130500000D02*
X35810000Y-130500000D01*
X35810000Y-129130000D02*
X35810000Y-131870000D01*
X35810000Y-131870000D02*
X42350000Y-131870000D01*
X42350000Y-129130000D02*
X35810000Y-129130000D01*
X42350000Y-131870000D02*
X42350000Y-129130000D01*
X43120000Y-130500000D02*
X42350000Y-130500000D01*
%TD*%
M02*
