M48
; DRILL file {KiCad 9.0.0} date 2025-02-28T17:27:46-0600
; FORMAT={-:-/ absolute / metric / decimal}
; #@! TF.CreationDate,2025-02-28T17:27:46-06:00
; #@! TF.GenerationSoftware,Kicad,Pcbnew,9.0.0
; #@! TF.FileFunction,Plated,1,6,PTH
FMAT,2
METRIC
; #@! TA.AperFunction,Plated,PTH,ViaDrill
T1C0.300
; #@! TA.AperFunction,Plated,PTH,ComponentDrill
T2C0.700
; #@! TA.AperFunction,Plated,PTH,ComponentDrill
T3C0.800
; #@! TA.AperFunction,Plated,PTH,ComponentDrill
T4C0.900
; #@! TA.AperFunction,Plated,PTH,ComponentDrill
T5C1.000
; #@! TA.AperFunction,Plated,PTH,ComponentDrill
T6C1.100
; #@! TA.AperFunction,Plated,PTH,ComponentDrill
T7C1.200
%
G90
G05
T1
X21.5Y-92.5
X21.5Y-100.5
X21.5Y-111.5
X21.5Y-120.0
X21.5Y-132.0
X21.5Y-143.5
X24.0Y-107.0
X26.0Y-109.0
X26.5Y-105.0
X27.5Y-129.5
X28.0Y-111.0
X28.0Y-121.0
X28.0Y-124.0
X28.0Y-126.5
X28.5Y-107.0
X29.0Y-134.0
X29.0Y-143.5
X29.5Y-95.5
X29.5Y-98.5
X29.5Y-101.5
X30.0Y-113.0
X30.0Y-116.0
X31.0Y-109.5
X32.5Y-95.5
X32.5Y-98.5
X32.5Y-100.5
X32.5Y-126.5
X32.5Y-129.5
X32.5Y-132.0
X32.5Y-136.0
X33.0Y-113.0
X33.0Y-116.0
X33.492Y-105.5
X34.0Y-122.5
X35.425Y-129.5
X35.5Y-132.0
X35.5Y-136.0
X36.0Y-104.0
X36.0Y-116.0
X36.0Y-119.0
X36.0Y-126.5
X37.0Y-109.5
X37.5Y-136.0
X39.0Y-107.0
X39.0Y-113.0
X39.0Y-117.5
X40.0Y-92.0
X40.0Y-93.0
X40.0Y-94.0
X40.0Y-95.0
X40.5Y-136.0
X41.0Y-115.5
X41.0Y-129.5
X42.0Y-107.0
X42.0Y-110.0
X42.5Y-126.5
X42.5Y-132.0
X42.5Y-136.0
X44.5Y-128.5
X45.0Y-92.0
X45.0Y-93.0
X45.0Y-94.0
X45.0Y-95.0
X45.5Y-132.0
X45.5Y-136.0
X47.5Y-107.0
X47.5Y-110.0
X48.0Y-120.0
X49.5Y-134.5
X49.5Y-143.5
X52.5Y-95.0
X52.5Y-97.5
X52.5Y-99.5
X53.5Y-107.0
X53.5Y-110.0
X53.5Y-133.5
X53.5Y-136.0
X53.63Y-120.5
X53.63Y-123.9
X53.63Y-130.44
X54.5Y-101.5
X54.5Y-117.5
X55.5Y-95.0
X55.5Y-97.5
X56.37Y-123.9
X56.5Y-116.5
X56.5Y-120.5
X56.5Y-130.5
X56.5Y-133.5
X56.5Y-136.0
X57.0Y-99.0
X57.0Y-102.0
X58.5Y-107.0
X58.5Y-110.0
X58.5Y-133.5
X58.5Y-136.0
X59.0Y-92.0
X59.5Y-99.0
X59.5Y-102.0
X60.0Y-116.5
X60.0Y-119.5
X60.5Y-131.0
X61.5Y-136.0
X62.0Y-133.5
X63.0Y-95.5
X63.0Y-99.0
X63.0Y-102.0
X63.0Y-107.0
X63.0Y-110.0
X63.0Y-113.5
X63.0Y-117.5
X63.0Y-128.5
X63.5Y-136.0
X64.5Y-131.0
X65.0Y-126.5
X65.0Y-133.5
X65.5Y-115.0
X66.0Y-95.5
X66.0Y-99.0
X66.0Y-102.0
X66.0Y-107.0
X66.0Y-110.0
X66.5Y-136.0
X67.0Y-128.5
X67.5Y-124.0
X67.5Y-131.0
X68.5Y-95.5
X68.5Y-99.0
X68.5Y-102.0
X68.5Y-107.0
X68.5Y-110.0
X68.5Y-113.5
X68.5Y-117.0
X68.5Y-120.5
X69.0Y-126.5
X69.0Y-133.5
X70.0Y-128.5
X71.5Y-95.5
X71.5Y-99.0
X71.5Y-102.0
X71.5Y-107.0
X71.5Y-110.0
X71.5Y-113.5
X71.5Y-117.0
X71.5Y-120.5
X71.5Y-124.5
X71.5Y-131.0
X72.5Y-126.0
X74.0Y-95.5
X74.0Y-99.0
X74.0Y-102.0
X74.0Y-107.0
X74.0Y-110.0
X74.0Y-113.5
X74.0Y-117.0
X74.0Y-120.5
X74.0Y-124.5
X74.0Y-128.5
X76.5Y-126.0
X77.0Y-95.5
X77.0Y-99.0
X77.0Y-102.0
X77.0Y-107.0
X77.0Y-110.0
X77.0Y-113.5
X77.0Y-117.0
X77.0Y-120.5
X77.0Y-124.0
X81.0Y-93.0
X81.0Y-99.0
X81.0Y-102.0
X81.0Y-107.0
X81.0Y-110.0
X83.0Y-138.0
X84.5Y-99.0
X84.5Y-102.0
X84.5Y-104.5
X84.5Y-135.5
X85.0Y-95.5
X85.5Y-107.0
X85.5Y-110.0
X86.0Y-138.0
X87.5Y-99.0
X87.5Y-102.0
X87.5Y-104.5
X87.579Y-95.5
X88.0Y-116.5
X88.0Y-119.5
X88.0Y-122.5
X88.0Y-125.5
X88.0Y-128.5
X88.0Y-131.5
X88.0Y-134.5
X88.0Y-137.5
X89.0Y-92.5
X90.0Y-107.0
X90.0Y-110.0
X90.0Y-114.5
X90.5Y-99.0
X90.5Y-102.0
X91.0Y-117.5
X91.0Y-119.5
X91.0Y-122.5
X91.0Y-125.5
X91.0Y-128.5
X91.0Y-131.5
X91.0Y-134.5
X91.0Y-137.5
X91.5Y-113.0
X93.0Y-115.5
X93.0Y-131.5
X93.0Y-134.5
X93.0Y-137.5
X93.5Y-111.0
X94.5Y-107.0
X94.5Y-110.0
X94.5Y-114.0
X95.0Y-92.0
X95.0Y-93.0
X95.0Y-94.0
X95.0Y-95.0
X95.0Y-122.5
X96.0Y-99.0
X96.0Y-102.0
X96.0Y-111.0
X96.0Y-131.5
X96.0Y-134.5
X96.0Y-137.5
X97.0Y-121.5
X97.0Y-125.0
X97.5Y-114.0
X98.0Y-107.0
X98.0Y-110.0
X99.0Y-111.0
X100.0Y-92.0
X100.0Y-93.0
X100.0Y-94.0
X100.0Y-95.0
X100.0Y-134.5
X100.0Y-137.5
X100.0Y-143.5
X100.5Y-114.0
X100.5Y-121.5
X100.5Y-124.5
X101.0Y-99.0
X101.0Y-102.0
X101.0Y-107.0
X101.0Y-110.0
X101.0Y-119.0
X102.0Y-111.0
X103.0Y-117.0
X103.5Y-114.0
X104.0Y-107.0
X104.0Y-110.0
X104.0Y-120.5
X104.0Y-125.5
X104.0Y-128.5
X104.0Y-131.5
X104.0Y-134.5
X104.0Y-137.5
X105.0Y-111.0
X105.5Y-119.0
X106.0Y-99.0
X106.0Y-102.0
X106.5Y-93.5
X106.5Y-114.0
X107.0Y-107.0
X107.0Y-110.0
X107.0Y-122.0
X107.0Y-125.5
X107.0Y-128.5
X107.0Y-131.5
X107.0Y-134.5
X107.0Y-137.5
X107.5Y-97.0
X108.0Y-111.0
X108.0Y-116.5
X108.5Y-99.0
X108.5Y-143.5
X109.5Y-114.0
X109.5Y-119.5
X110.0Y-102.0
X110.0Y-107.0
X110.0Y-110.0
X110.5Y-97.0
X110.5Y-125.0
X110.5Y-134.5
X110.5Y-137.5
X111.0Y-111.0
X111.5Y-93.5
X112.5Y-99.0
X112.5Y-114.0
X113.0Y-107.0
X113.0Y-110.0
X113.0Y-116.5
X113.0Y-143.5
X113.5Y-125.0
X113.5Y-134.5
X113.5Y-137.5
X114.0Y-111.0
X114.5Y-120.5
X115.0Y-99.0
X115.0Y-102.0
X115.0Y-127.0
X115.0Y-129.5
X116.5Y-107.0
X116.5Y-110.0
X116.5Y-134.5
X116.5Y-137.5
X117.0Y-114.0
X118.0Y-139.5
X118.0Y-142.5
X119.0Y-122.5
X119.0Y-127.0
X119.0Y-129.5
X119.5Y-93.0
X120.0Y-99.0
X120.0Y-102.0
X120.0Y-107.0
X120.0Y-110.0
X120.0Y-134.5
X120.0Y-137.5
X121.0Y-139.5
X121.0Y-142.5
X122.5Y-129.5
X123.0Y-127.0
X123.5Y-133.0
X123.5Y-137.5
X123.5Y-139.5
X123.5Y-142.5
X124.5Y-99.0
X124.5Y-102.0
X125.0Y-107.0
X125.0Y-110.0
X125.5Y-116.5
X126.0Y-135.0
X128.0Y-127.0
X128.5Y-133.0
X129.5Y-93.0
X129.5Y-99.0
X129.5Y-102.0
X129.5Y-143.0
X130.0Y-107.0
X130.0Y-110.0
X130.0Y-135.5
X130.0Y-138.5
X131.0Y-122.5
X132.0Y-132.5
X133.0Y-135.5
X133.0Y-138.5
X134.0Y-139.5
X134.0Y-142.5
X134.5Y-99.0
X134.5Y-102.0
X135.0Y-107.0
X135.0Y-110.0
X135.5Y-128.0
X136.0Y-116.5
X138.0Y-93.5
X138.0Y-138.5
X139.5Y-99.0
X139.5Y-102.0
X140.0Y-107.0
X140.0Y-110.0
X141.5Y-143.5
X142.0Y-122.5
X142.5Y-99.0
X142.5Y-102.0
X142.5Y-133.0
X144.0Y-93.5
X145.0Y-107.0
X145.0Y-110.0
X147.5Y-99.0
X147.5Y-102.0
X150.0Y-92.0
X150.0Y-93.0
X150.0Y-94.0
X150.0Y-95.0
X150.0Y-107.0
X150.0Y-110.0
X150.0Y-134.5
X150.5Y-127.5
X150.5Y-143.5
X153.5Y-99.0
X153.5Y-102.0
X155.0Y-92.0
X155.0Y-93.0
X155.0Y-94.0
X155.0Y-95.0
X156.25Y-104.55
X156.25Y-107.25
X156.5Y-110.0
X156.5Y-123.0
X157.0Y-117.5
X157.0Y-128.5
X158.0Y-113.5
X158.5Y-143.5
X159.0Y-99.0
X159.0Y-102.0
X159.0Y-138.5
X159.5Y-123.0
X160.0Y-117.5
X160.5Y-115.5
X160.5Y-134.5
X161.0Y-93.5
X161.0Y-104.76
X161.0Y-107.0
X161.0Y-110.0
X161.0Y-111.0
X162.0Y-138.5
X162.5Y-96.0
X162.5Y-99.0
X162.5Y-117.5
X162.5Y-132.5
X162.5Y-136.5
X163.0Y-113.5
X163.0Y-120.5
X163.0Y-123.0
X163.5Y-102.0
X164.0Y-129.0
X164.0Y-138.5
X164.5Y-134.5
X165.0Y-110.0
X165.0Y-111.26
X165.5Y-96.0
X165.5Y-105.5
X165.5Y-107.26
X165.5Y-115.5
X166.0Y-99.0
X166.0Y-117.5
X166.0Y-126.0
X166.0Y-134.5
X167.0Y-138.5
X167.5Y-93.5
X168.0Y-113.5
X168.0Y-120.5
X168.0Y-123.0
X168.0Y-128.5
X168.0Y-132.5
X168.5Y-99.0
X168.5Y-102.0
X169.0Y-117.5
X170.0Y-96.0
X170.0Y-104.76
X170.0Y-105.76
X170.0Y-106.76
X170.0Y-110.0
X170.0Y-111.26
X170.5Y-116.0
X170.5Y-128.5
X170.5Y-131.5
X170.5Y-134.5
X170.5Y-143.5
X171.5Y-99.0
X171.5Y-102.0
X172.0Y-125.5
X172.5Y-118.5
X173.0Y-93.0
X174.0Y-96.5
X175.5Y-95.5
X175.5Y-99.0
X175.5Y-102.0
X175.5Y-104.76
X175.5Y-105.76
X175.5Y-106.76
X175.5Y-110.0
X175.5Y-111.26
X175.5Y-114.5
X175.5Y-117.26
X175.5Y-134.5
X175.5Y-143.5
X176.0Y-125.5
X177.0Y-96.5
X177.5Y-128.5
X178.0Y-93.0
X178.5Y-118.5
X179.0Y-99.0
X179.0Y-102.0
X179.5Y-125.5
X181.0Y-96.0
X181.0Y-104.76
X181.0Y-105.76
X181.0Y-106.76
X181.0Y-110.0
X181.0Y-111.26
X181.0Y-117.0
X182.0Y-98.5
X182.0Y-102.0
X182.5Y-121.0
X182.5Y-122.5
X182.5Y-125.5
X183.5Y-113.5
X183.5Y-128.5
X183.5Y-138.5
X183.5Y-143.5
X184.5Y-96.0
X185.5Y-105.5
X185.5Y-107.26
X185.5Y-115.5
X186.0Y-110.0
X186.0Y-111.26
X186.0Y-117.5
X186.0Y-125.5
X186.5Y-93.5
X187.5Y-97.5
X187.5Y-102.0
X187.5Y-137.0
X188.0Y-113.0
X188.0Y-143.5
X188.5Y-121.0
X188.5Y-123.0
X189.0Y-128.5
X189.5Y-117.5
X190.0Y-105.5
X190.0Y-107.0
X190.0Y-110.0
X190.0Y-111.26
X190.0Y-134.5
X190.5Y-99.5
X190.5Y-101.5
X190.5Y-115.5
X190.5Y-125.5
X191.5Y-95.5
X191.5Y-132.5
X191.5Y-137.5
X192.5Y-95.5
X193.0Y-114.0
X193.0Y-124.0
X193.5Y-95.5
X193.5Y-128.5
X193.5Y-140.5
X193.5Y-143.5
X194.0Y-117.5
X194.246Y-104.459
X194.27Y-107.2
X194.5Y-95.5
X194.5Y-110.0
X194.5Y-134.5
X194.634Y-125.727
X195.0Y-130.0
X195.0Y-133.0
X195.5Y-98.5
X195.5Y-102.0
X196.0Y-138.0
X197.0Y-118.0
X197.148Y-128.263
X197.5Y-104.5
X197.5Y-114.5
X198.0Y-130.0
X198.0Y-133.0
X198.0Y-135.5
X198.5Y-96.5
X198.5Y-100.5
X198.5Y-110.0
X199.0Y-121.0
X199.0Y-125.5
X200.5Y-117.5
X200.5Y-143.5
X201.0Y-103.0
X201.0Y-107.5
X201.0Y-123.5
X201.0Y-130.0
X201.0Y-133.0
X202.0Y-127.0
X202.5Y-110.0
X204.0Y-121.5
X204.0Y-125.0
X204.0Y-126.0
X204.0Y-127.0
X204.0Y-128.0
X204.0Y-130.0
X204.0Y-133.5
X204.0Y-134.5
X204.0Y-135.5
X204.0Y-136.5
X205.0Y-99.5
X205.0Y-103.5
X206.0Y-99.5
X206.0Y-103.5
X206.5Y-92.5
X206.5Y-112.0
X206.5Y-118.0
X206.5Y-138.0
X206.5Y-143.5
X207.0Y-99.5
X207.0Y-103.5
X207.0Y-129.0
T2
X157.69Y-131.5
X165.31Y-131.5
X185.5Y-131.5
X193.12Y-131.5
T3
X31.58Y-117.5
X31.58Y-118.75
X31.58Y-121.25
X31.58Y-122.5
X34.0Y-130.5
X39.0Y-115.34
X39.0Y-125.5
X44.16Y-130.5
X55.0Y-122.09
X55.0Y-132.25
X94.5Y-124.5
X94.5Y-125.75
X94.5Y-128.25
X94.5Y-129.5
X101.84Y-123.0
X112.0Y-123.0
X112.0Y-127.0
X112.0Y-128.25
X112.0Y-130.75
X112.0Y-132.0
X125.0Y-130.0
X126.25Y-130.0
X128.75Y-130.0
X130.0Y-130.0
X154.0Y-105.92
X154.0Y-116.08
X155.96Y-120.0
X158.5Y-105.84
X158.5Y-116.0
X158.5Y-120.0
X161.04Y-120.0
X163.0Y-106.0
X163.0Y-111.0
X167.5Y-105.92
X167.5Y-116.08
X170.0Y-119.26
X170.0Y-124.26
X172.5Y-105.92
X172.5Y-116.08
X178.5Y-105.92
X178.5Y-116.08
X181.0Y-119.26
X181.0Y-124.26
X183.5Y-105.92
X183.5Y-116.08
X188.0Y-106.0
X188.0Y-111.0
X189.92Y-119.5
X192.46Y-119.5
X192.5Y-105.92
X192.5Y-116.08
X195.0Y-119.5
X196.0Y-105.92
X196.0Y-116.08
T4
X147.0Y-129.5
X147.0Y-132.04
X153.5Y-129.46
X153.5Y-132.0
X174.5Y-129.46
X174.5Y-132.0
X181.0Y-129.5
X181.0Y-132.04
T5
X148.0Y-120.5
X153.0Y-120.5
X200.5Y-114.5
X200.5Y-119.5
T6
X22.5Y-103.5
X25.58Y-122.5
X25.58Y-127.0
X31.0Y-93.5
X42.5Y-93.5
X54.0Y-93.5
X64.5Y-93.5
X70.0Y-93.5
X75.5Y-93.5
X86.0Y-93.5
X97.5Y-93.5
X105.5Y-116.5
X109.0Y-93.5
X110.5Y-116.5
X115.5Y-116.5
X141.0Y-93.5
X152.5Y-93.5
X164.0Y-93.5
X175.5Y-93.5
X189.0Y-93.5
X193.0Y-93.5
X197.0Y-93.5
X206.0Y-101.5
X206.0Y-123.0
X206.0Y-127.0
X206.0Y-131.5
X206.0Y-135.5
T7
X34.0Y-141.0
X39.0Y-141.0
X44.0Y-141.0
X55.0Y-141.0
X60.0Y-141.0
X65.0Y-141.0
X84.5Y-141.0
X89.5Y-141.0
X94.5Y-141.0
X105.5Y-141.0
X110.5Y-141.0
X115.5Y-141.0
X126.5Y-141.0
X131.5Y-141.0
X136.5Y-141.0
X155.5Y-141.0
X160.5Y-141.0
X165.5Y-141.0
X180.5Y-141.0
X185.5Y-141.0
X190.5Y-141.0
M30
